<svg width="14" height="13" viewBox="0 0 14 13" fill="none" xmlns="http://www.w3.org/2000/svg">
<path d="M11.6001 13.0001L7.95008 9.35007L9.35008 7.95007L13.0001 11.6001L11.6001 13.0001ZM2.40008 13.0001L1.00008 11.6001L5.60008 7.00006L4.46675 5.86673L4.00008 6.3334L3.15008 5.4834V6.85006L2.68341 7.31673L0.666748 5.30007L1.13341 4.8334H2.50008L1.66675 4.00007L4.03341 1.6334C4.25564 1.41118 4.49453 1.25007 4.75008 1.15007C5.00564 1.05007 5.26675 1.00007 5.53341 1.00007C5.80008 1.00007 6.06119 1.05007 6.31675 1.15007C6.5723 1.25007 6.81119 1.41118 7.03341 1.6334L5.50008 3.16673L6.33341 4.00007L5.86675 4.46673L7.00008 5.60007L8.50008 4.10007C8.45564 3.97784 8.41964 3.85007 8.39208 3.71673C8.36408 3.5834 8.35008 3.45007 8.35008 3.31673C8.35008 2.66118 8.57519 2.10829 9.02541 1.65807C9.47519 1.20829 10.0279 0.983398 10.6834 0.983398C10.8501 0.983398 11.0085 1.00007 11.1587 1.0334C11.3085 1.06673 11.4612 1.11673 11.6167 1.1834L9.96675 2.8334L11.1667 4.0334L12.8167 2.3834C12.8945 2.53895 12.9474 2.69162 12.9754 2.8414C13.003 2.99162 13.0167 3.15007 13.0167 3.31673C13.0167 3.97229 12.7919 4.52495 12.3421 4.97473C11.8919 5.42495 11.339 5.65007 10.6834 5.65007C10.5501 5.65007 10.4167 5.63895 10.2834 5.61673C10.1501 5.59451 10.0223 5.55562 9.90008 5.50007L2.40008 13.0001Z" fill="white"/>
</svg>
