<svg width="935" height="820" viewBox="0 0 935 820" fill="none" xmlns="http://www.w3.org/2000/svg">
<g clip-path="url(#clip0_1_845)">
<mask id="mask0_1_845" style="mask-type:luminance" maskUnits="userSpaceOnUse" x="0" y="0" width="935" height="820">
<path d="M923.01 0.935746L12.8197 0.0121658C6.19816 0.0054468 0.824875 5.36783 0.818157 11.9894L0.0121783 806.283C0.00545936 812.905 5.36785 818.278 11.9894 818.285L922.18 819.208C928.802 819.215 934.175 813.853 934.182 807.231L934.988 12.9373C934.994 6.31575 929.632 0.942465 923.01 0.935746Z" fill="white"/>
</mask>
<g mask="url(#mask0_1_845)">
<g filter="url(#filter0_d_1_845)">
<path d="M935.023 -22.5313L0.854004 -23.4792L-0.0239555 841.752L934.146 842.7L935.023 -22.5313Z" fill="white"/>
<path d="M312.141 740.475L297.911 744.842C297.008 745.119 296.034 744.726 295.576 743.9L287.712 729.696C287.435 729.195 286.957 728.838 286.4 728.713L255.681 721.847C254.966 721.687 254.408 721.143 254.129 720.465C252.985 717.686 250.287 714.35 246.03 717.327C239.958 721.573 239.966 714.284 246.036 711.253C252.107 708.222 239.382 691.81 230.275 697.267C223.511 701.321 221.465 694.174 221.211 689.242C221.176 688.56 221.532 687.926 222.108 687.559L240.563 675.829C240.985 675.561 241.291 675.145 241.421 674.663L263.075 594.301C263.121 594.132 263.144 593.958 263.144 593.783L263.165 573.395C265.818 549.913 272.095 502.705 275.979 501.737C280.834 500.528 280.829 505.387 287.494 515.111C294.158 524.836 296.579 530.305 296.576 533.342C296.573 536.379 298.38 549.743 303.235 548.533C308.09 547.323 299.622 521.198 296.595 515.121C293.567 509.044 272.956 490.801 268.106 487.76C263.255 484.718 268.719 481.686 272.363 477.438C275.11 474.237 278.795 465.038 280.57 460.09C280.767 459.541 280.707 458.935 280.414 458.431L272.873 445.46C272.572 444.941 272.519 444.314 272.73 443.752L276.047 434.926L272.249 436.822C271.596 437.148 270.818 437.092 270.218 436.676L238.225 414.501C237.974 414.327 237.766 414.097 237.617 413.829L220.855 383.669C220.5 383.031 220.522 382.25 220.911 381.633L229.597 367.854C230.165 366.953 229.927 365.765 229.055 365.153L224.668 362.072C224.588 362.016 224.504 361.966 224.416 361.922L218.367 358.886C217.198 358.3 216.899 356.768 217.76 355.784L219.816 353.437C220.134 353.073 220.31 352.606 220.311 352.123L220.316 346.975C220.317 345.872 221.212 344.978 222.316 344.979L232.035 344.989C232.31 344.989 232.582 345.05 232.831 345.166C234.701 346.043 236.412 343.701 235.009 342.185L234.263 341.379C233.885 340.971 233.355 340.738 232.798 340.738L219.937 340.725C219.407 340.724 218.898 340.935 218.523 341.309L213.425 346.402C212.827 347 211.918 347.156 211.155 346.793L201.848 342.369C201.257 342.088 200.842 341.536 200.735 340.89L199.867 335.644C199.762 335.008 199.97 334.36 200.426 333.904L206.38 327.956L205.03 322.528C204.772 321.488 203.738 320.837 202.688 321.053L187.733 324.135C187.241 324.236 186.729 324.148 186.299 323.889L184.138 322.589C182.764 321.761 182.876 319.733 184.333 319.062L186.982 317.841C187.984 317.379 188.422 316.194 187.961 315.191L186.362 311.712C185.78 310.448 184.118 310.15 183.134 311.133L178.268 315.994C177.669 316.593 176.756 316.749 175.992 316.382L123.573 291.246C123.014 290.978 122.612 290.466 122.483 289.86L121.212 283.896C121.016 282.974 120.202 282.315 119.26 282.314L111.389 282.306C110.859 282.306 110.35 282.516 109.975 282.891L104.466 288.394C104.091 288.769 103.582 288.98 103.052 288.979L96.2381 288.972C95.3689 288.971 94.6 288.409 94.3361 287.58L90.1076 274.306C89.9982 273.963 89.798 273.655 89.528 273.416L82.6511 267.329C81.4137 266.234 81.9646 264.196 83.5851 263.873L99.7847 260.647C101.436 260.318 101.965 258.219 100.667 257.147L94.5568 252.099C93.9728 251.617 93.1662 251.506 92.4737 251.813L89.9532 252.932C88.9499 253.377 87.7753 252.929 87.3225 251.929L85.292 247.445C85.1745 247.186 85.1138 246.904 85.1141 246.619L85.1165 244.234C85.117 243.705 85.3278 243.197 85.7025 242.823L86.0641 242.461C87.0647 241.462 88.7588 241.79 89.3141 243.091L89.4525 243.415C89.7665 244.15 90.4886 244.627 91.2882 244.628L99.1499 244.636C100.112 244.637 100.892 243.858 100.893 242.897C100.894 242.128 100.39 241.449 99.6542 241.227L96.252 240.202C95.4073 239.947 94.8295 239.169 94.8304 238.287L94.8322 236.579C94.8334 235.374 93.7754 234.442 92.58 234.595L78.8716 236.352C77.4909 236.529 76.3569 235.275 76.671 233.919L79.4672 221.845C79.6016 221.265 79.9882 220.775 80.5213 220.508L101.12 210.224C102.043 209.764 103.164 210.08 103.709 210.955L104.898 212.864C105.407 213.681 106.427 214.019 107.323 213.667L121.249 208.207C122.135 207.86 123.142 208.185 123.658 208.984L128.027 215.759C128.738 216.861 130.301 216.991 131.184 216.02L134.518 212.357C135.108 211.709 136.05 211.521 136.844 211.892L144.205 215.34C144.469 215.464 144.758 215.528 145.05 215.529L146.855 215.53C147.959 215.532 148.854 214.638 148.856 213.534L148.857 211.804C148.858 211.461 148.946 211.124 149.115 210.825L153.487 203.062C153.971 202.202 155.01 201.825 155.932 202.172L158.421 203.109C158.908 203.293 159.447 203.279 159.925 203.07L167.642 199.7C168.396 199.37 169.275 199.537 169.857 200.12L170.386 200.651C170.951 201.218 171.799 201.393 172.542 201.097L174.645 200.257C175.958 199.733 177.386 200.701 177.384 202.115L177.382 203.702C177.382 204.29 177.64 204.848 178.088 205.228L184.934 211.039C185.15 211.223 185.325 211.451 185.447 211.707L195.685 233.342C196.237 234.507 197.732 234.853 198.739 234.048L216.435 219.906C217.306 219.209 218.578 219.361 219.262 220.242L225.903 228.808C226.281 229.296 226.863 229.581 227.48 229.582L230.572 229.585C231.675 229.586 232.571 228.693 232.572 227.589L232.574 224.989C232.575 224.112 233.148 223.338 233.986 223.08L245.769 219.464C247.054 219.07 248.355 220.032 248.353 221.377L248.347 227.439C248.346 228.605 249.34 229.524 250.503 229.433L263.515 228.404L271.053 228.411C272.884 228.413 273.753 226.157 272.394 224.93L264.793 218.068C264.373 217.688 264.133 217.148 264.134 216.582L264.17 180.285C264.171 179.975 264.099 179.67 263.961 179.392L248.638 148.636C248.5 148.359 248.428 148.053 248.428 147.743L248.438 138.213C248.438 137.998 248.473 137.785 248.541 137.582L250.082 132.967C250.488 131.754 251.913 131.229 253.008 131.889L265.375 139.333C265.798 139.588 266.3 139.677 266.785 139.583L285.983 135.866C287.041 135.662 288.07 136.332 288.311 137.381L289.454 142.365C289.602 143.011 289.421 143.688 288.97 144.173L282.786 150.826C282.195 151.461 282.083 152.406 282.507 153.163L291.158 168.595C291.874 169.872 293.675 169.971 294.526 168.78L297.942 164.003C298.439 163.309 299.322 163.007 300.14 163.251L343.018 176.059C343.433 176.183 343.878 176.169 344.284 176.018L378.211 163.443C380.188 162.71 379.83 159.812 377.734 159.583L366.162 158.319C364.896 158.18 364.08 156.907 364.484 155.699L369.504 140.676C369.683 140.14 370.08 139.705 370.597 139.478L438.984 109.535L447.732 100.214C447.97 99.96 448.27 99.7728 448.603 99.6708L452.667 98.4234C454.14 97.9714 454.569 96.0935 453.438 95.0469L449.906 91.7759C448.976 90.9154 449.072 89.4186 450.103 88.683L451.465 87.7109C452.02 87.3152 452.335 86.6643 452.3 85.984L450.048 41.1331C450.005 40.2756 450.515 39.4865 451.314 39.1728L502.295 19.1627C503.259 18.7844 504.352 19.205 504.814 20.1317L511.549 33.6517C511.756 34.067 511.812 34.5415 511.707 34.9936L510.309 41.0343C510.144 41.7458 510.38 42.4906 510.925 42.9766L525.229 55.7302C525.92 56.3467 526.945 56.4072 527.704 55.8764L537.467 49.0497C538.125 48.5898 538.994 48.568 539.674 48.9944L542.855 50.9892C543.211 51.2126 543.488 51.5427 543.645 51.9325L550.871 69.7894C551.121 70.4067 551.662 70.859 552.313 70.9956L564.692 73.5903C565.395 73.7376 565.965 74.2511 566.185 74.935L570.469 88.2766C571.004 89.9414 573.268 90.1651 574.118 88.637L574.345 88.2282C574.698 87.5938 575.367 87.2007 576.093 87.2014L580.023 87.2054C580.631 87.206 581.205 86.9304 581.585 86.4563L582.814 84.9221C583.193 84.448 583.768 84.1723 584.375 84.1729L589.001 84.1776C589.679 84.1783 590.311 84.5229 590.678 85.0928L596.237 93.7113C596.558 94.2099 597.111 94.5113 597.704 94.5119C598.969 94.5132 599.814 95.8156 599.299 96.9711L596.011 104.357C595.713 105.026 595.805 105.804 596.251 106.386L600.883 112.427C601.319 112.994 601.417 113.752 601.142 114.412L599.411 118.559C598.95 119.662 599.554 120.92 600.703 121.249L602.792 121.849L614.321 121.861C614.716 121.861 615.102 121.745 615.431 121.526L627.367 113.577C627.572 113.441 627.75 113.268 627.892 113.067L631.908 107.383C632.972 105.878 635.333 106.493 635.527 108.326L638.385 135.284C638.493 136.3 639.349 137.071 640.37 137.072L646.847 137.078C647.377 137.079 647.886 137.29 648.26 137.666L650.269 139.681C650.554 139.967 650.918 140.159 651.314 140.234L659.614 141.8C660.126 141.897 660.58 142.19 660.879 142.617L671.328 157.512C671.701 158.045 672.311 158.363 672.961 158.363L680.434 158.371C680.82 158.371 681.197 158.26 681.521 158.051L690.074 152.523C690.826 152.037 691.81 152.11 692.481 152.703L705.045 163.793C705.856 164.509 707.089 164.449 707.827 163.659L713.643 157.434C714.395 156.629 715.658 156.585 716.465 157.336L722.268 162.742C722.976 163.401 724.054 163.459 724.828 162.879L726.639 161.522C727.564 160.829 728.883 161.063 729.513 162.032L745.932 187.291C746.301 187.858 746.93 188.2 747.606 188.201L749.638 188.203C750.34 188.203 750.991 187.835 751.353 187.233L753.833 183.104C754.195 182.502 754.846 182.134 755.548 182.135L758.442 182.138C758.972 182.138 759.481 182.35 759.855 182.725L764.941 187.826C765.196 188.083 765.517 188.265 765.869 188.354L776.444 191.011C777.082 191.172 777.758 191.008 778.252 190.573L786.175 183.589C787.046 182.821 788.385 182.955 789.087 183.879L796.8 194.035C797.224 194.592 797.907 194.887 798.603 194.813L814.009 193.177C814.314 193.144 814.623 193.183 814.911 193.289L830.754 199.122C831.805 199.509 832.333 200.684 831.924 201.726L801.209 280.135C801.095 280.425 801.051 280.738 801.08 281.049L803.96 311.943C804.009 312.473 803.845 313 803.504 313.409L801.774 315.483C801.298 316.054 801.178 316.842 801.463 317.529L803.576 322.619C803.853 323.289 803.747 324.056 803.298 324.624L795.387 334.635C795.082 335.021 794.645 335.281 794.16 335.365L783.297 337.245C782.074 337.456 780.956 336.514 780.958 335.274L780.961 332.183L767.673 333.832C766.896 333.929 766.247 334.471 766.013 335.218L763.9 341.96C763.591 342.948 764.087 344.009 765.044 344.405L770.922 346.834C772.232 347.376 772.577 349.072 771.582 350.083L738.402 383.792C738.035 384.165 737.829 384.668 737.828 385.192L737.813 399.89C737.813 400.453 737.575 400.989 737.159 401.367L718.309 418.487C717.962 418.802 717.737 419.229 717.673 419.694L715.938 432.335L721.478 435.115C722.445 435.6 722.85 436.767 722.392 437.747L719.068 444.858C718.995 445.014 718.903 445.16 718.793 445.292L712.577 452.743C711.492 454.043 712.416 456.019 714.11 456.021L722.333 456.029C722.883 456.03 723.409 455.804 723.787 455.404L732.048 446.666C732.844 445.824 732.759 444.483 731.864 443.748L729.144 441.516C728.048 440.617 728.211 438.894 729.456 438.216L733.082 436.241C733.376 436.081 733.705 435.997 734.04 435.998L739.243 436.003C739.85 436.004 740.425 435.728 740.804 435.254L744.463 430.685C744.843 430.211 745.417 429.936 746.025 429.936L759.949 429.95C760.515 429.951 761.055 430.192 761.434 430.614L765.457 435.098C765.969 435.668 766.109 436.481 765.818 437.19L761.297 448.221C761.005 448.934 761.149 449.751 761.666 450.321L777.78 468.102C778.472 468.866 778.47 470.031 777.774 470.792L766.768 482.835C766.432 483.202 766.245 483.682 766.245 484.181L766.24 488.879C766.239 489.622 766.651 490.304 767.309 490.65L777.904 496.219C778.562 496.565 778.973 497.247 778.972 497.99L778.968 502.72C778.967 503.199 779.139 503.662 779.452 504.026L789.582 515.792C790.123 516.421 790.22 517.319 789.824 518.048L782.83 530.942C782.666 531.246 782.425 531.502 782.132 531.685L772.992 537.39C772.907 537.443 772.819 537.49 772.727 537.529L754.655 545.347L760.472 551.182C760.633 551.344 760.766 551.533 760.864 551.74L765.784 562.165C766.026 562.679 766.476 563.065 767.021 563.228L781.112 567.423C781.96 567.675 782.541 568.455 782.54 569.34L782.53 579.82C782.529 580.924 781.633 581.817 780.53 581.816H780.198C779.402 581.815 778.682 582.287 778.364 583.016L773.169 594.945C772.938 595.474 772.948 596.078 773.195 596.599L778.784 608.378C778.835 608.485 778.876 608.597 778.907 608.711L782.177 620.763C782.368 621.467 782.928 622.011 783.638 622.182L809.682 628.444C810.14 628.554 810.621 628.5 811.042 628.289L822.132 622.753C823.048 622.295 824.163 622.605 824.712 623.47L827.301 627.553C827.718 628.211 827.715 629.052 827.292 629.707L816.362 646.629C816.027 647.146 815.951 647.789 816.153 648.371L819.494 657.958C819.823 658.9 819.406 659.939 818.518 660.394L797.155 671.334C796.668 671.583 796.304 672.022 796.149 672.547L793.77 680.612C793.52 681.463 792.738 682.046 791.852 682.045L783.867 682.037C783.006 682.036 782.242 682.586 781.97 683.402L779.231 691.598C778.958 692.414 778.194 692.964 777.334 692.964L770.54 692.957C769.987 692.956 769.459 693.184 769.081 693.587L761.965 701.17C761.196 701.989 761.254 703.281 762.092 704.029L763.929 705.666C764.953 706.579 764.774 708.228 763.578 708.9L746.734 718.362C746.639 718.415 746.54 718.461 746.437 718.498L726.893 725.59C726.674 725.67 726.442 725.71 726.209 725.71L716.307 725.7C715.874 725.7 715.453 725.559 715.107 725.299L706.329 718.694C706.073 718.502 705.775 718.373 705.459 718.32L682.13 714.404C681.167 714.242 680.462 713.408 680.463 712.431L680.47 704.581C680.472 703.478 679.578 702.582 678.474 702.581L661.686 702.564C660.928 702.563 660.237 702.135 659.899 701.457L658.505 698.658C657.944 697.533 656.495 697.198 655.498 697.965L650.068 702.137C649.718 702.406 649.289 702.552 648.848 702.551L635.752 702.538C634.648 702.537 633.754 701.641 633.755 700.538L633.758 698.206C633.759 697.207 633.022 696.361 632.032 696.224L607.067 692.791L602.207 687.374C601.828 686.952 601.288 686.711 600.722 686.71L590.028 686.7C589.668 686.699 589.314 686.797 589.004 686.981L555.062 707.202C554.936 707.277 554.818 707.366 554.711 707.467L532.486 728.503C532.048 728.917 531.821 729.506 531.867 730.107L534.788 768.032L537.079 780.487C537.377 782.11 535.692 783.374 534.217 782.635L526.465 778.744C525.963 778.492 525.377 778.463 524.853 778.665L510.505 784.172C510.109 784.324 509.771 784.599 509.541 784.956L505.487 791.255C504.898 792.171 503.683 792.446 502.757 791.874L482.019 779.07C481.279 778.613 480.329 778.687 479.669 779.252L465.596 791.303C464.648 792.115 463.196 791.869 462.568 790.79L455.871 779.27C455.514 778.655 454.857 778.277 454.146 778.276L445.829 778.268C444.495 778.266 443.537 776.984 443.915 775.704L445.763 769.437C446.022 768.558 445.651 767.616 444.862 767.151L437.164 762.607C436.409 762.162 435.453 762.26 434.805 762.849L430.718 766.56C429.892 767.311 428.611 767.239 427.874 766.401L420.72 758.268C420.341 757.837 419.796 757.59 419.222 757.59L411.548 757.582C410.846 757.581 410.196 757.212 409.835 756.609L407.226 752.245C406.943 751.772 406.476 751.437 405.938 751.319L380.864 745.836C379.773 745.597 378.698 746.299 378.478 747.394L376.761 755.94C376.574 756.874 375.753 757.546 374.8 757.545L352.714 757.522C352.357 757.522 352.007 757.426 351.7 757.245L342.756 751.966C342.195 751.635 341.507 751.598 340.914 751.867L330.591 756.551C329.489 757.052 328.198 756.464 327.851 755.303L325.16 746.29C324.982 745.695 324.538 745.217 323.959 744.995L312.141 740.475Z" fill="#CAD4E8"/>
<path d="M847.356 673.598L848.889 659.917C849.039 658.573 850.454 657.763 851.689 658.314L853.466 659.107C854.187 659.429 854.651 660.145 854.65 660.934L854.635 675.271C854.635 675.376 854.627 675.48 854.611 675.583L852.938 686.118C852.852 686.66 852.992 687.213 853.326 687.648L858.449 694.329C858.717 694.679 858.862 695.107 858.862 695.547L858.848 709.445L858.818 739.064C858.817 739.548 858.641 740.015 858.323 740.379L846.648 753.708C846.274 754.135 846.1 754.7 846.168 755.264L848.983 778.572C849.039 779.032 848.932 779.498 848.683 779.888L835.682 800.213C835.314 800.788 834.679 801.135 833.997 801.135L831.629 801.132C830.526 801.131 829.632 800.236 829.633 799.132L829.636 796.401C829.637 795.588 829.145 794.856 828.392 794.549L810.836 787.388C810.442 787.227 810.11 786.945 809.887 786.583L806.571 781.176C805.941 780.149 806.357 778.803 807.456 778.309L813.478 775.604C815.048 774.898 815.051 772.669 813.481 771.96L805.395 768.307L802.181 766.373C800.89 765.595 800.891 763.722 802.185 762.947L807.71 759.636C808.175 759.357 808.507 758.901 808.629 758.373L809.592 754.216C809.913 752.83 808.723 751.561 807.318 751.794L799.801 753.04C799.5 753.09 799.191 753.071 798.898 752.982L796.573 752.281C795.104 751.839 794.661 749.975 795.774 748.919L803.41 741.672C804.4 740.732 804.177 739.098 802.972 738.458L796.005 734.756C795.445 734.459 795.06 733.913 794.966 733.286L793.539 723.698C793.403 722.781 793.915 721.891 794.775 721.548L798.674 719.991C800.208 719.379 800.379 717.275 798.964 716.423L795.776 714.504C794.583 713.786 794.471 712.1 795.559 711.231L801.675 706.343C802.149 705.964 802.425 705.391 802.425 704.784L802.436 694.223C802.437 693.467 802.865 692.776 803.542 692.438L831.895 678.282C832.458 678.001 833.121 678.001 833.684 678.284L844.453 683.688C845.781 684.354 847.346 683.39 847.348 681.904L847.356 673.598Z" fill="#CAD4E8"/>
<path d="M312.141 740.475L297.911 744.842C297.007 745.119 296.034 744.726 295.576 743.9L287.712 729.696C287.435 729.195 286.957 728.838 286.4 728.713L255.681 721.847C254.966 721.687 254.408 721.143 254.129 720.465C252.985 717.686 250.287 714.35 246.03 717.327C239.958 721.573 239.966 714.284 246.036 711.253C252.107 708.222 239.382 691.81 230.275 697.267C223.511 701.321 221.465 694.174 221.211 689.242C221.176 688.56 221.532 687.926 222.108 687.559L240.563 675.829C240.985 675.561 241.291 675.145 241.421 674.663L263.075 594.301C263.121 594.132 263.144 593.958 263.144 593.783L263.165 573.395C265.818 549.913 272.095 502.705 275.979 501.737C280.834 500.528 280.829 505.387 287.494 515.111C294.158 524.836 296.579 530.305 296.576 533.342C296.573 536.379 298.38 549.743 303.235 548.533C308.09 547.323 299.622 521.198 296.595 515.121C293.567 509.044 272.956 490.801 268.106 487.76C263.255 484.718 268.719 481.686 272.363 477.438C275.11 474.237 278.795 465.038 280.57 460.09C280.767 459.541 280.707 458.935 280.414 458.431L272.873 445.46C272.572 444.941 272.519 444.314 272.73 443.752L276.047 434.926M312.141 740.475L337.21 698.151C337.501 697.658 337.568 697.065 337.392 696.52L331.405 677.929C331.167 677.191 330.523 676.657 329.753 676.56L319.661 675.286C318.187 675.1 317.424 673.429 318.249 672.194L324.695 662.536C324.871 662.273 324.982 661.972 325.018 661.657L326.679 647.374C326.754 646.729 327.138 646.161 327.708 645.85L332.623 643.173C333.162 642.879 333.806 642.849 334.369 643.092L340.439 645.703C341.325 646.084 342.356 645.779 342.891 644.977L344.085 643.188C344.289 642.881 344.575 642.637 344.91 642.483L351.531 639.432C352.016 639.209 352.571 639.189 353.071 639.377L356.468 640.656C356.903 640.82 357.382 640.827 357.822 640.676L374.166 635.053C374.542 634.923 374.948 634.909 375.333 635.012L382.728 636.994C383.417 637.179 384.153 636.982 384.657 636.478L398.582 622.566C399.206 621.943 399.348 620.985 398.931 620.208L395.942 614.638C395.603 614.006 395.629 613.241 396.009 612.634L397.34 610.507C397.938 609.551 399.208 609.279 400.145 609.906L401.567 610.857C401.895 611.077 402.281 611.194 402.676 611.194L404.689 611.196C406.073 611.198 407.039 609.826 406.572 608.524L402.487 597.127C402.24 596.438 402.389 595.669 402.876 595.123L431.344 563.201C431.67 562.836 431.85 562.363 431.851 561.873L431.857 556.129C431.858 555.025 432.753 554.131 433.857 554.132L442.707 554.141C443.148 554.142 443.576 554.288 443.925 554.558L450.63 559.731C451.04 560.047 451.556 560.192 452.07 560.135L473.113 557.816M312.141 740.475L323.959 744.995C324.538 745.217 324.982 745.695 325.16 746.29L327.851 755.303C328.198 756.464 329.489 757.052 330.591 756.551L340.914 751.867C341.507 751.598 342.195 751.635 342.756 751.966L351.7 757.245C352.007 757.426 352.357 757.522 352.714 757.522L374.8 757.545C375.753 757.546 376.574 756.874 376.761 755.94L378.478 747.394C378.698 746.299 379.773 745.597 380.864 745.836L405.938 751.319C406.476 751.437 406.943 751.772 407.226 752.245L409.835 756.609C410.196 757.212 410.846 757.581 411.548 757.582L419.222 757.59C419.795 757.59 420.341 757.837 420.72 758.268L427.874 766.401C428.611 767.239 429.892 767.311 430.718 766.56L434.805 762.849C435.453 762.26 436.409 762.162 437.164 762.607L444.862 767.151C445.651 767.616 446.022 768.558 445.763 769.437L443.915 775.704C443.537 776.984 444.495 778.266 445.829 778.268L454.146 778.276C454.857 778.277 455.514 778.655 455.871 779.27L462.568 790.79C463.196 791.869 464.648 792.115 465.596 791.303L479.669 779.252C480.329 778.687 481.279 778.613 482.019 779.07L502.757 791.874C503.683 792.446 504.898 792.171 505.487 791.255L509.541 784.956C509.771 784.599 510.109 784.324 510.505 784.172L524.853 778.665C525.377 778.463 525.963 778.492 526.465 778.744L534.217 782.635C535.692 783.375 537.377 782.11 537.079 780.487L534.788 768.032L531.867 730.107C531.821 729.506 532.048 728.917 532.486 728.503L554.711 707.467C554.818 707.366 554.936 707.277 555.062 707.202L589.004 686.981C589.314 686.797 589.668 686.699 590.028 686.7L600.722 686.71C601.288 686.711 601.828 686.952 602.207 687.374L607.067 692.791M276.047 434.926C277.869 433.308 282.726 430.195 287.579 430.686C292.033 431.136 298.87 433.328 302.465 434.627C303.028 434.831 303.651 434.779 304.169 434.48L311.094 430.476C312.136 429.873 311.71 428.281 310.506 428.279C309.895 428.279 309.385 427.81 309.334 427.2L306.47 392.952C306.442 392.616 306.329 392.293 306.143 392.012L296.703 377.806C295.76 376.388 296.911 374.515 298.603 374.716L313.596 376.497C314.406 376.594 315.194 376.187 315.585 375.471L318.016 371.021C318.367 370.379 319.04 369.98 319.772 369.98L340.731 370.002M276.047 434.926L272.249 436.822C271.596 437.148 270.818 437.092 270.218 436.676L238.225 414.501C237.974 414.327 237.766 414.097 237.617 413.829L220.855 383.669C220.5 383.031 220.522 382.25 220.911 381.633L229.597 367.854C230.165 366.953 229.927 365.765 229.055 365.153L224.668 362.072C224.588 362.016 224.504 361.966 224.416 361.922L218.367 358.886C217.198 358.3 216.899 356.768 217.76 355.784L219.816 353.437C220.134 353.073 220.31 352.606 220.311 352.123L220.316 346.975C220.317 345.872 221.212 344.978 222.316 344.979L232.035 344.989C232.31 344.989 232.582 345.05 232.831 345.166C234.701 346.043 236.412 343.701 235.009 342.185L234.263 341.379C233.885 340.971 233.355 340.738 232.798 340.738L219.937 340.725C219.407 340.724 218.898 340.935 218.523 341.309L213.425 346.402C212.827 347 211.918 347.156 211.155 346.793L201.848 342.369C201.257 342.088 200.842 341.536 200.735 340.89L199.867 335.644C199.762 335.008 199.97 334.36 200.426 333.904L206.38 327.956M473.113 557.816L473.119 552.838C473.119 552.517 473.196 552.202 473.344 551.917L480.951 537.31C480.998 537.219 481.052 537.132 481.113 537.05L487.164 528.807C487.508 528.339 487.631 527.744 487.501 527.178L486.567 523.106C486.247 521.713 487.451 520.445 488.859 520.691L497.273 522.165C498.57 522.392 499.728 521.325 499.608 520.015L496.895 490.36C496.863 490.003 496.734 489.66 496.523 489.37L493.161 484.732C492.517 483.844 492.71 482.603 493.592 481.951L504.966 473.553C505.577 473.102 505.879 472.343 505.746 471.595L501.867 449.835C501.785 449.376 501.546 448.96 501.19 448.659L490.487 439.618C490.312 439.47 490.164 439.294 490.049 439.096L485.983 432.102M473.113 557.816L477.803 573.13C477.901 573.447 477.917 573.783 477.852 574.109L475.647 585.087C475.56 585.522 475.62 585.974 475.818 586.371L476.881 588.507C477.432 589.612 478.845 589.958 479.844 589.232L483.95 586.249C484.375 585.941 484.904 585.812 485.423 585.89L495.381 587.396C496.203 587.52 497.015 587.123 497.422 586.399L509.34 565.182C510.016 563.979 511.68 563.807 512.588 564.847L514.372 566.893C514.751 567.328 515.3 567.577 515.876 567.578L519.819 567.582C520.567 567.583 521.251 568 521.594 568.665L528.219 581.52C528.986 583.008 531.133 582.95 531.818 581.423L537.789 568.126C537.943 567.783 538.191 567.49 538.504 567.281L550.364 559.384C551.477 558.642 552.99 559.183 553.382 560.462L556.591 570.939C556.999 572.272 558.613 572.788 559.719 571.938L564.089 568.58C564.817 568.021 565.833 568.029 566.551 568.601L582.518 581.304C582.775 581.509 582.978 581.773 583.108 582.075L596.626 613.344C596.761 613.657 596.974 613.93 597.244 614.137L605.749 620.661C606.544 621.271 607.669 621.198 608.378 620.49L614.084 614.788C614.659 614.215 615.524 614.045 616.272 614.36L633.835 621.754M607.067 692.791L620.115 677.386C620.322 677.14 620.586 676.949 620.884 676.827L632.543 672.066C633.294 671.76 633.785 671.03 633.786 670.219L633.804 653.122C633.804 652.493 634.101 651.902 634.604 651.525L644.538 644.082C645.344 643.478 645.575 642.369 645.077 641.494L633.835 621.754M607.067 692.791L632.032 696.224C633.022 696.361 633.759 697.207 633.758 698.206L633.755 700.538C633.754 701.641 634.648 702.537 635.752 702.538L648.848 702.551C649.29 702.552 649.718 702.406 650.068 702.137L655.498 697.965C656.495 697.198 657.944 697.533 658.505 698.658L659.899 701.457C660.237 702.135 660.928 702.563 661.686 702.564L678.474 702.581C679.578 702.582 680.472 703.478 680.47 704.581L680.463 712.431C680.462 713.408 681.167 714.242 682.13 714.404L705.459 718.32C705.775 718.373 706.073 718.502 706.329 718.694L715.107 725.299C715.453 725.559 715.874 725.7 716.307 725.7L726.209 725.71C726.442 725.71 726.674 725.67 726.893 725.59L746.437 718.498C746.54 718.461 746.639 718.415 746.734 718.362L763.578 708.9C764.774 708.228 764.953 706.579 763.929 705.666L762.092 704.029C761.254 703.281 761.196 701.989 761.965 701.17L769.081 693.587C769.459 693.184 769.987 692.956 770.54 692.957L777.334 692.963C778.194 692.964 778.958 692.414 779.231 691.598L781.97 683.402C782.242 682.586 783.006 682.036 783.867 682.037L791.852 682.045C792.738 682.046 793.52 681.463 793.77 680.612L796.149 672.547C796.304 672.022 796.668 671.583 797.155 671.334L818.518 660.394C819.406 659.939 819.823 658.9 819.494 657.958L816.153 648.371C815.951 647.789 816.027 647.146 816.362 646.629L827.292 629.707C827.715 629.052 827.718 628.211 827.301 627.553L824.712 623.47C824.163 622.605 823.048 622.295 822.132 622.753L811.042 628.289C810.621 628.5 810.14 628.554 809.682 628.444L783.638 622.182C782.928 622.011 782.368 621.467 782.177 620.763L778.907 608.711C778.876 608.597 778.835 608.485 778.784 608.378L773.195 596.599C772.948 596.078 772.938 595.474 773.169 594.945L778.364 583.016C778.682 582.287 779.402 581.815 780.198 581.816H780.53C781.633 581.817 782.529 580.924 782.53 579.82L782.54 569.34C782.541 568.455 781.96 567.675 781.112 567.423L767.021 563.228C766.476 563.065 766.026 562.679 765.784 562.165L760.864 551.74C760.766 551.533 760.633 551.344 760.472 551.182L754.655 545.347M340.731 370.002L362.049 370.023C362.579 370.024 363.087 370.235 363.462 370.611L369.289 376.456C369.458 376.625 369.595 376.824 369.694 377.042L371.89 381.891C372.285 382.765 373.245 383.234 374.177 383.01L388.672 379.523C389.555 379.311 390.471 379.721 390.9 380.521L402.651 402.42C402.807 402.711 402.888 403.036 402.888 403.367L402.881 410.39C402.88 411.006 403.164 411.588 403.65 411.967L418.479 423.537C418.965 423.916 419.249 424.499 419.248 425.115L419.244 429.482C419.243 430.291 419.73 431.021 420.478 431.33L429.357 435C429.487 435.054 429.622 435.094 429.761 435.119L434.679 436.02C435.587 436.186 436.49 435.71 436.865 434.867L438.024 432.263C438.397 431.426 439.291 430.95 440.194 431.108L451.404 433.071C452.144 433.201 452.895 432.904 453.346 432.303L455.561 429.353C455.991 428.78 456.694 428.482 457.404 428.569L485.983 432.102M340.731 370.002L358.873 347.421C359.125 347.108 359.277 346.726 359.308 346.325L360.436 331.841C360.47 331.393 360.655 330.97 360.96 330.64L366.844 324.272C367.406 323.663 368.287 323.465 369.056 323.774L372.495 325.155C373.299 325.478 374.219 325.246 374.774 324.581L376.281 322.775C376.661 322.319 377.224 322.056 377.817 322.056L383.238 322.062C383.824 322.062 384.381 321.806 384.761 321.36L397.656 306.237C397.964 305.876 398.134 305.417 398.134 304.943L398.138 300.838C398.139 300.082 398.567 299.39 399.244 299.052L401.798 297.777C402.523 297.415 402.957 296.652 402.898 295.844L401.877 281.846C401.828 281.179 402.116 280.532 402.644 280.122L404.713 278.514C405.886 277.603 405.691 275.777 404.352 275.135L399.987 273.039M206.38 327.956L215.339 324.603C215.822 324.423 216.356 324.435 216.829 324.639L222.142 326.925C223.363 327.45 224.748 326.658 224.914 325.339L226.303 314.306C226.376 313.73 226.695 313.214 227.178 312.893L234.953 307.716C235.323 307.469 235.766 307.353 236.21 307.386L251.024 308.5C251.585 308.542 252.138 308.346 252.547 307.959L262.406 298.628C263.027 298.04 263.953 297.912 264.71 298.31L275.387 303.923C275.891 304.188 276.484 304.225 277.017 304.026L279.739 303.007C280.519 302.715 281.036 301.97 281.037 301.138L281.038 299.349C281.039 299.039 281.111 298.733 281.25 298.456L287.173 286.627C287.512 285.95 288.205 285.523 288.962 285.523L289.2 285.524C290.368 285.525 291.287 284.53 291.194 283.366L289.608 263.533C289.583 263.216 289.634 262.898 289.756 262.604L292.501 256.029C292.574 255.854 292.621 255.67 292.643 255.482L294.448 239.368M206.38 327.956L205.03 322.528C204.772 321.487 203.738 320.837 202.688 321.053L187.733 324.135C187.241 324.236 186.729 324.148 186.299 323.889L184.138 322.589C182.764 321.761 182.876 319.733 184.333 319.062L186.982 317.841C187.984 317.379 188.422 316.194 187.961 315.191L186.362 311.712C185.78 310.448 184.118 310.15 183.134 311.133L178.268 315.994C177.669 316.593 176.756 316.749 175.992 316.382L123.573 291.246C123.014 290.978 122.612 290.466 122.483 289.86L121.212 283.896C121.016 282.974 120.202 282.315 119.26 282.314L111.389 282.306C110.859 282.306 110.35 282.516 109.975 282.891L104.466 288.394C104.091 288.769 103.582 288.98 103.052 288.979L96.2381 288.972C95.3689 288.971 94.6 288.409 94.3361 287.58L90.1076 274.306C89.9982 273.963 89.798 273.655 89.528 273.416L82.6511 267.329C81.4137 266.234 81.9646 264.196 83.5851 263.873L99.7847 260.647C101.436 260.318 101.965 258.219 100.667 257.147L94.5568 252.099C93.9728 251.617 93.1662 251.506 92.4737 251.813L89.9532 252.932C88.9499 253.377 87.7753 252.929 87.3225 251.929L85.292 247.445C85.1745 247.186 85.1138 246.904 85.1141 246.619L85.1165 244.234C85.117 243.705 85.3278 243.197 85.7025 242.823L86.0641 242.461C87.0647 241.462 88.7588 241.79 89.3141 243.091L89.4525 243.415C89.7664 244.15 90.4886 244.627 91.2882 244.628L99.1499 244.636C100.112 244.637 100.892 243.858 100.893 242.897C100.894 242.128 100.39 241.449 99.6542 241.227L96.252 240.202C95.4073 239.947 94.8295 239.169 94.8304 238.287L94.8322 236.579C94.8334 235.374 93.7754 234.442 92.58 234.595L78.8716 236.352C77.4909 236.529 76.3569 235.275 76.671 233.919L79.4672 221.845C79.6016 221.265 79.9882 220.775 80.5213 220.508L101.12 210.224C102.043 209.764 103.164 210.08 103.709 210.955L104.898 212.864C105.407 213.681 106.427 214.019 107.323 213.667L121.249 208.207C122.135 207.86 123.142 208.185 123.658 208.984L128.027 215.759C128.738 216.861 130.301 216.991 131.184 216.02L134.518 212.357C135.108 211.709 136.05 211.521 136.844 211.892L144.205 215.34C144.469 215.464 144.758 215.528 145.05 215.529L146.855 215.53C147.959 215.532 148.854 214.638 148.856 213.534L148.857 211.804C148.858 211.461 148.946 211.124 149.115 210.825L153.487 203.062C153.971 202.202 155.01 201.825 155.932 202.172L158.421 203.109C158.908 203.293 159.447 203.279 159.925 203.07L167.642 199.7C168.396 199.37 169.275 199.537 169.857 200.12L170.386 200.651C170.951 201.218 171.799 201.393 172.542 201.097L174.645 200.257C175.958 199.733 177.386 200.701 177.384 202.115L177.382 203.702C177.382 204.29 177.64 204.848 178.088 205.228L184.934 211.039C185.15 211.223 185.325 211.451 185.447 211.707L195.685 233.342C196.237 234.507 197.732 234.853 198.739 234.048L216.435 219.906C217.306 219.209 218.578 219.361 219.262 220.242L225.903 228.808C226.281 229.296 226.863 229.581 227.48 229.582L230.572 229.585C231.675 229.586 232.571 228.693 232.572 227.589L232.574 224.989C232.575 224.112 233.148 223.338 233.986 223.08L245.769 219.464C247.054 219.07 248.355 220.032 248.353 221.377L248.347 227.439C248.346 228.605 249.34 229.524 250.503 229.433L263.515 228.404M485.983 432.102L489.841 424.947C490.095 424.476 490.527 424.126 491.041 423.976L503.365 420.392C504.218 420.144 504.805 419.363 504.805 418.475L504.811 412.795C504.812 411.992 505.293 411.267 506.033 410.955L532.128 399.958M532.128 399.958L532.16 368.238C532.16 367.928 532.088 367.622 531.95 367.345L526.315 356.034C526.177 355.757 526.105 355.451 526.106 355.141L526.124 337.356C526.124 336.982 526.019 336.616 525.822 336.298L518.136 323.96C517.537 322.998 517.857 321.73 518.842 321.168L528.78 315.496C529.403 315.141 529.787 314.48 529.788 313.763L529.795 306.577C529.796 306.084 529.979 305.608 530.309 305.242L535.082 299.944C535.202 299.811 535.304 299.662 535.384 299.501L537.856 294.565C538.137 294.003 538.138 293.341 537.858 292.779L529.826 276.657M532.128 399.958L542.499 408.05C542.85 408.323 543.282 408.472 543.727 408.473L552.175 408.481C552.55 408.482 552.917 408.587 553.234 408.786L556.404 410.774C557.121 411.224 558.042 411.173 558.705 410.649L569.723 401.936C570.867 401.031 572.563 401.617 572.905 403.035L576.869 419.476C576.958 419.848 577.154 420.187 577.431 420.452L588.647 431.167C589.291 431.783 589.45 432.751 589.036 433.54L583.574 443.954C583.248 444.575 583.272 445.322 583.637 445.921L588.938 454.625C589.397 455.379 590.296 455.742 591.15 455.519L613.71 449.629C614.588 449.4 615.202 448.606 615.203 447.698L615.208 442.613C615.21 441.163 616.707 440.197 618.029 440.794L626.949 444.824C627.207 444.94 627.487 445 627.77 445.001L632.647 445.006C633.472 445.006 634.211 445.513 634.509 446.282L635.979 450.079C636.683 451.897 639.307 451.734 639.781 449.844L645.661 426.4C645.938 425.294 647.084 424.644 648.176 424.973L651.535 425.985C651.988 426.122 652.474 426.093 652.908 425.905L664.706 420.785C665.574 420.407 666.589 420.692 667.134 421.466L681.648 442.051C682.561 443.346 684.546 443.114 685.136 441.643L686.076 439.296C686.66 437.84 688.618 437.593 689.544 438.86L693.019 443.614C693.623 444.44 694.754 444.677 695.638 444.161L715.938 432.335M633.835 621.754L637.136 617.986C637.704 617.337 638.624 617.126 639.417 617.462L648.78 621.419C649.308 621.643 649.907 621.628 650.424 621.38L663.133 615.269C664.461 614.631 665.999 615.6 665.997 617.072L665.994 620.505C665.993 621.286 666.448 621.996 667.157 622.323L680.108 628.281C680.397 628.414 680.65 628.614 680.846 628.864L684.979 634.141C685.949 635.38 687.904 635.063 688.434 633.582L689.781 629.819C690.066 629.024 690.82 628.493 691.664 628.494L696.752 628.499C697.855 628.501 698.751 627.607 698.752 626.503L698.76 618.132C698.761 617.409 698.371 616.742 697.741 616.388L684.622 609.016C683.992 608.662 683.602 607.995 683.603 607.272L683.61 599.979C683.612 598.28 685.597 597.358 686.896 598.453L692.884 603.498C694.46 604.826 696.771 603.188 696.04 601.261L694.06 596.042C693.973 595.814 693.929 595.574 693.93 595.331L693.936 589.44C693.937 588.488 694.61 587.668 695.544 587.482L705.462 585.507C705.861 585.427 706.226 585.228 706.509 584.936L722.491 568.399C722.868 568.008 723.388 567.788 723.93 567.789L735.038 567.8C736.142 567.801 737.037 566.908 737.038 565.804L737.048 555.935C737.049 555.048 736.466 554.268 735.616 554.016L730.146 552.4C728.651 551.958 728.215 550.052 729.368 549.004L732.846 545.845C733.215 545.511 733.694 545.326 734.192 545.326L740.093 545.332L754.655 545.347M294.448 239.368L307.341 246.425C307.635 246.586 307.964 246.67 308.299 246.671L320.058 246.683C320.368 246.683 320.675 246.611 320.953 246.472L328.606 242.651C328.884 242.512 329.19 242.44 329.501 242.44L333.232 242.444C333.655 242.445 334.067 242.311 334.409 242.063L339.578 238.307C340.182 237.868 340.981 237.803 341.649 238.138L345.655 240.148C346.261 240.452 346.671 241.042 346.745 241.716L347.115 245.078C347.185 245.721 347.563 246.29 348.128 246.605L351.911 248.714C352.389 248.98 352.685 249.484 352.684 250.031C352.683 251.076 353.721 251.805 354.704 251.448L371.456 245.369C372.216 245.094 373.067 245.303 373.613 245.9L378.855 251.636C379.192 252.005 379.378 252.486 379.378 252.986L379.369 261.883C379.368 262.652 379.809 263.354 380.502 263.687L399.987 273.039M294.448 239.368L282.599 235.966C282.035 235.804 281.428 235.898 280.94 236.224L272.667 241.733C271.666 242.399 270.307 242.037 269.771 240.96L263.515 228.404M263.515 228.404L271.053 228.411C272.884 228.413 273.753 226.157 272.394 224.93L264.793 218.068C264.373 217.688 264.133 217.148 264.134 216.582L264.17 180.285C264.171 179.975 264.099 179.67 263.961 179.392L248.638 148.636C248.5 148.359 248.428 148.053 248.428 147.743L248.438 138.213C248.438 137.998 248.473 137.785 248.541 137.582L250.082 132.967C250.488 131.754 251.913 131.229 253.008 131.889L265.375 139.333C265.798 139.588 266.3 139.677 266.785 139.583L285.983 135.866C287.04 135.662 288.07 136.332 288.311 137.381L289.454 142.365C289.602 143.011 289.421 143.688 288.97 144.173L282.786 150.826C282.195 151.461 282.083 152.406 282.507 153.163L291.158 168.595C291.874 169.872 293.675 169.971 294.526 168.78L297.942 164.003C298.439 163.309 299.322 163.007 300.14 163.251L343.018 176.059C343.433 176.183 343.878 176.169 344.284 176.018L378.211 163.443C380.188 162.71 379.83 159.812 377.734 159.583L366.162 158.319C364.896 158.18 364.08 156.907 364.484 155.699L369.504 140.676C369.683 140.14 370.08 139.705 370.597 139.478L438.984 109.535M399.987 273.039L398.387 265.926C398.253 265.331 398.398 264.706 398.782 264.232L410.185 250.129C410.645 249.559 410.757 248.783 410.476 248.106L402.661 229.276C402.222 228.218 402.76 227.008 403.84 226.626L419.636 221.033C420.28 220.805 420.995 220.921 421.533 221.341L425.295 224.277C425.815 224.682 426.501 224.805 427.129 224.606L438.535 220.986C439.129 220.797 439.601 220.342 439.811 219.755L442.52 212.186M438.984 109.535L447.732 100.214C447.97 99.96 448.27 99.7728 448.603 99.6708L452.667 98.4234C454.14 97.9714 454.569 96.0935 453.438 95.0469L449.906 91.7759C448.976 90.9154 449.072 89.4186 450.103 88.683L451.465 87.7109C452.02 87.3152 452.334 86.6643 452.3 85.984L450.048 41.1331C450.005 40.2756 450.515 39.4865 451.314 39.1728L502.295 19.1627C503.259 18.7844 504.352 19.205 504.814 20.1317L511.549 33.6517C511.756 34.067 511.812 34.5415 511.708 34.9936L510.308 41.0343C510.144 41.7458 510.38 42.4906 510.925 42.9766L525.229 55.7302C525.92 56.3467 526.945 56.4072 527.704 55.8764L537.467 49.0497C538.125 48.5898 538.994 48.568 539.674 48.9944L542.855 50.9892C543.211 51.2126 543.488 51.5427 543.645 51.9325L550.871 69.7894C551.121 70.4067 551.662 70.859 552.313 70.9956L564.692 73.5903C565.395 73.7376 565.965 74.2511 566.185 74.935L570.469 88.2766C571.004 89.9414 573.268 90.1651 574.118 88.637L574.345 88.2282C574.698 87.5938 575.367 87.2007 576.093 87.2014L580.023 87.2054C580.631 87.206 581.205 86.9304 581.585 86.4563L582.814 84.9221C583.193 84.448 583.768 84.1723 584.375 84.1729L589.001 84.1776C589.679 84.1783 590.311 84.5229 590.678 85.0928L596.237 93.7113C596.558 94.2099 597.111 94.5113 597.704 94.5119C598.969 94.5132 599.814 95.8156 599.299 96.9711L596.011 104.357C595.713 105.026 595.805 105.804 596.251 106.386L600.883 112.427C601.319 112.994 601.417 113.752 601.142 114.412L599.411 118.559C598.95 119.662 599.554 120.92 600.703 121.249L602.792 121.849M438.984 109.535L457.636 121.232C458.115 121.532 458.444 122.02 458.542 122.576L461.222 137.686C461.336 138.329 461.129 138.987 460.667 139.449L456.908 143.204C456.323 143.788 456.158 144.671 456.493 145.427L458.188 149.255C458.301 149.51 458.359 149.786 458.359 150.066L458.347 161.79L458.341 167.042C458.341 167.184 458.356 167.326 458.387 167.466L460.982 179.476C461.198 180.474 460.627 181.473 459.659 181.795L458.629 182.137L455.898 183.046M602.792 121.849L602.774 139.243C602.774 139.773 602.563 140.281 602.188 140.655L593.53 149.305C593.222 149.613 593.023 150.012 592.963 150.442L590.241 169.918C590.103 170.906 589.257 171.641 588.26 171.64L583.65 171.635C583.435 171.635 583.222 171.669 583.018 171.737L570.408 175.93C569.462 176.245 568.893 177.208 569.073 178.188L571.574 191.781C571.699 192.465 571.461 193.164 570.945 193.629L566.622 197.515C566.059 198.021 565.831 198.803 566.032 199.533L568.382 208.034C568.591 208.791 568.338 209.6 567.735 210.102L557.795 218.377M602.792 121.849L614.321 121.861C614.716 121.861 615.102 121.745 615.431 121.526L627.367 113.577C627.572 113.441 627.75 113.268 627.892 113.067L631.908 107.383C632.972 105.878 635.333 106.493 635.527 108.326L638.385 135.284C638.493 136.3 639.349 137.071 640.37 137.072L646.847 137.078C647.378 137.079 647.886 137.29 648.26 137.666L650.269 139.681C650.554 139.967 650.918 140.159 651.314 140.234L659.614 141.8C660.126 141.897 660.58 142.19 660.879 142.617L671.328 157.512C671.701 158.045 672.311 158.363 672.961 158.363L680.434 158.371C680.82 158.371 681.197 158.26 681.521 158.051L690.074 152.523C690.826 152.037 691.81 152.11 692.481 152.703L705.045 163.793C705.856 164.509 707.089 164.449 707.827 163.659L713.643 157.434C714.395 156.629 715.658 156.585 716.465 157.336L722.268 162.742C722.976 163.401 724.054 163.459 724.828 162.879L726.639 161.522C727.564 160.829 728.883 161.063 729.513 162.032L745.932 187.291C746.301 187.858 746.93 188.2 747.606 188.201L749.638 188.203C750.34 188.203 750.991 187.835 751.353 187.233L753.833 183.104C754.195 182.502 754.846 182.134 755.548 182.135L758.442 182.138C758.972 182.138 759.481 182.35 759.855 182.725L764.941 187.826C765.196 188.083 765.517 188.265 765.869 188.354L776.444 191.011C777.082 191.172 777.758 191.008 778.252 190.573L786.175 183.589C787.046 182.821 788.385 182.955 789.087 183.879L796.801 194.035C797.224 194.592 797.907 194.887 798.603 194.813L814.009 193.177C814.314 193.144 814.623 193.183 814.91 193.289L830.754 199.122C831.805 199.509 832.333 200.684 831.924 201.726L801.209 280.135C801.095 280.425 801.051 280.738 801.08 281.049L803.96 311.943C804.009 312.473 803.845 313 803.504 313.409L801.774 315.483C801.298 316.054 801.178 316.842 801.463 317.529L803.576 322.619C803.853 323.289 803.747 324.056 803.298 324.624L795.387 334.635C795.082 335.021 794.645 335.281 794.16 335.365L783.297 337.245C782.074 337.456 780.956 336.514 780.958 335.274L780.961 332.183M455.898 183.046L463.557 189.63C464.073 190.074 464.78 190.225 465.432 190.029L475.931 186.888C476.317 186.773 476.729 186.777 477.113 186.9L504.829 195.785C504.964 195.829 505.102 195.857 505.243 195.871L529.395 198.255C529.73 198.288 530.068 198.236 530.377 198.103L536.519 195.475C537.552 195.034 538.746 195.53 539.162 196.573L543.048 206.328C543.177 206.652 543.389 206.936 543.662 207.153L557.795 218.377M455.898 183.046L447.073 195.387C446.883 195.653 446.632 195.867 446.34 196.013L440.916 198.721C440.086 199.135 439.651 200.066 439.864 200.969L442.52 212.186M557.795 218.377L555.525 236.409C555.419 237.249 555.854 238.065 556.611 238.444L557.826 239.054C559.014 239.65 559.3 241.219 558.397 242.196L553.602 247.386C553.168 247.856 552.985 248.505 553.109 249.132L555.326 260.284M780.961 332.183L770.028 321.217C769.654 320.842 769.445 320.334 769.445 319.804L769.456 309.158C769.457 308.377 769.003 307.667 768.293 307.341L741.258 294.904C740.685 294.64 740.021 294.662 739.467 294.964L734.117 297.878C733.823 298.038 733.494 298.122 733.159 298.122L726.104 298.115C725.673 298.114 725.254 297.974 724.909 297.716L715.855 290.945C715.25 290.493 714.442 290.42 713.766 290.758L706.602 294.334C706.448 294.411 706.304 294.508 706.175 294.621L691.866 307.201C691.435 307.58 691.187 308.126 691.187 308.7L691.181 314.785C691.18 315.681 690.583 316.467 689.72 316.708L676.443 320.415C676.155 320.495 675.89 320.639 675.665 320.835L667.968 327.563C667.072 328.346 665.695 328.178 665.014 327.202L662.644 323.806C662.271 323.271 661.66 322.952 661.008 322.951L656.083 322.946C655.624 322.946 655.181 322.788 654.825 322.499L643.683 313.451C643.054 312.94 642.796 312.1 643.029 311.324L645.523 303.034C645.908 301.753 644.95 300.462 643.611 300.46L639.352 300.456C638.755 300.455 638.189 300.187 637.81 299.726L631.226 291.706C630.513 290.838 629.224 290.728 628.374 291.464L621.249 297.632C620.966 297.878 620.619 298.038 620.249 298.096L591.025 302.655C590.31 302.766 589.59 302.482 589.144 301.912L583.201 294.325L572.496 281.2C572.362 281.036 572.202 280.894 572.023 280.779L566.548 277.283C565.972 276.916 565.624 276.28 565.625 275.597L565.631 269.74C565.631 269.143 565.365 268.577 564.905 268.197L555.326 260.284M780.961 332.183L767.673 333.832C766.896 333.929 766.247 334.471 766.013 335.218L763.9 341.96C763.591 342.948 764.087 344.009 765.044 344.405L770.922 346.834C772.232 347.376 772.577 349.072 771.582 350.083L738.402 383.792C738.035 384.165 737.829 384.668 737.828 385.192L737.813 399.89C737.813 400.453 737.575 400.989 737.159 401.367L718.309 418.487C717.962 418.802 717.737 419.229 717.673 419.694L715.938 432.335M555.326 260.284L533.711 263.108C532.85 263.221 532.161 263.876 532.004 264.731L529.826 276.657M442.52 212.186L449.415 220.255C449.662 220.544 449.821 220.897 449.874 221.273L452.125 237.159C452.176 237.517 452.322 237.854 452.549 238.135L469.937 259.647C470.225 260.003 470.382 260.447 470.381 260.905L470.375 267.062C470.373 268.449 471.751 269.415 473.055 268.942L483.394 265.19C483.613 265.111 483.844 265.07 484.078 265.07L493.759 265.08C494.324 265.081 494.862 265.32 495.241 265.74L501.404 272.572C501.736 272.939 501.919 273.417 501.918 273.912L501.914 278.555C501.912 279.778 503.001 280.716 504.211 280.532L529.826 276.657M715.938 432.335L721.478 435.115C722.445 435.6 722.85 436.767 722.392 437.747L719.068 444.858C718.995 445.014 718.903 445.16 718.793 445.292L712.577 452.743C711.492 454.044 712.416 456.019 714.11 456.021L722.333 456.029C722.883 456.03 723.409 455.804 723.787 455.404L732.048 446.666C732.844 445.824 732.759 444.483 731.864 443.748L729.144 441.516C728.048 440.617 728.211 438.894 729.456 438.216L733.082 436.241C733.376 436.081 733.705 435.997 734.04 435.998L739.243 436.003C739.85 436.004 740.425 435.728 740.804 435.254L744.463 430.685C744.843 430.211 745.417 429.936 746.025 429.936L759.949 429.95C760.515 429.951 761.055 430.192 761.434 430.614L765.457 435.098C765.969 435.668 766.109 436.481 765.818 437.19L761.297 448.221C761.005 448.934 761.149 449.751 761.666 450.321L777.78 468.102C778.472 468.866 778.47 470.031 777.774 470.792L766.768 482.835C766.432 483.202 766.245 483.682 766.245 484.181L766.24 488.879C766.239 489.622 766.651 490.304 767.309 490.65L777.904 496.219C778.562 496.565 778.973 497.247 778.972 497.99L778.968 502.72C778.967 503.199 779.139 503.662 779.451 504.026L789.582 515.792C790.123 516.421 790.22 517.319 789.824 518.048L782.83 530.942C782.665 531.246 782.425 531.502 782.132 531.685L772.992 537.39C772.907 537.443 772.819 537.49 772.727 537.529L754.655 545.347M847.356 673.598L848.889 659.917C849.039 658.573 850.454 657.763 851.689 658.314L853.466 659.107C854.187 659.429 854.651 660.145 854.65 660.934L854.635 675.271C854.635 675.376 854.627 675.48 854.611 675.583L852.938 686.118C852.852 686.66 852.992 687.213 853.326 687.648L858.449 694.329C858.717 694.679 858.862 695.107 858.862 695.547L858.848 709.445L858.818 739.064C858.817 739.548 858.641 740.015 858.323 740.379L846.648 753.708C846.274 754.135 846.1 754.7 846.168 755.264L848.983 778.572C849.039 779.032 848.932 779.498 848.683 779.888L835.682 800.213C835.314 800.788 834.679 801.135 833.997 801.135L831.629 801.132C830.526 801.131 829.632 800.236 829.633 799.132L829.636 796.401C829.637 795.588 829.145 794.856 828.392 794.549L810.836 787.388C810.442 787.227 810.11 786.945 809.887 786.583L806.571 781.176C805.941 780.149 806.357 778.803 807.456 778.309L813.478 775.604C815.048 774.898 815.051 772.669 813.481 771.96L805.395 768.307L802.181 766.373C800.89 765.595 800.891 763.722 802.185 762.947L807.71 759.636C808.175 759.357 808.507 758.901 808.629 758.373L809.592 754.216C809.913 752.83 808.722 751.561 807.318 751.794L799.801 753.04C799.5 753.09 799.19 753.071 798.898 752.982L796.573 752.281C795.104 751.839 794.661 749.975 795.774 748.919L803.41 741.672C804.4 740.732 804.177 739.098 802.972 738.458L796.005 734.756C795.445 734.459 795.06 733.913 794.966 733.286L793.539 723.698C793.403 722.781 793.915 721.891 794.775 721.548L798.674 719.991C800.208 719.379 800.379 717.275 798.964 716.423L795.776 714.504C794.583 713.786 794.471 712.1 795.559 711.231L801.675 706.343C802.149 705.964 802.425 705.391 802.425 704.784L802.436 694.223C802.437 693.467 802.865 692.776 803.542 692.438L831.895 678.282C832.458 678.001 833.121 678.001 833.684 678.284L844.453 683.688C845.781 684.354 847.346 683.39 847.348 681.904L847.356 673.598Z" stroke="white" stroke-linejoin="round"/>
</g>
</g>
<path d="M834.578 180.026C829.908 183.18 829.234 189.283 828.696 191.22C826.415 199.438 824.275 208.66 820.439 216.311C817.332 222.511 814.419 229.728 810.636 235.598C807.283 240.804 808.709 247.442 806.435 253.272C805.211 256.41 805.27 259.546 804.57 262.75C803.746 266.524 800.884 268.796 798.657 271.819C793.934 278.229 793.494 286.462 794.822 294.215C795.719 299.447 794.457 304.964 795.852 310.41C797.213 315.725 804.514 323.256 809.669 324.694C813.393 325.732 820.001 330.468 823.024 329.262" stroke="#49A6FD" stroke-width="1.99822" stroke-linecap="round"/>
<path d="M365.849 155.192C377.341 153.246 385.734 152.527 393.117 155.22C397.814 156.933 402.004 159.163 405.795 162.419C409.002 165.174 408.681 168.192 413.682 169.107C419.287 170.132 424.672 177.06 424.667 181.904C424.662 186.879 425.684 187.813 430.394 189.939C432.169 190.739 438.315 193.01 437.541 195.411C433.42 208.186 451.26 197.287 456.499 196.544C462.74 195.658 471.472 202.142 472.849 208.368C473.659 212.032 474.667 217.337 476.817 220.449C478.744 223.237 483.005 222.951 484.672 226.293C486.324 229.605 489.393 230.754 491.952 233.318C494.658 236.03 496.533 239.49 498.993 242.366C500.292 243.885 506.605 244.136 508.673 244.67C513.952 246.033 517.425 245.202 522.371 244.077C530.017 242.337 539.413 242.601 546.732 239.716C551.948 237.66 565.455 234.338 570.01 240.043C573.724 244.696 573.623 252.007 580.622 254.594C588.504 257.507 592.734 262.841 596.429 269.859C599.477 275.649 609.377 285.062 605.177 292.133C603.276 295.334 604.554 299.005 607.124 301.581C608.624 303.084 610.938 303.512 612.316 304.893C613.843 306.422 613.684 308.471 614.875 309.888C618.641 314.369 610.134 326.009 619.11 326.018" stroke="#49A6FD" stroke-width="1.99822" stroke-linecap="round"/>
<path d="M232.276 343.236C238.165 345.861 245.293 341.121 251.977 344.167C254.66 345.39 258.332 343.829 259.739 341.442C261.096 339.141 271.039 334.167 273.882 334.17C278.125 334.174 284.036 333.018 288.153 333.611C290.77 333.987 293.432 334.934 296.046 334.799C298.428 334.677 300.558 331.383 302.73 330.421C308.926 327.674 308.463 327.489 314.874 330.703C319.592 333.067 326.035 335.349 329.17 339.387C332.707 343.945 341.347 341.761 345.833 341.53C351.333 341.246 355.55 336.074 360.716 336.08C366.474 336.085 372.341 334.877 378.294 334.883C383.343 334.888 388.431 338.222 393.34 334.898C399.617 330.648 409.327 326.162 413.394 319.737C415.784 315.963 418.695 313.91 422.376 311.549C425.7 309.417 429.557 309.327 432.704 307.308C438.481 303.603 438.922 296.089 445.774 293.051C451.636 290.453 456.086 294.276 462.472 294.283C469.593 294.29 473.307 290.551 479.81 297.067C483.135 300.399 485.153 303.013 489.923 304.499C492.242 305.221 495.584 308.037 497.678 308.285C506.934 309.384 501.278 320.248 502.654 325.428C503.577 328.905 506.21 331.441 506.726 335.081C507.316 339.242 507.92 343.436 508.535 347.464C509.342 352.743 511.278 361.733 516.75 364.171C521.765 366.406 527.456 367.592 532.229 370.124C537.317 372.825 545.091 376.192 549.221 380.33C553.56 384.677 555.096 393.418 557.13 398.859C558.349 402.12 563.545 405.764 565.723 408.82C567.785 411.713 571.438 414.707 573.001 417.666C575.474 422.349 571.919 426.299 574.371 430.723C576.446 434.468 583.775 438.08 583.771 442.27C583.766 446.96 582.791 452.811 581.462 457.28C579.118 465.163 584.74 471.249 587.851 477.798C589.071 480.368 587.37 486.389 587.367 489.336C587.363 493.354 589.789 495.963 589.785 499.931C589.777 507.46 589.492 511.583 585.82 518.178C584.965 519.712 585.526 522.502 583.689 523.472C581.317 524.725 578.625 524.498 578.826 528.191C578.982 531.055 577.39 532.872 577.03 536.083C576.643 539.531 577.597 542.87 577.593 546.137C577.591 548.657 575.783 552.078 576.505 554.435C576.941 555.856 581.517 560.69 581.222 560.984" stroke="#49A6FD" stroke-width="1.99822" stroke-linecap="round"/>
<path d="M816.986 410.626C815.565 412.221 812.184 412.63 809.899 412.913C804.104 413.632 799.413 415.491 794.274 417.856C788.512 420.509 785.592 426.357 780.532 429.279C775.578 432.14 770.041 433.654 764.436 433.648C760.153 433.644 757.098 427.67 753.479 426.35C751.28 425.548 746.292 423.099 745.388 420.607C744.43 417.963 744.594 416.395 741.683 414.936C736.875 412.525 732.867 411.744 727.583 413.437C720.14 415.821 719.725 421.559 713.739 425.399C709.893 427.866 705.243 429.715 702.463 433.282C696.617 440.783 687.549 450.693 690.493 461.034C691.87 465.874 690.402 472.336 689.363 476.99C688 483.095 684.467 482.993 679.976 485.482C676.185 487.583 667.286 477.107 664.974 474.705C664.173 473.872 653.824 460.963 652.971 468.148C651.328 481.997 632.977 464.108 630.527 477.504C629.647 482.317 627.452 489.66 629.734 494.236C631.905 498.588 632.111 498.454 629.557 503.041C627.105 507.443 625.601 511.169 625.596 516.565C625.589 523.034 627.908 527.643 628.615 533.706C628.832 535.568 631.448 536.954 632.118 538.703C633.169 541.442 632.757 543.646 632.279 546.26C631.244 551.922 624.342 555.548 624.336 561.298C624.33 567.232 625.977 571.619 626.141 577.425C626.342 584.478 624.718 587.116 622.346 593.682C621.489 596.056 619.877 598.636 618.224 600.493C616.191 602.775 618.827 604.782 618.825 606.869C618.823 608.579 620.458 609.946 621.114 611.426C622.052 613.542 620.661 616.218 621.276 618.376C621.701 619.871 624.459 620.398 625.152 621.787C625.933 623.353 622.801 626.442 623.796 627.689C625.958 630.397 635.032 631.695 626.689 635.856C622.242 638.075 619.681 641.897 616.694 645.731C612.825 650.694 613.882 656.446 615.733 661.552C617.242 665.715 627.352 671.123 626.043 673.977C624.768 676.761 628.602 692.123 629.669 691.591" stroke="#49A6FD" stroke-width="1.99822" stroke-linecap="round"/>
<path d="M519.976 475.908C524.454 475.415 514.171 483.666 513.591 484.706C512.146 487.302 511.826 488.736 512.944 491.352C514.013 493.855 505.97 493.989 505.114 494.144C498.676 495.308 498.345 501.602 496.127 506.853C495.551 508.217 496.071 513.401 493.827 513.531C490.605 513.717 488.801 517.869 486.399 519.595C483.497 521.68 483.938 526.951 481.937 528.092C478.796 529.883 473.893 530.463 470.464 531.083C461.576 532.69 458.328 541.936 456.141 549.016C453.95 556.112 443.399 555.206 437.917 556.453C434.439 557.244 430.414 556.438 426.851 556.577C424.024 556.687 422.328 561.284 419.694 561.428C412.852 561.801 407.157 558.986 400.231 558.979C393.878 558.973 387.689 560.433 381.439 559.533C377.552 558.974 375.782 557.526 371.725 557.736C368.653 557.894 366.677 557.281 363.832 557.12C358.219 556.803 352.307 563.333 346.825 560.747C343.867 559.351 341.729 558.484 339.239 556.488C337.607 555.18 333.032 555.482 330.773 554.658C325.622 552.779 320.375 543.144 316.17 550.696C313.834 554.889 317.437 563.724 317.67 568.004C317.956 573.239 326.357 576.514 330.414 576.518C337.424 576.525 339.656 575.92 342.256 575.923C348.918 575.93 345.677 584.266 350.139 586.254C351.674 586.938 356.255 586.482 356.513 588.69C356.814 591.269 355.94 594.853 356.977 597.192C359.984 603.977 358.676 606.943 367.085 608.874C372.631 610.148 379.361 610.369 383.509 614.525C386.437 617.459 395.376 618.13 396.591 622.399C398.141 627.847 404.085 631.403 409.91 628.957C417.127 625.927 412.059 639.3 413.068 641.577C416.562 649.46 427.847 663.915 418.335 671.034C412.961 675.056 410.975 682.451 408.028 688.33C404.645 695.077 396.289 697.54 393.303 703.497C391.849 706.398 388.674 703.287 386.182 706.188C384.149 708.555 377.499 707.003 374.609 708.032C371.741 709.053 368.721 707.806 370.354 712.312C371.415 715.24 373.338 717.395 375.508 719.57C379.922 723.993 385.453 725.861 383.556 734.119C382.536 738.562 385.999 741.295 389.011 744.313C391.107 746.413 391.41 747.893 394.877 748.299C398.481 748.722 402.86 748.412 403.712 752.694" stroke="#49A6FD" stroke-width="1.99822" stroke-linecap="round"/>
<path d="M283.165 461.701C283.976 459.969 282.546 462.837 283.5 463.793C285.538 465.835 288.506 467.774 290.984 469.198C294.805 471.394 301.668 470.198 304.273 472.518C309.423 477.105 305.586 487.527 312.589 489.091C320.583 490.876 324.562 485.506 331.106 492.449C334.966 496.544 344.283 494.391 348.414 491.185C353.077 487.566 362.084 484.31 362.091 477.266C362.093 475.19 361.77 470.505 359.974 469.066C359.462 468.655 358.538 466.131 358.46 465.421C358.256 463.567 354.99 463.157 355.563 461.302C356.873 457.058 371.044 455.718 375.169 455.722C378.786 455.725 376.89 461.33 378.838 463.282C383.495 467.948 385.869 467.878 393.07 467.885" stroke="#49A6FD" stroke-width="1.99822" stroke-linecap="round"/>
<path d="M628.918 102.09C627.346 106.443 624.87 110.204 623.575 114.398C620.859 123.192 629.132 131.085 624.291 140.207C621.531 145.407 642.872 151.338 645.395 154.498C648.354 158.204 647.633 163.212 644.775 166.879C642.44 169.875 647.98 177.14 649.147 180.782C652.515 191.297 663.574 192.374 663.562 204.311C663.558 208.098 663.554 212.225 663.55 215.849C663.546 219.639 671.824 222.62 674.471 225.272C682.438 233.255 675.612 249.748 677.506 260.225C678.21 264.124 677.136 272.424 676.207 276.586C675.735 278.699 673.018 280.291 672.626 282.048C672.05 284.626 672.017 287.406 670.155 289.636" stroke="#49A6FD" stroke-width="1.99822" stroke-linecap="round"/>
<path d="M449.621 553.511C446.535 520.989 383.5 461.5 421 436.5C452 407 533.867 460.947 545 474C559.5 491 569.5 507.5 564.88 542C561.489 567.314 590.899 657.251 556 659.5C521.463 661.726 453.479 594.164 449.621 553.511Z" fill="#2672B0" fill-opacity="0.2" stroke="#2672B0" stroke-width="2" stroke-linecap="round" stroke-dasharray="4 4"/>
<path d="M348.437 743.406C349.782 714.131 390.38 749.872 408.88 739.499C432.958 725.999 471.605 758.24 482.38 747.499C504.988 724.96 538.567 753.313 539.923 776.586C540.807 791.757 506.73 799.953 475.88 790.999C469.398 789.118 464.485 784.933 459.686 780.312L432.958 762.673C375.821 751.673 346.757 779.999 348.437 743.406Z" fill="#2672B0" fill-opacity="0.2"/>
<path d="M432.958 762.673C375.821 751.673 346.757 779.999 348.437 743.406C349.782 714.131 390.38 749.872 408.88 739.499C432.958 725.999 471.605 758.24 482.38 747.499C504.988 724.96 538.567 753.313 539.923 776.586C540.807 791.757 506.73 799.953 475.88 790.999M432.958 762.673C453.06 766.543 459.402 786.217 475.88 790.999M432.958 762.673L475.88 790.999" stroke="#2672B0" stroke-width="2" stroke-linecap="round" stroke-dasharray="4 4"/>
<path d="M697.88 632.999C707.88 613.5 704.194 583.442 711.765 581.159L711.832 581.139C719.536 578.817 753.439 568.596 773.88 601.5C789.95 627.368 843.522 607.751 847.38 632.999C850.741 654.999 794.38 642.499 796.88 665.999C798.528 681.499 757.683 680.593 735.88 681.999C712.517 683.504 629.879 714.5 644.88 661C649.421 644.802 691.85 644.755 697.88 632.999Z" fill="#2672B0" fill-opacity="0.2" stroke="#2672B0" stroke-width="2" stroke-linecap="round" stroke-dasharray="4 4"/>
<path d="M647.58 425.802C650.88 403.437 666.88 405.938 681.88 412.937C691.88 417.602 689.062 433.157 693.88 438.937C698.697 444.717 709.38 465.937 688.308 484.487C682.301 489.775 669.915 509.828 647.58 507.16C625.246 504.493 642.325 485.376 647.58 476.485C652.835 467.593 645.505 439.87 647.58 425.802Z" fill="#2672B0" fill-opacity="0.2" stroke="#2672B0" stroke-width="2" stroke-dasharray="4 4"/>
<path d="M731.582 484.918C735.182 483.318 756.749 463.252 767.082 453.418C776.648 444.418 784.809 462.465 778.082 475.918C771.582 488.918 785.082 503.641 781.082 521.418C777.082 539.196 783.582 552.418 736.582 558.418C689.582 564.418 691.082 541.918 687.582 529.418C684.082 516.918 727.082 486.918 731.582 484.918Z" fill="#2672B0" fill-opacity="0.2" stroke="#2672B0" stroke-width="2" stroke-dasharray="4 4"/>
<path d="M807.496 279.5C803.017 295.986 816.96 324.364 809.991 329.545C803.278 335.097 788.932 345.139 785.26 340.89C780.67 335.578 779.237 347.382 789.546 306.829C799.855 266.276 762.645 233.655 815.997 196.5C844.056 176.959 845.386 202.792 831.996 218C808.505 244.681 813.096 258.893 807.496 279.5Z" fill="#2672B0" fill-opacity="0.2" stroke="#2672B0" stroke-width="2" stroke-linecap="round" stroke-dasharray="4 4"/>
</g>
<defs>
<filter id="filter0_d_1_845" x="-24.0028" y="-43.4615" width="983.005" height="914.137" filterUnits="userSpaceOnUse" color-interpolation-filters="sRGB">
<feFlood flood-opacity="0" result="BackgroundImageFix"/>
<feColorMatrix in="SourceAlpha" type="matrix" values="0 0 0 0 0 0 0 0 0 0 0 0 0 0 0 0 0 0 127 0" result="hardAlpha"/>
<feOffset dy="3.99645"/>
<feGaussianBlur stdDeviation="11.9894"/>
<feComposite in2="hardAlpha" operator="out"/>
<feColorMatrix type="matrix" values="0 0 0 0 0.149618 0 0 0 0 0.16049 0 0 0 0 0.258333 0 0 0 0.06 0"/>
<feBlend mode="normal" in2="BackgroundImageFix" result="effect1_dropShadow_1_845"/>
<feBlend mode="normal" in="SourceGraphic" in2="effect1_dropShadow_1_845" result="shape"/>
</filter>
<clipPath id="clip0_1_845">
<rect width="935" height="820" fill="white"/>
</clipPath>
</defs>
</svg>
