<svg width="27" height="30" viewBox="0 0 27 30" fill="none" xmlns="http://www.w3.org/2000/svg">
<path d="M13.0625 30H21.25C22.625 30 23.8021 29.5104 24.7812 28.5312C25.7604 27.5521 26.25 26.375 26.25 25V7.6875C26.25 6.8125 25.9479 6.07292 25.3438 5.46875C24.7396 4.86458 24 4.5625 23.125 4.5625H22.8125C22.7083 4.5625 22.6042 4.58333 22.5 4.625V4.25C22.5 3.39583 22.1979 2.66125 21.5938 2.04625C20.9896 1.43208 20.25 1.125 19.375 1.125C19.1458 1.125 18.9375 1.14042 18.75 1.17125C18.5625 1.20292 18.375 1.27083 18.1875 1.375C17.8958 0.958333 17.5312 0.625 17.0938 0.375C16.6562 0.125 16.1667 0 15.625 0C14.8958 0 14.1925 0.229167 13.515 0.6875C12.8383 1.14583 12.5 1.89583 12.5 2.9375C12.3958 2.89583 12.2917 2.875 12.1875 2.875H11.875C11 2.875 10.2604 3.17708 9.65625 3.78125C9.05208 4.38542 8.75 5.125 8.75 6V18L5.4375 16.3125C4.95833 16.0833 4.46375 16 3.95375 16.0625C3.44292 16.125 2.97917 16.3333 2.5625 16.6875L0 18.9375L9.125 28.4375C9.60417 28.9375 10.2083 29.3229 10.9375 29.5938C11.6667 29.8646 12.375 30 13.0625 30ZM13.0625 27.5C12.7083 27.5 12.3229 27.4321 11.9062 27.2962C11.4896 27.1612 11.1667 26.9792 10.9375 26.75L3.625 19.125L4.25 18.5L11.25 22.0625V6C11.25 5.8125 11.3071 5.66125 11.4213 5.54625C11.5363 5.43208 11.6875 5.375 11.875 5.375C12.0625 5.375 12.2137 5.43208 12.3287 5.54625C12.4429 5.66125 12.5 5.8125 12.5 6V15H15V3.125C15 2.9375 15.0571 2.78625 15.1713 2.67125C15.2863 2.55708 15.4375 2.5 15.625 2.5C15.8125 2.5 15.9637 2.55708 16.0788 2.67125C16.1929 2.78625 16.25 2.9375 16.25 3.125V15H18.75V4.25C18.75 4.08333 18.8075 3.9375 18.9225 3.8125C19.0367 3.6875 19.1875 3.625 19.375 3.625C19.5625 3.625 19.7138 3.6875 19.8288 3.8125C19.9429 3.9375 20 4.08333 20 4.25V15H22.5V7.6875C22.5 7.5 22.5575 7.34875 22.6725 7.23375C22.7867 7.11958 22.9375 7.0625 23.125 7.0625C23.3125 7.0625 23.4638 7.11958 23.5788 7.23375C23.6929 7.34875 23.75 7.5 23.75 7.6875V25C23.75 25.6875 23.5054 26.2763 23.0163 26.7663C22.5263 27.2554 21.9375 27.5 21.25 27.5H13.0625Z" fill="#FF0000"/>
</svg>
