<svg width="28" height="36" viewBox="0 0 28 36" fill="none" xmlns="http://www.w3.org/2000/svg">
<path d="M14 18C14.9625 18 15.7867 17.657 16.4727 16.971C17.1576 16.2862 17.5 15.4625 17.5 14.5C17.5 13.5375 17.1576 12.7133 16.4727 12.0273C15.7867 11.3424 14.9625 11 14 11C13.0375 11 12.2138 11.3424 11.529 12.0273C10.843 12.7133 10.5 13.5375 10.5 14.5C10.5 15.4625 10.843 16.2862 11.529 16.971C12.2138 17.657 13.0375 18 14 18ZM14 30.8625C17.5583 27.5958 20.1979 24.6278 21.9187 21.9585C23.6396 19.2903 24.5 16.9208 24.5 14.85C24.5 11.6708 23.4862 9.06742 21.4585 7.03975C19.432 5.01325 16.9458 4 14 4C11.0542 4 8.56742 5.01325 6.53975 7.03975C4.51325 9.06742 3.5 11.6708 3.5 14.85C3.5 16.9208 4.36042 19.2903 6.08125 21.9585C7.80208 24.6278 10.4417 27.5958 14 30.8625ZM14 35.5C9.30417 31.5042 5.79717 27.7924 3.479 24.3647C1.15967 20.9383 0 17.7667 0 14.85C0 10.475 1.40758 6.98958 4.22275 4.39375C7.03675 1.79792 10.2958 0.5 14 0.5C17.7042 0.5 20.9633 1.79792 23.7773 4.39375C26.5924 6.98958 28 10.475 28 14.85C28 17.7667 26.8409 20.9383 24.5228 24.3647C22.2034 27.7924 18.6958 31.5042 14 35.5Z" fill="#19252B"/>
<path d="M21.9187 21.9585C20.1979 24.6278 17.5583 27.5958 14 30.8625C10.4417 27.5958 7.80208 24.6278 6.08125 21.9585C4.36042 19.2903 3.5 16.9208 3.5 14.85C3.5 11.6708 4.51325 9.06742 6.53975 7.03975C8.56742 5.01325 11.0542 4 14 4C16.9458 4 19.432 5.01325 21.4585 7.03975C23.4862 9.06742 24.5 11.6708 24.5 14.85C24.5 16.9208 23.6396 19.2903 21.9187 21.9585Z" fill="white"/>
<path d="M16.4727 16.971C15.7867 17.657 14.9625 18 14 18C13.0375 18 12.2138 17.657 11.529 16.971C10.843 16.2862 10.5 15.4625 10.5 14.5C10.5 13.5375 10.843 12.7133 11.529 12.0273C12.2138 11.3424 13.0375 11 14 11C14.9625 11 15.7867 11.3424 16.4727 12.0273C17.1576 12.7133 17.5 13.5375 17.5 14.5C17.5 15.4625 17.1576 16.2862 16.4727 16.971Z" fill="#19252B"/>
</svg>
