<svg width="365" height="367" viewBox="0 0 365 367" fill="none" xmlns="http://www.w3.org/2000/svg">
<path d="M108.828 335.895L102.176 337.881C101.756 338.006 101.306 337.82 101.097 337.436L97.4798 330.781C97.3534 330.548 97.1333 330.381 96.8754 330.321L82.5774 327.01C82.2466 326.933 81.9901 326.679 81.8635 326.364C81.3409 325.064 80.0954 323.496 78.0989 324.869C75.2539 326.826 75.2835 323.429 78.1236 322.038C80.9637 320.648 75.092 312.953 70.8281 315.463C67.6596 317.329 66.7325 313.987 66.6325 311.687C66.6188 311.371 66.7859 311.079 67.0542 310.911L75.7018 305.508C75.8981 305.385 76.0413 305.193 76.1033 304.97L86.485 267.591C86.5067 267.513 86.518 267.433 86.5187 267.352L86.6016 257.849C87.9224 246.914 91.0174 224.935 92.8311 224.498C95.0983 223.951 95.0786 226.216 98.1496 230.772C101.221 235.329 102.33 237.886 102.317 239.302C102.305 240.717 103.099 246.952 105.366 246.406C107.633 245.859 103.781 233.653 102.391 230.809C101.002 227.966 91.4617 219.39 89.2118 217.955C86.9619 216.52 89.5192 215.127 91.2332 213.16C92.5252 211.677 94.2767 207.401 95.1214 205.102C95.2145 204.848 95.189 204.567 95.055 204.333L91.5843 198.255C91.4464 198.014 91.4243 197.723 91.5241 197.464L93.1026 193.359L91.3228 194.231C91.0192 194.38 90.6587 194.351 90.3824 194.156L75.5476 183.704C75.4317 183.622 75.3361 183.515 75.2682 183.39L67.5619 169.27C67.3999 168.973 67.4127 168.611 67.5952 168.327L71.6976 161.929C71.9639 161.513 71.8577 160.962 71.4562 160.675L69.4181 159.221C69.3811 159.194 69.3422 159.171 69.3018 159.15L66.4866 157.71C65.9473 157.434 65.8139 156.723 66.2165 156.27L67.1891 155.177C67.338 155.01 67.4212 154.794 67.4231 154.57L67.4441 152.163C67.4486 151.652 67.8666 151.241 68.3779 151.246L72.9131 151.285C73.0413 151.286 73.1677 151.315 73.2834 151.371C74.152 151.786 74.9579 150.701 74.3094 149.989L73.9627 149.609C73.7892 149.418 73.5442 149.309 73.2866 149.307L67.2876 149.254C67.0419 149.252 66.8055 149.348 66.6304 149.52L64.2317 151.88C63.9526 152.154 63.5309 152.224 63.1786 152.053L58.8509 149.954C58.5782 149.822 58.3875 149.565 58.3403 149.265L57.9537 146.812C57.9072 146.516 58.006 146.217 58.219 146.008L61.0174 143.255L60.4065 140.715C60.2904 140.232 59.8138 139.927 59.3266 140.023L52.3381 141.407C52.11 141.452 51.8731 141.41 51.6748 141.288L50.6616 140.668C50.0278 140.28 50.0868 139.34 50.7642 139.035L52.0182 138.468C52.4839 138.258 52.6911 137.71 52.4813 137.244L51.7425 135.605C51.4778 135.017 50.7087 134.873 50.2493 135.325L47.9556 137.581C47.6757 137.857 47.2525 137.926 46.8997 137.753L22.5533 125.847C22.2954 125.721 22.1107 125.482 22.0531 125.201L21.481 122.41C21.3933 121.982 21.0187 121.674 20.5821 121.67L16.9071 121.638C16.6615 121.636 16.425 121.731 16.2499 121.904L13.6593 124.452C13.4841 124.624 13.2477 124.72 13.002 124.718L9.81995 124.69C9.41729 124.687 9.06309 124.423 8.94383 124.039L7.01906 117.831C6.9696 117.672 6.87792 117.529 6.75373 117.417L3.56092 114.547C2.99163 114.035 3.2541 113.093 4.00597 112.949L11.5903 111.499C12.3565 111.353 12.6091 110.382 12.0115 109.881L9.17018 107.497C8.90135 107.271 8.52807 107.217 8.2062 107.357L7.01919 107.873C6.5528 108.075 6.01026 107.864 5.80406 107.399L4.87107 105.296C4.81754 105.175 4.79044 105.044 4.79159 104.912L4.80131 103.797C4.80345 103.552 4.90289 103.317 5.0778 103.145L5.25519 102.971C5.72232 102.511 6.50592 102.669 6.75856 103.274L6.8265 103.437C6.96932 103.778 7.30216 104.002 7.67259 104.005L11.3403 104.037C11.7886 104.041 12.1551 103.681 12.159 103.233C12.1622 102.874 11.9299 102.556 11.5876 102.45L10.0016 101.959C9.61123 101.838 9.34635 101.475 9.34992 101.067L9.35695 100.26C9.36181 99.702 8.87502 99.2665 8.32067 99.3332L1.91108 100.104C1.27082 100.181 0.749945 99.5966 0.90028 98.9694L2.24933 93.342C2.31369 93.0735 2.4945 92.8478 2.74244 92.7264L12.3868 88.0038C12.8157 87.7938 13.334 87.9445 13.5834 88.3519L14.1356 89.2538C14.3686 89.6343 14.8398 89.7944 15.2564 89.6348L21.7751 87.1366C22.1866 86.9789 22.6522 87.1331 22.8882 87.5053L24.9065 90.6882C25.232 91.2016 25.9556 91.2672 26.3682 90.8208L27.9429 89.1169C28.2183 88.8189 28.6557 88.735 29.0219 88.9099L32.445 90.5456C32.5672 90.6039 32.7007 90.6348 32.836 90.636L33.6842 90.6434C34.1955 90.6478 34.6135 90.237 34.618 89.7258L34.6251 88.9122C34.6265 88.7533 34.6687 88.5975 34.7477 88.4597L36.8167 84.8517C37.044 84.4554 37.5264 84.2841 37.9526 84.4484L39.1155 84.8966C39.3406 84.9833 39.5906 84.9788 39.8124 84.8839L43.4267 83.3384C43.7774 83.1885 44.1841 83.2689 44.4513 83.5411L44.7015 83.7959C44.9611 84.0604 45.3534 84.1445 45.6987 84.0097L46.6929 83.6216C47.3032 83.3834 47.961 83.837 47.9552 84.4921L47.9487 85.2429C47.9463 85.515 48.0638 85.7744 48.2699 85.9521L51.4427 88.6874C51.5424 88.7734 51.6226 88.8796 51.678 88.999L56.3756 99.1262C56.627 99.6681 57.3182 99.8336 57.7877 99.4642L66.096 92.9287C66.502 92.6093 67.0909 92.684 67.4043 93.0947L70.474 97.1176C70.6474 97.3448 70.9161 97.4792 71.2019 97.4817L72.6509 97.4943C73.1622 97.4988 73.5803 97.0879 73.5847 96.5767L73.5954 95.3551C73.5989 94.9488 73.8669 94.5923 74.2563 94.4761L79.7719 92.8297C80.3688 92.6516 80.9678 93.1019 80.9624 93.7249L80.9376 96.5637C80.9329 97.1041 81.3901 97.5336 81.9292 97.4951L88.0033 97.062L91.5312 97.0927C92.3794 97.1001 92.7901 96.0579 92.1649 95.4847L88.6342 92.2475C88.4409 92.0702 88.3318 91.8193 88.3341 91.5571L88.4816 74.6367C88.4828 74.4931 88.4507 74.3512 88.3876 74.2222L81.3554 59.8305C81.2924 59.7015 81.2602 59.5596 81.2615 59.416L81.3002 54.9721C81.3011 54.8727 81.318 54.7741 81.3502 54.68L82.0878 52.5275C82.2799 51.967 82.9418 51.7288 83.4471 52.0383L89.1916 55.5571C89.3867 55.6766 89.6192 55.7196 89.8441 55.6779L98.8125 54.0132C99.3031 53.9222 99.7775 54.2362 99.8853 54.7233L100.402 57.0585C100.469 57.358 100.382 57.6709 100.172 57.894L97.2608 60.9776C96.9848 61.2701 96.9291 61.7072 97.123 62.0595L101.106 69.2943C101.433 69.8885 102.267 69.9408 102.666 69.3921L104.282 67.1675C104.515 66.8476 104.925 66.7107 105.303 66.8268L125.246 72.952C125.438 73.011 125.644 73.0059 125.833 72.9375L141.715 67.1896C142.633 66.8572 142.477 65.5132 141.507 65.3997L136.088 64.7654C135.502 64.6968 135.129 64.1043 135.32 63.5458L137.717 56.5531C137.801 56.3055 137.987 56.1055 138.228 56.0024L170.21 42.2915L174.322 37.9773C174.433 37.8607 174.572 37.775 174.727 37.7289L176.636 37.159C177.32 36.9548 177.526 36.0864 177.006 35.5975L175.359 34.049C174.932 33.647 174.981 32.9539 175.461 32.6169L176.108 32.1629C176.366 31.9816 176.514 31.6812 176.501 31.3659L175.612 10.4473C175.595 10.0499 175.834 9.68618 176.205 9.54371L200.046 0.397476C200.494 0.225667 200.999 0.4244 201.21 0.855369L204.303 7.18713C204.398 7.38029 204.422 7.60029 204.372 7.80935L203.697 10.6249C203.618 10.9539 203.725 11.2998 203.976 11.5269L210.602 17.5274C210.92 17.8155 211.395 17.8472 211.748 17.604L216.33 14.4527C216.636 14.242 217.039 14.2351 217.352 14.435L218.832 15.3791C218.996 15.4839 219.123 15.6378 219.195 15.8189L222.5 24.1718C222.614 24.4586 222.863 24.6701 223.164 24.7357L228.93 25.9908C229.256 26.0616 229.518 26.3014 229.617 26.6191L231.571 32.8679C231.812 33.6411 232.86 33.7528 233.26 33.0479L233.375 32.8441C233.541 32.5515 233.852 32.3717 234.189 32.3747L236.026 32.3907C236.308 32.3931 236.575 32.2675 236.753 32.0492L237.334 31.3344C237.512 31.1161 237.779 30.9905 238.06 30.9929L240.222 31.0118C240.536 31.0145 240.827 31.1764 240.995 31.4417L243.557 35.481C243.705 35.7146 243.961 35.857 244.238 35.8594C244.827 35.8646 245.216 36.4746 244.972 37.0113L243.412 40.4448C243.272 40.7537 243.311 41.1146 243.516 41.3855L245.657 44.2228C245.857 44.4875 245.9 44.8387 245.77 45.1436L244.944 47.0789C244.727 47.5882 245.003 48.173 245.534 48.3298L246.511 48.6186L251.886 48.6655C252.069 48.6671 252.248 48.6145 252.401 48.5143L257.995 44.8511C258.091 44.7887 258.174 44.7092 258.24 44.6167L260.142 41.9691C260.64 41.2756 261.731 41.5688 261.815 42.4186L263.052 55.013C263.098 55.4839 263.492 55.8441 263.965 55.8482L266.991 55.8746C267.237 55.8768 267.472 55.9765 267.644 56.1518L268.576 57.1012C268.706 57.2344 268.874 57.325 269.058 57.361L272.924 58.1217C273.161 58.1683 273.37 58.3055 273.507 58.5042L278.327 65.4885C278.498 65.7366 278.779 65.8858 279.08 65.8884L282.568 65.9188C282.746 65.9204 282.922 65.8703 283.072 65.7745L287.084 63.2255C287.434 63.003 287.889 63.0407 288.198 63.3176L294.021 68.5378C294.394 68.8723 294.965 68.8492 295.31 68.4857L298.051 65.5975C298.402 65.227 298.987 65.2112 299.358 65.5622L302.051 68.1095C302.377 68.4174 302.876 68.448 303.237 68.1821L304.094 67.5499C304.525 67.2321 305.135 67.3453 305.424 67.7965L312.99 79.6354C313.159 79.8991 313.449 80.0598 313.762 80.0625L314.716 80.0709C315.041 80.0737 315.344 79.9056 315.513 79.628L316.688 77.7069C316.857 77.4293 317.16 77.2612 317.486 77.264L318.84 77.2758C319.086 77.278 319.32 77.3777 319.492 77.553L321.847 79.9515C321.965 80.0713 322.112 80.1569 322.275 80.199L327.198 81.4769C327.494 81.5535 327.807 81.4799 328.038 81.28L331.762 78.0478C332.168 77.6952 332.788 77.7619 333.11 78.1927L336.674 82.9609C336.868 83.2205 337.184 83.3597 337.506 83.3279L344.697 82.6201C344.838 82.6061 344.981 82.625 345.114 82.6751L352.484 85.4533C352.969 85.6363 353.21 86.1823 353.017 86.6639L338.417 123.104C338.364 123.238 338.342 123.383 338.354 123.527L339.586 137.939C339.607 138.185 339.529 138.429 339.37 138.617L338.552 139.582C338.329 139.844 338.271 140.209 338.401 140.528L339.37 142.914C339.496 143.226 339.444 143.581 339.234 143.842L335.507 148.484C335.365 148.661 335.161 148.78 334.936 148.817L329.858 149.656C329.291 149.75 328.776 149.309 328.781 148.735L328.794 147.288L322.592 148.009C322.231 148.051 321.929 148.299 321.817 148.645L320.806 151.788C320.659 152.245 320.885 152.738 321.327 152.924L324.07 154.083C324.675 154.339 324.829 155.126 324.365 155.59L308.772 171.189C308.601 171.361 308.503 171.593 308.501 171.836L308.441 178.691C308.439 178.952 308.327 179.199 308.133 179.373L299.283 187.287C299.121 187.432 299.015 187.629 298.984 187.844L298.13 193.731L300.707 195.049C301.153 195.278 301.336 195.82 301.121 196.272L299.543 199.58C299.509 199.652 299.465 199.719 299.414 199.78L296.482 203.24C295.975 203.838 296.396 204.757 297.181 204.764L301.027 204.797C301.282 204.8 301.527 204.697 301.703 204.513L305.591 200.464C305.962 200.077 305.928 199.455 305.516 199.112L304.245 198.052C303.741 197.632 303.822 196.835 304.401 196.525L306.107 195.613C306.244 195.54 306.397 195.502 306.552 195.503L308.981 195.525C309.262 195.527 309.529 195.401 309.707 195.183L311.432 193.063C311.609 192.845 311.877 192.719 312.158 192.721L318.652 192.778C318.915 192.78 319.164 192.894 319.338 193.091L321.201 195.199C321.436 195.465 321.498 195.843 321.361 196.17L319.212 201.302C319.074 201.631 319.137 202.009 319.375 202.276L326.827 210.627C327.145 210.983 327.14 211.523 326.815 211.873L321.637 217.451C321.48 217.621 321.392 217.842 321.39 218.073L321.371 220.268C321.368 220.613 321.556 220.93 321.859 221.093L326.783 223.73C327.087 223.892 327.275 224.209 327.272 224.554L327.253 226.764C327.251 226.986 327.329 227.201 327.472 227.37L332.155 232.895C332.404 233.188 332.445 233.605 332.259 233.941L328.951 239.93C328.874 240.07 328.761 240.188 328.625 240.272L324.343 242.899C324.304 242.923 324.262 242.944 324.22 242.962L315.768 246.541L318.459 249.282C318.533 249.358 318.594 249.446 318.639 249.542L320.896 254.422C321.006 254.661 321.213 254.841 321.465 254.918L328.024 256.926C328.416 257.046 328.682 257.41 328.679 257.82L328.636 262.714C328.632 263.225 328.214 263.636 327.702 263.631L327.539 263.63C327.17 263.627 326.835 263.842 326.685 264.179L324.218 269.726C324.109 269.97 324.112 270.25 324.224 270.492L326.788 276.005C326.811 276.055 326.83 276.107 326.844 276.16L328.326 281.792C328.412 282.119 328.669 282.373 328.998 282.455L341.118 285.468C341.33 285.521 341.553 285.497 341.749 285.401L346.944 282.857C347.37 282.649 347.885 282.796 348.136 283.199L349.333 285.118C349.524 285.425 349.519 285.814 349.321 286.116L344.163 293.969C344.006 294.208 343.968 294.505 344.06 294.775L345.585 299.263C345.734 299.7 345.537 300.18 345.124 300.388L335.122 305.413C334.895 305.527 334.725 305.729 334.651 305.971L333.512 309.728C333.393 310.121 333.029 310.389 332.618 310.385L328.888 310.353C328.49 310.349 328.134 310.601 328.005 310.978L326.696 314.796C326.567 315.173 326.211 315.425 325.812 315.422L322.639 315.394C322.383 315.392 322.138 315.496 321.961 315.681L318.612 319.195C318.253 319.572 318.275 320.171 318.661 320.52L319.521 321.299C319.992 321.726 319.903 322.489 319.347 322.796L311.455 327.149C311.411 327.174 311.365 327.194 311.317 327.211L302.182 330.447C302.08 330.483 301.972 330.501 301.864 330.5L297.246 330.46C297.046 330.458 296.851 330.391 296.692 330.27L292.622 327.158C292.504 327.068 292.366 327.007 292.22 326.982L281.356 325.071C280.91 324.993 280.586 324.604 280.59 324.152L280.622 320.483C280.627 319.972 280.216 319.554 279.705 319.549L271.871 319.481C271.52 319.478 271.201 319.277 271.047 318.962L270.403 317.643C270.147 317.119 269.477 316.959 269.013 317.311L266.46 319.241C266.297 319.365 266.098 319.431 265.893 319.429L259.782 319.375C259.271 319.371 258.86 318.953 258.864 318.442L258.874 317.345C258.878 316.882 258.539 316.487 258.081 316.42L246.453 314.73L244.206 312.186C244.032 311.989 243.783 311.875 243.521 311.873L238.533 311.83C238.366 311.828 238.201 311.872 238.057 311.956L222.164 321.26C222.105 321.294 222.05 321.335 222 321.381L211.564 331.108C211.359 331.298 211.252 331.57 211.271 331.849L212.497 349.538L213.522 355.362C213.654 356.114 212.869 356.694 212.188 356.346L208.577 354.499C208.345 354.381 208.074 354.365 207.83 354.457L201.12 356.973C200.936 357.042 200.778 357.168 200.67 357.333L198.754 360.26C198.478 360.683 197.915 360.806 197.487 360.537L187.86 354.49C187.519 354.276 187.079 354.307 186.771 354.566L180.16 360.139C179.718 360.512 179.046 360.393 178.759 359.891L175.675 354.489C175.511 354.203 175.208 354.025 174.879 354.022L170.992 353.989C170.374 353.983 169.935 353.386 170.114 352.794L171.002 349.868C171.125 349.462 170.956 349.025 170.592 348.806L167.014 346.657C166.666 346.448 166.222 346.49 165.92 346.76L163.994 348.482C163.609 348.826 163.016 348.789 162.678 348.398L159.367 344.576C159.193 344.375 158.941 344.258 158.676 344.256L155.093 344.225C154.768 344.222 154.468 344.048 154.303 343.768L153.1 341.72C152.971 341.5 152.756 341.343 152.507 341.286L140.832 338.639C140.328 338.524 139.827 338.846 139.721 339.352L138.889 343.339C138.798 343.771 138.416 344.079 137.974 344.075L127.675 343.986C127.509 343.984 127.348 343.939 127.206 343.854L123.053 341.359C122.794 341.203 122.476 341.184 122.2 341.306L117.363 343.456C116.851 343.684 116.255 343.407 116.098 342.868L114.874 338.649C114.794 338.373 114.59 338.15 114.322 338.045L108.828 335.895Z" fill="#316E83"/>
<path d="M358.513 306.648L359.277 300.269C359.352 299.647 360.01 299.277 360.58 299.537L361.416 299.917C361.748 300.069 361.961 300.402 361.958 300.768L361.899 307.454C361.899 307.502 361.895 307.55 361.887 307.598L361.069 312.505C361.027 312.756 361.09 313.012 361.243 313.215L363.61 316.351C363.733 316.514 363.798 316.713 363.796 316.917L363.74 323.396L363.62 337.202C363.618 337.426 363.535 337.642 363.386 337.809L357.894 343.983C357.719 344.179 357.636 344.441 357.665 344.702L358.894 355.58C358.919 355.793 358.868 356.009 358.751 356.189L352.616 365.619C352.443 365.884 352.148 366.042 351.832 366.04L350.72 366.03C350.208 366.026 349.798 365.607 349.802 365.096L349.813 363.814C349.817 363.437 349.591 363.096 349.244 362.951L341.082 359.549C340.9 359.473 340.747 359.341 340.645 359.172L339.115 356.634C338.827 356.156 339.024 355.534 339.535 355.309L342.368 354.062C343.099 353.741 343.108 352.708 342.383 352.374L338.616 350.637L337.117 349.719C336.522 349.354 336.529 348.487 337.131 348.132L339.728 346.603C339.945 346.475 340.1 346.265 340.159 346.021L340.625 344.077C340.778 343.436 340.231 342.844 339.58 342.947L336.063 343.502C335.923 343.524 335.78 343.514 335.644 343.472L334.553 343.134C333.874 342.923 333.675 342.058 334.195 341.573L337.792 338.211C338.254 337.779 338.157 337.021 337.601 336.72L334.358 334.965C334.1 334.826 333.923 334.571 333.882 334.28L333.25 329.799C333.19 329.374 333.431 328.964 333.83 328.808L335.668 328.091C336.381 327.812 336.467 326.839 335.815 326.439L334.319 325.523C333.769 325.186 333.724 324.404 334.23 324.006L337.107 321.743C337.328 321.569 337.458 321.305 337.46 321.023L337.503 316.095C337.506 315.745 337.707 315.426 338.022 315.272L351.293 308.774C351.555 308.645 351.862 308.648 352.121 308.781L357.132 311.344C357.745 311.657 358.473 311.216 358.479 310.527L358.513 306.648Z" fill="#316E83"/>
<path d="M108.828 335.895L102.176 337.881C101.756 338.006 101.306 337.82 101.097 337.436L97.4798 330.781C97.3534 330.548 97.1333 330.381 96.8754 330.321L82.5774 327.01C82.2466 326.933 81.9901 326.679 81.8635 326.364C81.3409 325.064 80.0954 323.496 78.0989 324.869C75.2539 326.826 75.2835 323.429 78.1236 322.038C80.9637 320.648 75.092 312.953 70.8281 315.463C67.6596 317.329 66.7325 313.987 66.6325 311.687C66.6188 311.371 66.7859 311.079 67.0542 310.911L75.7018 305.508C75.8981 305.385 76.0413 305.193 76.1033 304.97L86.485 267.591C86.5067 267.513 86.518 267.433 86.5187 267.352L86.6016 257.849C87.9224 246.914 91.0174 224.935 92.8311 224.498C95.0983 223.951 95.0786 226.216 98.1496 230.772C101.221 235.329 102.33 237.886 102.317 239.302C102.305 240.717 103.099 246.952 105.366 246.406C107.633 245.859 103.781 233.653 102.391 230.809C101.002 227.966 91.4617 219.39 89.2118 217.955C86.9619 216.52 89.5192 215.127 91.2332 213.16C92.5252 211.677 94.2767 207.401 95.1214 205.102C95.2145 204.848 95.189 204.567 95.055 204.333L91.5843 198.255C91.4464 198.014 91.4243 197.723 91.5241 197.464L93.1026 193.359M108.828 335.895L120.665 316.257C120.802 316.03 120.835 315.755 120.755 315.502L118.03 306.81C117.922 306.467 117.626 306.218 117.269 306.17L112.558 305.538C111.876 305.447 111.528 304.67 111.915 304.101L114.96 299.614C115.042 299.493 115.094 299.354 115.112 299.208L115.938 292.553C115.975 292.255 116.155 291.993 116.42 291.851L118.726 290.618C118.976 290.484 119.275 290.472 119.535 290.587L122.361 291.829C122.77 292.008 123.249 291.87 123.499 291.501L124.066 290.666C124.162 290.525 124.295 290.413 124.451 290.342L127.551 288.943C127.777 288.841 128.034 288.834 128.265 288.923L129.847 289.533C130.048 289.61 130.27 289.615 130.475 289.547L138.115 286.983C138.29 286.925 138.479 286.92 138.656 286.969L142.101 287.92C142.419 288.008 142.761 287.92 142.996 287.688L149.541 281.249C149.833 280.963 149.902 280.519 149.711 280.158L148.335 277.545C148.18 277.251 148.195 276.897 148.373 276.616L149.006 275.622C149.286 275.182 149.875 275.06 150.307 275.354L150.973 275.807C151.124 275.909 151.303 275.965 151.485 275.967L152.433 275.975C153.074 275.981 153.527 275.349 153.315 274.744L151.448 269.407C151.336 269.087 151.408 268.731 151.636 268.48L165.022 253.7C165.174 253.532 165.26 253.314 165.262 253.087L165.285 250.402C165.289 249.89 165.707 249.48 166.219 249.484L170.351 249.52C170.555 249.522 170.753 249.591 170.914 249.717L174.023 252.155C174.212 252.303 174.45 252.372 174.689 252.348L184.507 251.342M108.828 335.895L114.322 338.045C114.59 338.15 114.794 338.373 114.874 338.649L116.098 342.868C116.255 343.407 116.851 343.684 117.363 343.456L122.2 341.306C122.476 341.184 122.794 341.203 123.053 341.359L127.206 343.854C127.348 343.939 127.509 343.984 127.675 343.986L137.974 344.075C138.416 344.079 138.798 343.771 138.889 343.339L139.721 339.352C139.827 338.846 140.328 338.524 140.832 338.639L152.507 341.286C152.756 341.342 152.971 341.5 153.1 341.72L154.303 343.768C154.468 344.048 154.768 344.222 155.093 344.225L158.676 344.256C158.941 344.258 159.193 344.375 159.367 344.576L162.678 348.398C163.016 348.789 163.609 348.826 163.994 348.482L165.92 346.76C166.222 346.49 166.666 346.448 167.014 346.657L170.592 348.806C170.956 349.025 171.125 349.462 171.002 349.868L170.114 352.794C169.935 353.386 170.374 353.983 170.992 353.989L174.879 354.022C175.208 354.025 175.511 354.203 175.675 354.489L178.759 359.891C179.046 360.393 179.718 360.512 180.16 360.139L186.771 354.566C187.079 354.307 187.519 354.276 187.86 354.49L197.487 360.537C197.915 360.806 198.478 360.683 198.754 360.26L200.67 357.333C200.778 357.168 200.936 357.042 201.12 356.973L207.83 354.457C208.074 354.365 208.345 354.381 208.577 354.499L212.188 356.346C212.869 356.694 213.654 356.114 213.522 355.362L212.497 349.538L211.271 331.849C211.252 331.571 211.359 331.298 211.564 331.108L222 321.381C222.05 321.335 222.105 321.294 222.164 321.26L238.057 311.956C238.201 311.872 238.366 311.828 238.533 311.83L243.521 311.873C243.783 311.875 244.032 311.989 244.206 312.186L246.453 314.73M93.1026 193.359C93.9575 192.612 96.2324 191.179 98.4927 191.425C100.568 191.651 103.749 192.698 105.419 193.316C105.679 193.412 105.968 193.391 106.209 193.254L109.453 191.411C109.941 191.134 109.748 190.391 109.187 190.386V190.386C108.902 190.383 108.666 190.163 108.644 189.879L107.432 173.905C107.42 173.749 107.37 173.599 107.284 173.468L102.928 166.802C102.496 166.142 103.036 165.278 103.819 165.377L110.816 166.263C111.191 166.311 111.558 166.125 111.742 165.795L112.894 163.723C113.059 163.427 113.372 163.245 113.711 163.248L123.483 163.333M93.1026 193.359L91.3228 194.231C91.0192 194.38 90.6587 194.351 90.3824 194.156L75.5476 183.704C75.4317 183.622 75.3361 183.515 75.2682 183.39L67.5619 169.27C67.3999 168.973 67.4127 168.611 67.5952 168.327L71.6976 161.929C71.9639 161.513 71.8577 160.962 71.4562 160.675L69.4181 159.221C69.3811 159.194 69.3422 159.17 69.3018 159.15L66.4866 157.71C65.9473 157.434 65.8139 156.723 66.2165 156.27L67.1891 155.177C67.338 155.01 67.4212 154.794 67.4231 154.57L67.4441 152.163C67.4486 151.652 67.8666 151.241 68.3779 151.246L72.9131 151.285C73.0413 151.286 73.1677 151.315 73.2834 151.371V151.371C74.152 151.786 74.9579 150.701 74.3094 149.989L73.9627 149.609C73.7892 149.418 73.5442 149.309 73.2866 149.307L67.2876 149.254C67.0419 149.252 66.8055 149.348 66.6303 149.52L64.2317 151.88C63.9526 152.154 63.5309 152.224 63.1786 152.053L58.8509 149.954C58.5782 149.822 58.3875 149.565 58.3403 149.265L57.9537 146.812C57.9072 146.516 58.006 146.217 58.219 146.008L61.0174 143.255M190.956 192.797L177.647 191.048C177.318 191.005 176.991 191.14 176.79 191.404L175.743 192.776C175.532 193.053 175.183 193.188 174.84 193.125L169.615 192.169C169.198 192.092 168.781 192.31 168.606 192.696L168.053 193.914C167.876 194.303 167.456 194.52 167.036 194.44L164.742 194.002C164.678 193.989 164.615 193.97 164.555 193.945L160.427 192.201C160.081 192.055 159.858 191.715 159.861 191.34L159.879 189.298C159.881 189.013 159.752 188.742 159.528 188.565L152.654 183.116C152.43 182.939 152.301 182.668 152.304 182.382L152.332 179.105C152.333 178.952 152.297 178.801 152.225 178.665L146.825 168.412C146.629 168.04 146.206 167.846 145.796 167.942L139.02 169.517C138.587 169.617 138.144 169.396 137.964 168.99L136.955 166.717C136.91 166.616 136.848 166.523 136.77 166.444L134.073 163.697C133.901 163.521 133.666 163.422 133.42 163.42L123.483 163.333M190.956 192.797L192.827 196.072C192.879 196.164 192.947 196.247 193.028 196.316L197.986 200.57C198.15 200.71 198.259 200.904 198.296 201.117L200.026 211.278C200.085 211.625 199.943 211.975 199.658 212.182L194.319 216.061C193.908 216.359 193.815 216.934 194.11 217.347L195.664 219.527C195.761 219.662 195.819 219.821 195.833 219.987L196.992 233.826C197.043 234.434 196.502 234.924 195.902 234.814L191.971 234.094C191.319 233.975 190.757 234.558 190.9 235.205L191.323 237.117C191.381 237.379 191.322 237.655 191.161 237.87L188.31 241.693C188.281 241.731 188.256 241.771 188.234 241.812L184.635 248.595C184.566 248.726 184.529 248.872 184.527 249.02L184.507 251.342M190.956 192.797L192.781 189.474C192.901 189.257 193.102 189.096 193.341 189.029L199.104 187.401C199.5 187.289 199.774 186.929 199.778 186.518L199.801 183.863C199.804 183.491 200.03 183.157 200.374 183.015L212.578 177.981M184.507 251.342L186.638 258.497C186.682 258.645 186.689 258.801 186.657 258.951L185.59 264.063C185.548 264.264 185.574 264.474 185.664 264.658L186.156 265.665C186.407 266.179 187.06 266.345 187.526 266.012L189.458 264.631C189.656 264.49 189.901 264.432 190.141 264.47L194.783 265.208C195.163 265.269 195.541 265.088 195.732 264.754L201.369 254.898C201.686 254.343 202.458 254.269 202.874 254.755L203.706 255.722C203.88 255.925 204.133 256.043 204.4 256.045L206.244 256.061C206.59 256.064 206.905 256.26 207.062 256.569L210.11 262.598C210.46 263.29 211.455 263.27 211.778 262.565L214.614 256.378C214.686 256.219 214.802 256.084 214.948 255.989L220.512 252.346C221.03 252.006 221.729 252.262 221.906 252.856L223.368 257.766C223.553 258.385 224.299 258.629 224.814 258.24L226.873 256.683C227.212 256.426 227.682 256.434 228.013 256.701L235.414 262.683C235.532 262.778 235.625 262.902 235.684 263.042L241.873 277.666C241.935 277.812 242.032 277.939 242.157 278.036L246.102 281.111C246.468 281.397 246.99 281.366 247.321 281.041L250.007 278.398C250.275 278.134 250.676 278.059 251.022 278.208L259.184 281.718M61.0174 143.255L65.2071 141.723C65.4314 141.641 65.6787 141.649 65.8973 141.745L68.3739 142.834C68.938 143.081 69.5822 142.719 69.6639 142.109L70.3522 136.962C70.3878 136.695 70.5376 136.458 70.7626 136.31L74.4083 133.923C74.5809 133.81 74.7863 133.758 74.9919 133.775L81.8967 134.347C82.1566 134.369 82.4135 134.28 82.6043 134.102L87.2375 129.784C87.5272 129.514 87.9566 129.458 88.3057 129.645L93.2677 132.303C93.5002 132.427 93.7748 132.446 94.0225 132.356L95.3005 131.889C95.6628 131.756 95.905 131.413 95.9084 131.027L95.9157 130.189C95.917 130.045 95.9516 129.904 96.0169 129.776L98.8222 124.28C98.9817 123.967 99.3041 123.772 99.6548 123.775L99.7754 123.776C100.316 123.78 100.746 123.323 100.707 122.783L100.038 113.527C100.028 113.38 100.052 113.233 100.11 113.097L101.414 110.04C101.448 109.96 101.471 109.874 101.481 109.787L102.381 102.283M61.0174 143.255L60.4065 140.715C60.2904 140.232 59.8138 139.927 59.3266 140.023L52.3381 141.407C52.11 141.452 51.8731 141.41 51.6748 141.288L50.6616 140.668C50.0278 140.28 50.0868 139.34 50.7642 139.035L52.0182 138.468C52.4839 138.258 52.6911 137.71 52.4813 137.244L51.7425 135.605C51.4778 135.017 50.7087 134.873 50.2493 135.325L47.9556 137.581C47.6757 137.857 47.2525 137.926 46.8997 137.753L22.5533 125.847C22.2954 125.721 22.1107 125.482 22.0531 125.201L21.481 122.41C21.3933 121.982 21.0187 121.674 20.5821 121.67L16.9071 121.638C16.6615 121.636 16.425 121.731 16.2499 121.904L13.6593 124.452C13.4841 124.624 13.2477 124.72 13.002 124.718L9.81995 124.69C9.41729 124.687 9.06309 124.423 8.94383 124.039L7.01906 117.831C6.9696 117.672 6.87792 117.529 6.75373 117.417L3.56092 114.547C2.99163 114.035 3.2541 113.093 4.00597 112.949L11.5903 111.499C12.3565 111.353 12.6091 110.382 12.0115 109.881L9.17018 107.497C8.90135 107.271 8.52807 107.217 8.2062 107.357L7.01919 107.873C6.5528 108.075 6.01026 107.864 5.80407 107.399L4.87107 105.296C4.81754 105.175 4.79044 105.044 4.79159 104.912L4.80131 103.797C4.80345 103.552 4.90289 103.317 5.0778 103.145L5.25519 102.971C5.72232 102.511 6.50592 102.669 6.75856 103.274L6.8265 103.437C6.96932 103.778 7.30216 104.002 7.67259 104.005L11.3403 104.037C11.7886 104.041 12.1551 103.681 12.159 103.233V103.233C12.1622 102.874 11.9299 102.556 11.5876 102.45L10.0016 101.959C9.61123 101.838 9.34635 101.475 9.34992 101.067L9.35695 100.26C9.36181 99.702 8.87502 99.2665 8.32067 99.3332L1.91108 100.104C1.27082 100.181 0.749945 99.5966 0.90028 98.9694L2.24933 93.342C2.31369 93.0735 2.4945 92.8478 2.74244 92.7264L12.3868 88.0038C12.8157 87.7938 13.334 87.9446 13.5834 88.3518L14.1356 89.2538C14.3686 89.6343 14.8398 89.7944 15.2564 89.6348L21.7751 87.1366C22.1866 86.9789 22.6522 87.1331 22.8882 87.5053L24.9065 90.6882C25.232 91.2016 25.9556 91.2672 26.3682 90.8208L27.9429 89.1169C28.2183 88.8189 28.6557 88.735 29.0218 88.9099L32.445 90.5456C32.5672 90.6039 32.7007 90.6348 32.836 90.636L33.6842 90.6434C34.1955 90.6478 34.6135 90.237 34.618 89.7258L34.6251 88.9122C34.6265 88.7533 34.6687 88.5975 34.7477 88.4597L36.8167 84.8517C37.044 84.4554 37.5264 84.2841 37.9526 84.4484L39.1155 84.8966C39.3406 84.9833 39.5906 84.9788 39.8124 84.8839L43.4267 83.3384C43.7774 83.1885 44.1841 83.2689 44.4513 83.5411L44.7015 83.7959C44.9611 84.0604 45.3534 84.1445 45.6987 84.0097L46.6929 83.6216C47.3032 83.3834 47.961 83.837 47.9552 84.4921L47.9487 85.2429C47.9463 85.515 48.0638 85.7744 48.2699 85.9521L51.4427 88.6874C51.5424 88.7734 51.6226 88.8796 51.678 88.999L56.3756 99.1262C56.627 99.6681 57.3182 99.8336 57.7877 99.4642L66.096 92.9287C66.502 92.6093 67.0909 92.684 67.4043 93.0947L70.474 97.1176C70.6474 97.3448 70.9161 97.4792 71.2019 97.4817L72.6509 97.4943C73.1622 97.4988 73.5803 97.0879 73.5847 96.5767L73.5954 95.3551C73.5989 94.9488 73.8669 94.5923 74.2563 94.4761L79.7719 92.8297C80.3688 92.6516 80.9678 93.1019 80.9624 93.7249L80.9376 96.5637C80.9329 97.1041 81.3901 97.5336 81.9292 97.4951L88.0033 97.062M102.381 102.283L108.366 105.619C108.501 105.695 108.653 105.735 108.808 105.736L114.292 105.784C114.436 105.785 114.578 105.753 114.707 105.69L118.29 103.935C118.419 103.872 118.562 103.84 118.705 103.841L120.448 103.856C120.643 103.858 120.835 103.797 120.994 103.683L123.421 101.949C123.702 101.748 124.073 101.72 124.381 101.878L126.246 102.832C126.526 102.975 126.714 103.25 126.746 103.562L126.907 105.136C126.937 105.434 127.11 105.699 127.371 105.847L129.129 106.845C129.35 106.971 129.486 107.207 129.484 107.462V107.462C129.48 107.949 129.961 108.292 130.421 108.13L138.254 105.355C138.607 105.23 139 105.33 139.251 105.609L141.677 108.305C141.832 108.477 141.917 108.701 141.915 108.933L141.878 113.085C141.875 113.441 142.077 113.768 142.397 113.925L151.448 118.355M102.381 102.283L96.868 100.654C96.6073 100.577 96.326 100.619 96.0985 100.768L92.2155 103.31C91.7494 103.616 91.1212 103.443 90.8766 102.942L88.0033 97.062M123.483 163.333L132.02 152.873C132.138 152.728 132.21 152.552 132.226 152.366L132.803 145.616C132.821 145.409 132.908 145.214 133.051 145.062L135.82 142.111C136.083 141.831 136.491 141.742 136.846 141.888L138.451 142.547C138.823 142.7 139.25 142.595 139.509 142.289L140.222 141.448C140.4 141.238 140.662 141.118 140.937 141.12L143.468 141.143C143.74 141.145 143.999 141.028 144.176 140.823L150.244 133.817C150.388 133.651 150.468 133.439 150.47 133.219L150.486 131.301C150.49 130.95 150.69 130.632 151.005 130.478L152.207 129.889C152.544 129.724 152.748 129.372 152.723 128.998L152.297 122.463C152.277 122.154 152.412 121.856 152.658 121.667L153.638 120.918C154.185 120.5 154.101 119.654 153.483 119.351L151.448 118.355M88.0033 97.062L91.5312 97.0927C92.3794 97.1001 92.7901 96.0579 92.1649 95.4847L88.6342 92.2475C88.4409 92.0703 88.3318 91.8193 88.3341 91.5571L88.4816 74.6367C88.4828 74.4931 88.4507 74.3512 88.3876 74.2222L81.3554 59.8305C81.2924 59.7015 81.2602 59.5596 81.2615 59.416L81.3002 54.9721C81.3011 54.8727 81.3179 54.7741 81.3502 54.6801L82.0878 52.5275C82.2799 51.967 82.9418 51.7288 83.4471 52.0383L89.1916 55.5571C89.3867 55.6766 89.6192 55.7196 89.8441 55.6779L98.8125 54.0132C99.3031 53.9222 99.7775 54.2362 99.8853 54.7233L100.402 57.0585C100.469 57.358 100.382 57.6709 100.172 57.894L97.2608 60.9776C96.9848 61.2701 96.9291 61.7072 97.123 62.0595L101.106 69.2943C101.433 69.8885 102.267 69.9408 102.666 69.3921L104.282 67.1675C104.515 66.8476 104.925 66.7107 105.303 66.8268L125.246 72.952C125.438 73.0109 125.644 73.0059 125.833 72.9375L141.715 67.1896C142.633 66.8572 142.477 65.5132 141.507 65.3997L136.088 64.7654C135.502 64.6968 135.129 64.1043 135.32 63.5458L137.717 56.5531C137.801 56.3055 137.987 56.1055 138.228 56.0024L170.21 42.2915M170.21 42.2915L174.322 37.9773C174.433 37.8607 174.572 37.775 174.727 37.7289L176.636 37.159C177.32 36.9548 177.526 36.0864 177.006 35.5975L175.359 34.049C174.932 33.647 174.981 32.9539 175.461 32.6169L176.108 32.1629C176.366 31.9816 176.514 31.6812 176.501 31.3659L175.612 10.4473C175.595 10.0499 175.834 9.68618 176.205 9.54371L200.046 0.397476C200.494 0.225667 200.999 0.4244 201.21 0.855369L204.303 7.18713C204.398 7.38029 204.422 7.60029 204.372 7.80935L203.697 10.6249C203.618 10.9539 203.725 11.2998 203.976 11.5269L210.602 17.5274C210.92 17.8155 211.395 17.8472 211.748 17.604L216.33 14.4527C216.636 14.242 217.039 14.2351 217.352 14.435L218.832 15.3791C218.996 15.4839 219.123 15.6378 219.195 15.8189L222.5 24.1718C222.614 24.4586 222.863 24.6701 223.164 24.7357L228.93 25.9908C229.256 26.0616 229.518 26.3014 229.617 26.6191L231.571 32.8679C231.812 33.6411 232.86 33.7528 233.26 33.0479L233.375 32.8441C233.541 32.5515 233.852 32.3717 234.189 32.3747L236.026 32.3907C236.308 32.3931 236.575 32.2675 236.753 32.0492L237.334 31.3344C237.512 31.1161 237.779 30.9905 238.06 30.9929L240.222 31.0118C240.536 31.0145 240.827 31.1764 240.995 31.4417L243.557 35.481C243.705 35.7146 243.961 35.857 244.238 35.8594V35.8594C244.827 35.8646 245.216 36.4746 244.972 37.0113L243.412 40.4448C243.272 40.7537 243.311 41.1146 243.516 41.3855L245.657 44.2228C245.857 44.4875 245.9 44.8387 245.77 45.1436L244.944 47.0789C244.727 47.5882 245.003 48.173 245.533 48.3298L246.511 48.6186M170.21 42.2915L178.863 47.811C179.084 47.9517 179.235 48.179 179.278 48.4369L180.474 55.4944C180.524 55.7927 180.426 56.0968 180.21 56.3089L178.44 58.0504C178.167 58.3188 178.088 58.7275 178.24 59.0786L179.018 60.8734C179.069 60.9921 179.095 61.1203 179.094 61.2497L179.047 66.7149L179.025 69.1633C179.025 69.2293 179.031 69.2952 179.045 69.3599L180.212 74.9725C180.309 75.4352 180.041 75.8961 179.591 76.0417L179.105 76.1992L177.829 76.6127M246.511 48.6186L246.44 56.7278C246.438 56.9731 246.339 57.2076 246.164 57.3796L242.094 61.383C241.951 61.5243 241.857 61.7085 241.828 61.9078L240.488 70.9816C240.42 71.4387 240.026 71.7761 239.564 71.7721L237.41 71.7533C237.31 71.7524 237.211 71.7676 237.117 71.7983L231.219 73.7093C230.78 73.8516 230.513 74.2957 230.593 74.7504L231.711 81.1026C231.766 81.4196 231.654 81.7428 231.413 81.9562L229.379 83.7562C229.117 83.9888 229.008 84.3501 229.099 84.6891L230.165 88.6665C230.259 89.0178 230.139 89.3917 229.858 89.6222L225.193 93.4453M246.511 48.6186L251.886 48.6655C252.069 48.6671 252.248 48.6145 252.401 48.5143L257.995 44.8511C258.091 44.7887 258.174 44.7092 258.24 44.6167L260.142 41.9691C260.64 41.2756 261.731 41.5688 261.815 42.4186L263.052 55.013C263.098 55.4839 263.492 55.8441 263.965 55.8482L266.991 55.8746C267.237 55.8768 267.472 55.9765 267.644 56.1518L268.576 57.1012C268.706 57.2344 268.874 57.325 269.058 57.361L272.924 58.1217C273.161 58.1683 273.37 58.3055 273.507 58.5042L278.327 65.4885C278.498 65.7366 278.779 65.8858 279.08 65.8884L282.568 65.9188C282.746 65.9204 282.922 65.8702 283.072 65.7745L287.084 63.2255C287.434 63.003 287.889 63.0407 288.198 63.3176L294.021 68.5378C294.394 68.8723 294.965 68.8492 295.31 68.4857L298.051 65.5975C298.402 65.227 298.987 65.2112 299.358 65.5622L302.051 68.1095C302.377 68.4174 302.876 68.448 303.237 68.1821L304.094 67.5499C304.525 67.2321 305.135 67.3453 305.424 67.7965L312.99 79.6354C313.159 79.8991 313.449 80.0598 313.762 80.0625L314.716 80.0709C315.041 80.0737 315.344 79.9056 315.513 79.628L316.688 77.7069C316.857 77.4293 317.16 77.2612 317.486 77.264L318.84 77.2758C319.085 77.278 319.32 77.3777 319.492 77.553L321.847 79.9515C321.965 80.0713 322.112 80.1569 322.275 80.199L327.198 81.4769C327.494 81.5535 327.807 81.4799 328.038 81.28L331.762 78.0478C332.168 77.6952 332.788 77.7619 333.11 78.1927L336.674 82.9609C336.868 83.2205 337.184 83.3597 337.506 83.3279L344.697 82.6201C344.838 82.6061 344.981 82.625 345.114 82.6751L352.484 85.4533C352.969 85.6363 353.21 86.1823 353.017 86.6639L338.417 123.104C338.363 123.238 338.342 123.383 338.354 123.527L339.586 137.939C339.607 138.185 339.529 138.429 339.37 138.617L338.552 139.582C338.329 139.844 338.271 140.209 338.401 140.528L339.37 142.914C339.496 143.226 339.444 143.581 339.234 143.842L335.507 148.484C335.365 148.661 335.161 148.78 334.936 148.817L329.858 149.656C329.291 149.75 328.776 149.309 328.781 148.735L328.794 147.288M225.193 93.4453L218.645 88.1625C218.519 88.061 218.422 87.9285 218.364 87.778L216.585 83.211C216.396 82.7261 215.845 82.4921 215.365 82.6931L212.486 83.8986C212.342 83.9588 212.185 83.9817 212.03 83.9652L200.78 82.7674C200.715 82.7605 200.651 82.7467 200.589 82.7262L187.701 78.4847C187.524 78.4263 187.333 78.4229 187.153 78.4751L182.245 79.9028C181.942 79.9909 181.615 79.9187 181.377 79.7111L177.829 76.6127M225.193 93.4453L224.07 101.845C224.018 102.234 224.216 102.613 224.566 102.792L225.14 103.086C225.688 103.366 225.815 104.094 225.393 104.543L223.132 106.952C222.93 107.168 222.843 107.468 222.898 107.759L223.892 112.968M177.829 76.6127L173.671 82.3343C173.582 82.4565 173.465 82.5551 173.329 82.6215L170.786 83.8666C170.4 84.0556 170.195 84.4854 170.291 84.9044L171.49 90.1461M171.49 90.1461L170.199 93.6664C170.1 93.9377 169.879 94.1469 169.603 94.2322L164.269 95.8802C163.977 95.9703 163.66 95.9108 163.421 95.7212L161.673 94.3357C161.425 94.1393 161.094 94.0829 160.795 94.1861L153.405 96.7391C152.903 96.9124 152.649 97.4708 152.849 97.9624L156.427 106.775C156.555 107.09 156.5 107.449 156.285 107.711L150.916 114.248C150.737 114.466 150.667 114.755 150.727 115.031L151.448 118.355M171.49 90.1461L174.675 93.9326C174.788 94.0673 174.861 94.2314 174.884 94.4058L175.877 101.821C175.899 101.987 175.965 102.144 176.07 102.275L184.098 112.366C184.23 112.532 184.302 112.738 184.3 112.95L184.275 115.83C184.269 116.472 184.904 116.925 185.509 116.71L190.35 114.996C190.452 114.96 190.559 114.942 190.667 114.943L195.183 114.982C195.445 114.984 195.693 115.097 195.867 115.293L198.718 118.503C198.87 118.674 198.953 118.896 198.951 119.126L198.932 121.298C198.928 121.865 199.429 122.303 199.99 122.222L211.948 120.507M211.948 120.507L215.635 128.052C215.763 128.314 215.76 128.62 215.628 128.88L214.456 131.175C214.419 131.249 214.371 131.317 214.315 131.379L212.069 133.833C211.915 134.002 211.829 134.221 211.827 134.45L211.797 137.804C211.795 138.136 211.614 138.441 211.324 138.603L206.664 141.216C206.206 141.473 206.053 142.059 206.327 142.507L209.869 148.291C209.959 148.439 210.006 148.609 210.005 148.782L209.933 157.074C209.931 157.218 209.964 157.359 210.027 157.488L212.613 162.782C212.676 162.911 212.709 163.053 212.707 163.197L212.578 177.981M211.948 120.507L213.007 114.953C213.083 114.557 213.404 114.256 213.804 114.207L223.892 112.968M212.578 177.981L217.385 181.791C217.546 181.919 217.746 181.99 217.952 181.992L221.893 182.026C222.066 182.028 222.236 182.078 222.382 182.171L223.857 183.112C224.188 183.323 224.615 183.303 224.924 183.062L230.1 179.033C230.633 178.618 231.417 178.895 231.57 179.553L233.361 187.24C233.401 187.413 233.49 187.571 233.618 187.695L238.811 192.733C239.107 193.021 239.177 193.47 238.983 193.834L236.396 198.674C236.243 198.961 236.251 199.307 236.418 199.586L238.862 203.668C239.072 204.018 239.487 204.19 239.883 204.09L250.427 201.423C250.835 201.32 251.122 200.955 251.125 200.534L251.146 198.151C251.152 197.479 251.849 197.037 252.459 197.319L256.611 199.233C256.73 199.288 256.86 199.317 256.991 199.318L259.269 199.338C259.651 199.341 259.992 199.579 260.127 199.936L260.806 201.731C261.126 202.575 262.342 202.509 262.568 201.635L265.399 190.707C265.531 190.196 266.064 189.899 266.569 190.055L268.139 190.541C268.348 190.606 268.573 190.595 268.775 190.509L274.298 188.162C274.701 187.991 275.17 188.126 275.42 188.487L282.119 198.145C282.538 198.748 283.458 198.648 283.737 197.968L284.191 196.859C284.467 196.186 285.375 196.079 285.799 196.67L287.41 198.91C287.687 199.295 288.21 199.408 288.622 199.173L298.13 193.731M223.892 112.968L228.33 116.692C228.542 116.87 228.663 117.133 228.66 117.409L228.637 120.145C228.634 120.461 228.793 120.757 229.058 120.929L231.601 122.58C231.683 122.634 231.757 122.7 231.818 122.777L236.761 128.933L239.506 132.493C239.71 132.759 240.043 132.893 240.374 132.844L254.016 130.824C254.188 130.798 254.349 130.725 254.481 130.612L257.829 127.758C258.226 127.42 258.822 127.476 259.15 127.881L262.195 131.648C262.369 131.864 262.63 131.99 262.907 131.992L264.902 132.01C265.522 132.015 265.961 132.616 265.778 133.209L264.583 137.074C264.472 137.433 264.588 137.823 264.878 138.062L270.043 142.323C270.207 142.458 270.412 142.532 270.624 142.534L272.924 142.554C273.226 142.557 273.508 142.707 273.679 142.956L274.777 144.555C275.089 145.009 275.726 145.092 276.144 144.733L279.761 141.62C279.866 141.53 279.989 141.464 280.123 141.428L286.329 139.746C286.73 139.638 287.009 139.276 287.013 138.861L287.038 136.018C287.04 135.752 287.157 135.5 287.358 135.326L294.074 129.512C294.135 129.46 294.202 129.416 294.273 129.381L297.629 127.738C297.943 127.584 298.317 127.62 298.596 127.832L302.796 131.024C302.955 131.144 303.148 131.211 303.348 131.212L306.639 131.241C306.794 131.242 306.947 131.205 307.084 131.132L309.591 129.791C309.849 129.653 310.157 129.645 310.421 129.769L322.982 135.665C323.31 135.819 323.518 136.15 323.515 136.512L323.471 141.479C323.469 141.725 323.565 141.961 323.737 142.136L328.794 147.288M246.453 314.73L252.591 307.596C252.688 307.483 252.811 307.395 252.949 307.34L258.405 305.161C258.754 305.022 258.984 304.685 258.988 304.309L259.057 296.335C259.06 296.043 259.199 295.77 259.433 295.598L264.097 292.16C264.472 291.883 264.583 291.37 264.355 290.963L259.184 281.718M246.453 314.73L258.081 316.42C258.539 316.487 258.878 316.882 258.874 317.345L258.864 318.442C258.86 318.953 259.271 319.371 259.782 319.375L265.893 319.429C266.098 319.431 266.297 319.365 266.46 319.241L269.013 317.311C269.477 316.959 270.147 317.119 270.403 317.643L271.047 318.962C271.201 319.277 271.52 319.478 271.871 319.481L279.705 319.549C280.216 319.554 280.627 319.972 280.622 320.483L280.59 324.152C280.586 324.604 280.91 324.993 281.356 325.071L292.22 326.982C292.366 327.007 292.504 327.068 292.622 327.158L296.692 330.27C296.851 330.391 297.046 330.458 297.246 330.46L301.864 330.5C301.972 330.501 302.08 330.483 302.181 330.447L311.317 327.211C311.365 327.194 311.411 327.174 311.455 327.149L319.347 322.796C319.903 322.489 319.992 321.726 319.521 321.299L318.661 320.52C318.275 320.171 318.253 319.572 318.612 319.195L321.961 315.681C322.138 315.496 322.383 315.392 322.639 315.394L325.812 315.422C326.211 315.425 326.567 315.173 326.696 314.796L328.005 310.978C328.134 310.601 328.49 310.349 328.888 310.353L332.618 310.385C333.029 310.389 333.393 310.121 333.512 309.728L334.651 305.971C334.725 305.729 334.895 305.527 335.122 305.413L345.124 300.388C345.537 300.18 345.734 299.7 345.585 299.263L344.06 294.775C343.968 294.505 344.006 294.208 344.163 293.969L349.321 286.116C349.519 285.814 349.524 285.425 349.333 285.118L348.136 283.199C347.885 282.796 347.37 282.649 346.944 282.857L341.749 285.401C341.553 285.497 341.33 285.521 341.118 285.468L328.998 282.455C328.669 282.373 328.412 282.119 328.326 281.792L326.844 276.16C326.83 276.107 326.811 276.055 326.788 276.005L324.224 270.492C324.112 270.25 324.109 269.97 324.218 269.726L326.685 264.179C326.835 263.842 327.17 263.627 327.539 263.63L327.702 263.631C328.214 263.636 328.632 263.225 328.636 262.714L328.679 257.82C328.682 257.41 328.416 257.046 328.024 256.926L321.465 254.918C321.213 254.841 321.006 254.661 320.896 254.422L318.639 249.542C318.594 249.446 318.533 249.358 318.459 249.282L315.768 246.541M259.184 281.718L260.739 279.971C261.004 279.672 261.431 279.578 261.798 279.736L266.153 281.617C266.397 281.722 266.674 281.718 266.915 281.604L272.871 278.797C273.488 278.506 274.197 278.96 274.191 279.643L274.177 281.255C274.174 281.617 274.382 281.948 274.709 282.101L280.728 284.927C280.862 284.989 280.978 285.083 281.068 285.2L282.983 287.683C283.428 288.26 284.334 288.121 284.585 287.436L285.231 285.674C285.366 285.307 285.717 285.064 286.108 285.067L288.489 285.088C289 285.092 289.418 284.681 289.423 284.17L289.457 280.26C289.46 279.925 289.281 279.614 288.991 279.448L282.897 275.962C282.607 275.796 282.428 275.485 282.431 275.15L282.461 271.736C282.468 270.949 283.391 270.529 283.989 271.041L286.787 273.436C287.512 274.057 288.589 273.306 288.257 272.411L287.345 269.95C287.306 269.844 287.286 269.732 287.287 269.62L287.311 266.869C287.315 266.428 287.63 266.05 288.063 265.968L292.699 265.081C292.884 265.046 293.054 264.955 293.186 264.821L300.697 257.168C300.873 256.988 301.115 256.888 301.366 256.89L306.551 256.936C307.062 256.94 307.48 256.529 307.485 256.018L307.525 251.408C307.528 250.998 307.261 250.634 306.868 250.515L304.311 249.737C303.62 249.527 303.425 248.643 303.963 248.161L305.604 246.694C305.776 246.54 305.999 246.456 306.229 246.458L308.982 246.482L315.768 246.541M315.768 246.541L324.22 242.962C324.262 242.944 324.304 242.923 324.343 242.899L328.625 240.272C328.761 240.188 328.874 240.07 328.951 239.93L332.259 233.941C332.445 233.605 332.404 233.188 332.155 232.895L327.472 227.37C327.329 227.201 327.251 226.986 327.253 226.764L327.272 224.554C327.275 224.209 327.087 223.892 326.783 223.73L321.859 221.093C321.556 220.93 321.368 220.613 321.371 220.268L321.39 218.073C321.392 217.842 321.48 217.621 321.637 217.451L326.815 211.873C327.14 211.523 327.145 210.983 326.827 210.627L319.375 202.276C319.137 202.009 319.074 201.631 319.212 201.302L321.361 196.17C321.498 195.843 321.436 195.465 321.201 195.199L319.338 193.091C319.164 192.894 318.915 192.78 318.652 192.778L312.158 192.721C311.877 192.719 311.609 192.845 311.432 193.063L309.707 195.183C309.529 195.401 309.262 195.527 308.981 195.525L306.552 195.503C306.397 195.502 306.244 195.54 306.107 195.613L304.401 196.525C303.822 196.835 303.741 197.632 304.245 198.052L305.516 199.112C305.928 199.455 305.962 200.077 305.591 200.464L301.703 204.513C301.527 204.697 301.282 204.8 301.027 204.797L297.181 204.764C296.396 204.757 295.975 203.838 296.482 203.24L299.414 199.78C299.465 199.719 299.509 199.652 299.543 199.58L301.121 196.272C301.336 195.82 301.153 195.278 300.707 195.049L298.13 193.731M298.13 193.731L298.984 187.844C299.015 187.629 299.121 187.432 299.283 187.287L308.133 179.373C308.327 179.199 308.439 178.952 308.441 178.691L308.501 171.836C308.503 171.593 308.601 171.361 308.772 171.189L324.365 155.59C324.829 155.126 324.675 154.339 324.07 154.083L321.327 152.924C320.885 152.738 320.659 152.245 320.806 151.788L321.817 148.645C321.929 148.299 322.231 148.051 322.592 148.009L328.794 147.288M358.513 306.647L359.277 300.269C359.352 299.647 360.01 299.277 360.58 299.537L361.416 299.917C361.748 300.069 361.961 300.402 361.958 300.768L361.899 307.454C361.899 307.502 361.895 307.55 361.887 307.598L361.069 312.505C361.027 312.756 361.09 313.012 361.243 313.215L363.61 316.351C363.733 316.514 363.798 316.713 363.796 316.917L363.74 323.396L363.62 337.202C363.618 337.426 363.535 337.642 363.386 337.809L357.894 343.983C357.719 344.179 357.636 344.441 357.665 344.702L358.894 355.58C358.919 355.793 358.868 356.009 358.751 356.189L352.616 365.619C352.443 365.884 352.148 366.042 351.832 366.04L350.72 366.03C350.208 366.026 349.798 365.607 349.802 365.096L349.813 363.814C349.817 363.437 349.591 363.096 349.244 362.952L341.082 359.549C340.9 359.473 340.747 359.341 340.645 359.172L339.115 356.634C338.827 356.156 339.024 355.534 339.535 355.309L342.368 354.062C343.099 353.741 343.108 352.708 342.383 352.374L338.616 350.637L337.117 349.719C336.522 349.354 336.529 348.486 337.131 348.132L339.728 346.603C339.945 346.475 340.1 346.265 340.159 346.021L340.625 344.077C340.778 343.436 340.231 342.844 339.58 342.947L336.063 343.502C335.923 343.524 335.78 343.514 335.644 343.472L334.553 343.134C333.874 342.923 333.675 342.058 334.195 341.573L337.792 338.211C338.254 337.779 338.157 337.021 337.601 336.72L334.358 334.965C334.1 334.826 333.923 334.571 333.882 334.28L333.25 329.799C333.19 329.374 333.43 328.964 333.83 328.808L335.668 328.091C336.381 327.812 336.467 326.839 335.815 326.439L334.319 325.523C333.769 325.186 333.724 324.404 334.23 324.006L337.107 321.743C337.328 321.569 337.458 321.305 337.46 321.023L337.503 316.095C337.506 315.745 337.707 315.426 338.022 315.272L351.293 308.774C351.555 308.645 351.862 308.648 352.121 308.781L357.132 311.344C357.745 311.657 358.473 311.216 358.479 310.527L358.513 306.647Z" stroke="white" stroke-width="0.463275" stroke-linejoin="round"/>
</svg>
