<svg width="785" height="792" viewBox="0 0 785 792" fill="none" xmlns="http://www.w3.org/2000/svg">
<path d="M233.58 725.592L219.22 729.878C218.315 730.149 217.344 729.748 216.893 728.918L209.084 714.554C208.811 714.052 208.336 713.69 207.779 713.561L176.917 706.413C176.202 706.248 175.649 705.699 175.375 705.019C174.248 702.214 171.559 698.829 167.25 701.793C161.108 706.017 161.172 698.684 167.303 695.682C173.433 692.68 160.759 676.071 151.555 681.49C144.716 685.517 142.715 678.303 142.499 673.339C142.469 672.657 142.83 672.026 143.409 671.664L162.075 660C162.499 659.736 162.808 659.322 162.942 658.84L185.351 578.156C185.398 577.987 185.423 577.814 185.424 577.639L185.603 557.127C188.454 533.524 195.135 486.081 199.05 485.137C203.943 483.958 203.901 488.846 210.53 498.681C217.159 508.516 219.553 514.036 219.526 517.091C219.499 520.147 221.213 533.605 226.107 532.426C231.001 531.246 222.684 504.898 219.686 498.761C216.687 492.624 196.094 474.112 191.237 471.014C186.381 467.916 191.901 464.909 195.6 460.664C198.389 457.464 202.17 448.232 203.993 443.269C204.194 442.722 204.139 442.116 203.85 441.609L196.358 428.491C196.061 427.97 196.013 427.343 196.228 426.783L199.636 417.923L195.794 419.805C195.139 420.126 194.36 420.064 193.764 419.644L161.742 397.081C161.492 396.905 161.286 396.674 161.139 396.405L144.505 365.925C144.155 365.284 144.183 364.503 144.577 363.889L153.432 350.078C154.007 349.182 153.778 347.992 152.911 347.373L148.512 344.233C148.432 344.176 148.348 344.125 148.261 344.08L142.184 340.972C141.02 340.377 140.732 338.842 141.601 337.865L143.7 335.505C144.022 335.144 144.201 334.678 144.205 334.195L144.251 329C144.26 327.896 145.163 327.009 146.266 327.019L156.056 327.104C156.332 327.107 156.605 327.17 156.855 327.289C158.73 328.185 160.469 325.842 159.07 324.307L158.321 323.486C157.947 323.075 157.418 322.838 156.862 322.834L143.913 322.721C143.383 322.716 142.872 322.923 142.494 323.294L137.317 328.388C136.714 328.981 135.804 329.13 135.043 328.761L125.702 324.232C125.113 323.946 124.702 323.391 124.6 322.745L123.765 317.448C123.665 316.811 123.878 316.165 124.338 315.712L130.378 309.77L129.06 304.287C128.809 303.245 127.78 302.586 126.729 302.795L111.644 305.782C111.151 305.879 110.64 305.788 110.212 305.526L108.025 304.186C106.657 303.348 106.784 301.321 108.246 300.661L110.953 299.439C111.958 298.985 112.406 297.802 111.953 296.797L110.358 293.257C109.787 291.989 108.126 291.678 107.135 292.654L102.184 297.524C101.58 298.119 100.666 298.267 99.9047 297.895L47.3518 272.194C46.7953 271.922 46.3965 271.407 46.2721 270.801L45.0372 264.775C44.848 263.852 44.0395 263.187 43.0971 263.178L35.1644 263.109C34.6341 263.105 34.1237 263.311 33.7457 263.683L28.1537 269.184C27.7757 269.556 27.2653 269.762 26.735 269.758L19.8664 269.698C18.9973 269.69 18.2327 269.122 17.9753 268.291L13.8206 254.893C13.7138 254.548 13.5159 254.239 13.2479 253.998L6.35604 247.803C5.1272 246.699 5.69376 244.665 7.31671 244.354L23.6877 241.225C25.3417 240.909 25.8869 238.814 24.597 237.732L18.4639 232.585C17.8836 232.098 17.0779 231.981 16.3831 232.283L13.8209 233.396C12.8141 233.834 11.6431 233.377 11.198 232.374L9.18406 227.834C9.06851 227.573 9.01001 227.291 9.01249 227.006L9.03347 224.6C9.03809 224.07 9.25275 223.564 9.63029 223.192L10.0132 222.816C11.0215 221.824 12.713 222.165 13.2583 223.47L13.4049 223.821C13.7132 224.559 14.4317 225.042 15.2313 225.049L23.1482 225.118C24.1158 225.126 24.907 224.349 24.9154 223.381C24.9222 222.607 24.4209 221.921 23.682 221.692L20.2586 220.631C19.4159 220.37 18.8442 219.587 18.8518 218.705L18.867 216.965C18.8775 215.76 17.8268 214.82 16.6302 214.964L2.7948 216.628C1.41277 216.795 0.288434 215.532 0.612938 214.179L3.52492 202.031C3.66383 201.452 4.05413 200.965 4.58931 200.703L25.407 190.509C26.3329 190.055 27.4516 190.381 27.9899 191.26L29.182 193.207C29.6848 194.028 30.702 194.374 31.6012 194.029L45.6722 188.637C46.5604 188.296 47.5655 188.629 48.0748 189.433L52.4314 196.303C53.1341 197.411 54.6959 197.553 55.5865 196.589L58.9856 192.911C59.5801 192.268 60.5242 192.087 61.3146 192.465L68.7036 195.995C68.9673 196.121 69.2554 196.188 69.5477 196.19L71.3785 196.206C72.4821 196.216 73.3845 195.329 73.3941 194.226L73.4094 192.47C73.4124 192.127 73.5036 191.79 73.6741 191.493L78.1401 183.705C78.6306 182.849 79.6719 182.48 80.5921 182.834L83.1022 183.802C83.588 183.989 84.1277 183.979 84.6064 183.774L92.4081 180.438C93.1651 180.115 94.043 180.288 94.6197 180.876L95.1597 181.426C95.7201 181.997 96.567 182.178 97.3122 181.887L99.4584 181.05C100.776 180.535 102.195 181.515 102.183 182.929L102.169 184.549C102.164 185.137 102.417 185.696 102.862 186.08L109.711 191.984C109.926 192.17 110.099 192.399 110.219 192.657L120.359 214.517C120.901 215.687 122.393 216.044 123.407 215.247L141.341 201.139C142.217 200.45 143.488 200.611 144.165 201.498L150.791 210.181C151.165 210.672 151.745 210.962 152.362 210.967L155.49 210.994C156.593 211.004 157.496 210.117 157.505 209.014L157.528 206.377C157.536 205.5 158.115 204.73 158.955 204.48L170.861 200.926C172.149 200.541 173.442 201.513 173.43 202.858L173.377 208.986C173.367 210.152 174.354 211.079 175.517 210.996L188.629 210.061L196.244 210.128C198.074 210.143 198.961 207.894 197.612 206.657L189.99 199.669C189.573 199.286 189.338 198.745 189.343 198.179L189.661 161.655C189.664 161.345 189.594 161.039 189.458 160.761L174.279 129.695C174.143 129.417 174.073 129.111 174.076 128.801L174.16 119.208C174.162 118.994 174.198 118.781 174.267 118.578L175.86 113.932C176.274 112.722 177.703 112.207 178.794 112.876L191.194 120.471C191.615 120.729 192.117 120.822 192.602 120.732L211.961 117.139C213.02 116.942 214.044 117.62 214.276 118.671L215.392 123.712C215.535 124.358 215.349 125.034 214.894 125.515L208.611 132.172C208.015 132.803 207.895 133.746 208.314 134.507L216.911 150.123C217.617 151.406 219.417 151.519 220.278 150.335L223.768 145.533C224.269 144.842 225.155 144.547 225.971 144.797L269.02 158.019C269.434 158.146 269.879 158.135 270.286 157.988L304.567 145.58C306.55 144.863 306.213 141.962 304.119 141.717L292.422 140.348C291.157 140.199 290.351 138.921 290.764 137.715L295.937 122.621C296.12 122.087 296.521 121.655 297.04 121.432L366.075 91.8368L374.95 82.5245C375.19 82.2726 375.492 82.0878 375.825 81.9883L379.947 80.7579C381.423 80.3173 381.866 78.4427 380.744 77.3875L377.19 74.0449C376.267 73.1773 376.374 71.6812 377.41 70.9536L378.806 69.9738C379.364 69.5825 379.684 68.934 379.655 68.2535L377.736 23.0997C377.699 22.242 378.215 21.4568 379.017 21.1493L430.478 1.40671C431.445 1.03585 432.535 1.46482 432.989 2.39509L439.668 16.0625C439.871 16.4794 439.924 16.9543 439.815 17.4056L438.358 23.483C438.188 24.1932 438.419 24.9398 438.96 25.43L453.263 38.3825C453.95 39.0042 454.974 39.0726 455.737 38.5477L465.627 31.7456C466.288 31.2908 467.157 31.2757 467.834 31.7073L471.028 33.7451C471.383 33.9713 471.657 34.3036 471.812 34.6946L478.946 52.7246C479.191 53.3437 479.729 53.8002 480.379 53.9418L492.826 56.651C493.528 56.8037 494.094 57.3215 494.308 58.0072L498.525 71.4955C499.047 73.1645 501.309 73.4056 502.171 71.8841L502.42 71.4442C502.778 70.8125 503.45 70.4245 504.176 70.4309L508.143 70.4654C508.75 70.4707 509.327 70.1995 509.71 69.7283L510.965 68.1854C511.349 67.7143 511.926 67.443 512.533 67.4483L517.199 67.489C517.877 67.4949 518.506 67.8444 518.869 68.4171L524.397 77.136C524.717 77.6401 525.27 77.9477 525.867 77.9529C527.14 77.964 527.98 79.2808 527.453 80.4392L524.085 87.8506C523.782 88.5174 523.868 89.2964 524.309 89.881L528.931 96.0057C529.362 96.5769 529.455 97.335 529.174 97.9932L527.392 102.171C526.924 103.27 527.518 104.532 528.664 104.871L530.774 105.494L542.376 105.595C542.771 105.599 543.158 105.485 543.488 105.269L555.563 97.3617C555.769 97.227 555.948 97.0555 556.092 96.8558L560.197 91.1408C561.272 89.6438 563.628 90.2769 563.808 92.1112L566.478 119.297C566.578 120.313 567.428 121.091 568.45 121.1L574.982 121.157C575.512 121.161 576.019 121.376 576.39 121.755L578.402 123.804C578.684 124.092 579.047 124.287 579.442 124.365L587.788 126.007C588.299 126.107 588.751 126.404 589.047 126.833L599.45 141.908C599.819 142.444 600.426 142.766 601.077 142.772L608.604 142.837C608.99 142.841 609.368 142.733 609.693 142.526L618.352 137.024C619.108 136.543 620.091 136.625 620.758 137.222L633.326 148.491C634.132 149.213 635.365 149.163 636.11 148.378L642.025 142.144C642.783 141.344 644.047 141.31 644.847 142.067L650.66 147.566C651.363 148.231 652.441 148.297 653.219 147.723L655.07 146.358C656.001 145.672 657.317 145.916 657.94 146.89L674.273 172.445C674.637 173.014 675.263 173.361 675.939 173.367L677.997 173.385C678.699 173.391 679.353 173.028 679.719 172.429L682.254 168.282C682.62 167.683 683.274 167.32 683.976 167.326L686.899 167.352C687.429 167.357 687.936 167.572 688.308 167.95L693.39 173.128C693.644 173.386 693.963 173.571 694.314 173.662L704.942 176.42C705.579 176.585 706.256 176.427 706.753 175.995L714.792 169.018C715.669 168.257 717.008 168.401 717.703 169.331L725.395 179.623C725.814 180.184 726.496 180.484 727.192 180.416L742.713 178.888C743.018 178.858 743.326 178.898 743.613 179.007L759.522 185.003C760.569 185.398 761.088 186.577 760.672 187.616L729.158 266.273C729.042 266.563 728.995 266.875 729.022 267.186L731.68 298.297C731.726 298.827 731.558 299.353 731.214 299.759L729.449 301.841C728.968 302.409 728.842 303.196 729.122 303.885L731.214 309.036C731.486 309.707 731.374 310.474 730.92 311.039L722.877 321.057C722.568 321.441 722.13 321.697 721.644 321.778L710.682 323.588C709.458 323.79 708.348 322.839 708.359 321.599L708.386 318.476L694.998 320.032C694.22 320.123 693.566 320.66 693.326 321.405L691.143 328.19C690.826 329.175 691.314 330.24 692.268 330.643L698.189 333.144C699.495 333.696 699.827 335.394 698.825 336.397L665.168 370.068C664.797 370.439 664.587 370.94 664.583 371.464L664.454 386.261C664.449 386.824 664.207 387.358 663.788 387.733L644.685 404.816C644.335 405.128 644.107 405.554 644.039 406.018L642.195 418.726L647.758 421.571C648.721 422.064 649.117 423.234 648.651 424.211L645.247 431.351C645.173 431.506 645.079 431.651 644.968 431.782L638.64 439.251C637.545 440.543 638.453 442.526 640.147 442.541L648.45 442.613C649 442.618 649.528 442.396 649.909 441.999L658.3 433.258C659.103 432.423 659.028 431.082 658.138 430.34L655.396 428.053C654.307 427.146 654.483 425.425 655.733 424.756L659.415 422.787C659.71 422.63 660.04 422.548 660.374 422.551L665.618 422.597C666.225 422.602 666.802 422.331 667.185 421.86L670.909 417.283C671.292 416.812 671.869 416.541 672.476 416.546L686.495 416.668C687.062 416.673 687.6 416.919 687.975 417.343L691.996 421.895C692.503 422.469 692.637 423.283 692.341 423.99L687.702 435.067C687.404 435.777 687.541 436.595 688.054 437.169L704.14 455.196C704.826 455.965 704.815 457.13 704.114 457.886L692.937 469.927C692.598 470.292 692.408 470.771 692.403 471.269L692.362 476.008C692.355 476.751 692.762 477.436 693.417 477.787L704.046 483.479C704.701 483.829 705.107 484.515 705.1 485.258L705.059 490.028C705.055 490.507 705.223 490.972 705.533 491.337L715.641 503.263C716.178 503.896 716.267 504.795 715.866 505.521L708.725 518.448C708.558 518.751 708.315 519.005 708.021 519.185L698.778 524.857C698.693 524.909 698.604 524.955 698.512 524.994L680.269 532.719L686.078 538.635C686.238 538.799 686.369 538.988 686.465 539.196L691.337 549.729C691.576 550.245 692.023 550.635 692.566 550.801L706.724 555.135C707.57 555.394 708.145 556.179 708.137 557.063L708.045 567.627C708.035 568.731 707.133 569.618 706.029 569.608L705.676 569.605C704.88 569.598 704.156 570.064 703.833 570.791L698.508 582.763C698.273 583.291 698.279 583.895 698.522 584.418L704.056 596.317C704.106 596.425 704.146 596.537 704.176 596.651L707.375 608.808C707.561 609.514 708.117 610.063 708.825 610.239L734.989 616.744C735.445 616.857 735.927 616.806 736.349 616.599L747.563 611.109C748.483 610.658 749.595 610.976 750.137 611.846L752.72 615.989C753.133 616.65 753.123 617.491 752.694 618.143L741.56 635.094C741.221 635.608 741.14 636.25 741.338 636.834L744.63 646.52C744.951 647.464 744.526 648.501 743.635 648.949L722.044 659.796C721.555 660.041 721.188 660.477 721.029 661.001L718.57 669.11C718.312 669.959 717.527 670.536 716.64 670.528L708.589 670.458C707.729 670.451 706.961 670.995 706.682 671.809L703.857 680.049C703.579 680.863 702.81 681.407 701.95 681.4L695.101 681.34C694.548 681.335 694.018 681.56 693.637 681.96L686.408 689.545C685.633 690.359 685.68 691.651 686.513 692.405L688.37 694.086C689.386 695.007 689.194 696.655 687.994 697.317L670.96 706.714C670.864 706.767 670.764 706.812 670.662 706.848L650.941 713.833C650.722 713.911 650.49 713.949 650.257 713.947L640.289 713.86C639.856 713.857 639.436 713.712 639.093 713.45L630.307 706.733C630.053 706.539 629.755 706.408 629.44 706.353L605.988 702.229C605.026 702.06 604.327 701.221 604.336 700.244L604.405 692.325C604.414 691.221 603.527 690.319 602.424 690.309L585.515 690.162C584.757 690.155 584.069 689.721 583.737 689.041L582.346 686.194C581.794 685.065 580.348 684.719 579.345 685.478L573.835 689.645C573.483 689.911 573.053 690.053 572.612 690.049L559.42 689.934C558.317 689.925 557.43 689.022 557.439 687.919L557.46 685.551C557.469 684.551 556.738 683.699 555.749 683.556L530.65 679.906L525.799 674.416C525.424 673.991 524.886 673.745 524.319 673.74L513.553 673.647C513.192 673.643 512.838 673.738 512.526 673.92L478.22 694.002C478.093 694.076 477.974 694.164 477.867 694.264L455.339 715.259C454.898 715.67 454.666 716.258 454.708 716.859L457.353 755.041L459.565 767.612C459.851 769.237 458.156 770.489 456.688 769.738L448.892 765.75C448.392 765.495 447.807 765.461 447.281 765.659L432.795 771.091C432.398 771.24 432.058 771.512 431.825 771.868L427.689 778.186C427.093 779.098 425.877 779.363 424.954 778.784L404.173 765.731C403.437 765.269 402.487 765.335 401.822 765.895L387.553 777.925C386.599 778.729 385.149 778.472 384.53 777.388L377.871 765.729C377.518 765.111 376.864 764.728 376.153 764.721L367.763 764.648C366.43 764.637 365.481 763.347 365.869 762.07L367.784 755.755C368.05 754.878 367.686 753.934 366.901 753.462L359.176 748.822C358.425 748.371 357.468 748.461 356.815 749.045L352.659 752.762C351.827 753.506 350.547 753.424 349.816 752.58L342.671 744.33C342.295 743.896 341.751 743.645 341.178 743.64L333.446 743.572C332.743 743.566 332.096 743.192 331.74 742.587L329.143 738.166C328.863 737.69 328.4 737.351 327.862 737.229L302.662 731.515C301.573 731.268 300.493 731.962 300.264 733.055L298.467 741.661C298.272 742.593 297.446 743.259 296.493 743.25L274.261 743.057C273.904 743.053 273.555 742.955 273.249 742.771L264.284 737.386C263.725 737.051 263.038 737.009 262.443 737.273L252.004 741.914C250.897 742.406 249.61 741.808 249.273 740.645L246.63 731.537C246.457 730.941 246.017 730.459 245.439 730.233L233.58 725.592Z" fill="#316E83"/>
<path d="M772.535 662.461L774.185 648.692C774.346 647.349 775.766 646.551 776.997 647.111L778.801 647.933C779.519 648.26 779.978 648.979 779.971 649.769L779.845 664.201C779.844 664.305 779.835 664.409 779.818 664.512L778.052 675.104C777.962 675.645 778.098 676.199 778.428 676.636L783.537 683.406C783.802 683.757 783.944 684.186 783.94 684.627L783.818 698.613L783.558 728.414C783.554 728.898 783.375 729.363 783.053 729.725L771.198 743.051C770.821 743.475 770.642 744.039 770.706 744.603L773.359 768.083C773.411 768.544 773.301 769.009 773.048 769.397L759.806 789.753C759.434 790.325 758.796 790.667 758.113 790.661L755.713 790.64C754.61 790.631 753.723 789.728 753.732 788.625L753.757 785.857C753.764 785.044 753.278 784.308 752.527 783.995L734.909 776.651C734.517 776.487 734.187 776.202 733.967 775.838L730.664 770.358C730.042 769.327 730.468 767.983 731.571 767.498L737.687 764.807C739.263 764.113 739.282 761.884 737.719 761.163L729.587 757.414L726.352 755.433C725.066 754.645 725.083 752.772 726.382 752.007L731.988 748.706C732.455 748.431 732.79 747.977 732.917 747.45L733.923 743.254C734.255 741.869 733.074 740.592 731.668 740.814L724.075 742.013C723.773 742.06 723.464 742.038 723.172 741.948L720.816 741.218C719.351 740.764 718.922 738.896 720.043 737.849L727.809 730.592C728.806 729.66 728.596 728.024 727.396 727.374L720.396 723.586C719.838 723.284 719.456 722.735 719.368 722.108L718.005 712.435C717.875 711.518 718.394 710.632 719.257 710.295L723.223 708.746C724.762 708.146 724.949 706.044 723.54 705.181L720.312 703.204C719.125 702.477 719.027 700.789 720.12 699.929L726.329 695.045C726.806 694.67 727.087 694.098 727.092 693.492L727.185 682.854C727.191 682.098 727.625 681.41 728.304 681.077L756.95 667.05C757.515 666.773 758.178 666.779 758.739 667.065L769.554 672.597C770.877 673.274 772.449 672.321 772.462 670.836L772.535 662.461Z" fill="#316E83"/>
<path d="M233.58 725.592L219.22 729.878C218.315 730.149 217.344 729.748 216.893 728.918L209.084 714.554C208.811 714.052 208.336 713.69 207.779 713.561L176.917 706.413C176.202 706.248 175.649 705.699 175.375 705.019C174.248 702.213 171.559 698.829 167.25 701.793C161.108 706.017 161.172 698.684 167.303 695.682C173.433 692.68 160.759 676.071 151.555 681.49C144.716 685.517 142.715 678.304 142.499 673.339C142.469 672.657 142.83 672.026 143.409 671.664L162.075 660C162.499 659.736 162.808 659.322 162.942 658.84L185.351 578.156C185.398 577.987 185.423 577.813 185.424 577.639L185.603 557.127C188.454 533.524 195.135 486.081 199.05 485.137C203.943 483.958 203.901 488.846 210.53 498.681C217.159 508.516 219.553 514.036 219.526 517.091C219.499 520.147 221.213 533.605 226.107 532.426C231.001 531.246 222.684 504.898 219.686 498.761C216.687 492.624 196.094 474.112 191.237 471.014C186.381 467.916 191.901 464.909 195.6 460.664C198.389 457.464 202.17 448.232 203.993 443.269C204.194 442.722 204.139 442.116 203.85 441.609L196.358 428.491C196.061 427.97 196.013 427.343 196.228 426.783L199.636 417.923M233.58 725.592L259.13 683.203C259.425 682.713 259.496 682.119 259.325 681.573L253.442 662.812C253.209 662.072 252.57 661.532 251.8 661.429L241.63 660.067C240.158 659.869 239.408 658.193 240.242 656.964L246.815 647.279C246.992 647.017 247.105 646.717 247.144 646.403L248.927 632.037C249.007 631.393 249.395 630.827 249.968 630.521L254.944 627.86C255.485 627.571 256.129 627.546 256.69 627.793L262.791 630.473C263.674 630.861 264.707 630.564 265.249 629.766L266.471 627.965C266.678 627.659 266.966 627.417 267.302 627.265L273.994 624.244C274.481 624.024 275.036 624.009 275.534 624.201L278.95 625.518C279.385 625.685 279.863 625.695 280.305 625.547L296.798 620.015C297.175 619.888 297.582 619.877 297.965 619.983L305.4 622.037C306.088 622.227 306.825 622.036 307.333 621.536L321.461 607.637C322.09 607.019 322.239 606.062 321.828 605.282L318.857 599.641C318.523 599.007 318.554 598.242 318.939 597.637L320.305 595.491C320.91 594.54 322.182 594.278 323.114 594.912L324.551 595.889C324.878 596.111 325.263 596.231 325.658 596.235L327.703 596.253C329.087 596.265 330.064 594.901 329.607 593.595L325.577 582.075C325.336 581.384 325.491 580.616 325.982 580.074L354.877 548.171C355.206 547.808 355.39 547.337 355.394 546.847L355.444 541.051C355.454 539.948 356.356 539.061 357.46 539.071L366.379 539.148C366.82 539.152 367.247 539.302 367.595 539.574L374.307 544.836C374.714 545.156 375.229 545.304 375.743 545.252L396.936 543.081M233.58 725.592L245.439 730.233C246.017 730.459 246.457 730.941 246.63 731.537L249.273 740.645C249.61 741.808 250.897 742.406 252.004 741.914L262.443 737.273C263.038 737.009 263.725 737.051 264.284 737.386L273.249 742.771C273.555 742.955 273.904 743.053 274.261 743.057L296.493 743.25C297.446 743.259 298.272 742.593 298.467 741.661L300.264 733.055C300.493 731.962 301.573 731.268 302.662 731.515L327.862 737.229C328.4 737.351 328.863 737.69 329.143 738.166L331.74 742.587C332.096 743.192 332.743 743.566 333.446 743.572L341.178 743.64C341.751 743.645 342.295 743.896 342.671 744.33L349.816 752.58C350.547 753.424 351.827 753.506 352.659 752.762L356.815 749.045C357.468 748.461 358.425 748.371 359.176 748.822L366.901 753.462C367.686 753.934 368.05 754.878 367.784 755.755L365.869 762.07C365.481 763.347 366.43 764.637 367.763 764.648L376.153 764.721C376.864 764.728 377.518 765.111 377.871 765.729L384.53 777.388C385.149 778.472 386.599 778.729 387.553 777.925L401.822 765.895C402.487 765.335 403.437 765.269 404.173 765.731L424.954 778.784C425.877 779.363 427.093 779.098 427.689 778.186L431.825 771.868C432.058 771.512 432.398 771.24 432.795 771.091L447.281 765.659C447.807 765.461 448.392 765.495 448.892 765.75L456.688 769.738C458.156 770.489 459.851 769.237 459.566 767.612L457.353 755.041L454.708 716.859C454.666 716.258 454.898 715.67 455.339 715.259L477.867 694.264C477.974 694.164 478.093 694.076 478.22 694.002L512.526 673.92C512.838 673.738 513.192 673.643 513.553 673.647L524.319 673.74C524.886 673.745 525.424 673.991 525.799 674.416L530.65 679.906M199.636 417.923C201.481 416.31 206.391 413.216 211.27 413.747C215.75 414.235 222.615 416.495 226.221 417.83C226.782 418.038 227.405 417.991 227.926 417.696L234.928 413.718C235.981 413.121 235.564 411.515 234.354 411.504V411.504C233.739 411.499 233.23 411.023 233.183 410.41L230.567 375.929C230.541 375.594 230.431 375.27 230.247 374.988L220.844 360.599C219.913 359.172 221.078 357.309 222.768 357.523L237.871 359.435C238.681 359.538 239.472 359.138 239.869 358.424L242.356 353.953C242.712 353.314 243.388 352.92 244.12 352.926L265.212 353.11M199.636 417.923L195.794 419.805C195.139 420.126 194.36 420.064 193.764 419.644L161.742 397.081C161.492 396.905 161.286 396.674 161.139 396.405L144.505 365.925C144.155 365.284 144.183 364.503 144.577 363.889L153.432 350.078C154.007 349.182 153.778 347.992 152.911 347.373L148.512 344.233C148.432 344.176 148.348 344.125 148.261 344.08L142.184 340.972C141.02 340.377 140.732 338.842 141.601 337.865L143.7 335.505C144.022 335.144 144.201 334.678 144.205 334.195L144.251 329C144.26 327.896 145.163 327.009 146.266 327.019L156.056 327.104C156.332 327.107 156.605 327.17 156.855 327.289V327.289C158.73 328.185 160.469 325.842 159.07 324.307L158.321 323.486C157.947 323.075 157.418 322.838 156.862 322.834L143.913 322.721C143.383 322.716 142.872 322.923 142.494 323.294L137.317 328.388C136.714 328.981 135.804 329.13 135.043 328.761L125.702 324.232C125.113 323.946 124.702 323.391 124.6 322.745L123.765 317.448C123.665 316.811 123.878 316.165 124.338 315.712L130.378 309.77M410.857 416.71L382.127 412.933C381.418 412.84 380.712 413.134 380.278 413.703L378.018 416.665C377.562 417.263 376.809 417.554 376.07 417.418L364.791 415.353C363.89 415.188 362.991 415.658 362.612 416.492L361.418 419.119C361.037 419.959 360.13 420.429 359.224 420.255L354.272 419.309C354.134 419.283 353.999 419.242 353.869 419.187L344.957 415.423C344.212 415.108 343.73 414.374 343.737 413.564L343.775 409.157C343.78 408.541 343.501 407.957 343.018 407.574L328.18 395.812C327.697 395.429 327.418 394.845 327.423 394.229L327.485 387.154C327.488 386.824 327.409 386.498 327.255 386.206L315.598 364.073C315.174 363.27 314.262 362.852 313.377 363.058L298.75 366.458C297.816 366.675 296.859 366.198 296.471 365.322L294.294 360.415C294.197 360.196 294.061 359.996 293.893 359.826L288.072 353.895C287.7 353.517 287.193 353.302 286.663 353.297L265.212 353.11M410.857 416.71L414.895 423.779C415.008 423.978 415.155 424.155 415.329 424.304L426.031 433.487C426.385 433.791 426.621 434.208 426.699 434.668L430.435 456.601C430.562 457.35 430.254 458.107 429.64 458.553L418.116 466.925C417.229 467.57 417.027 468.809 417.664 469.702L421.02 474.407C421.228 474.699 421.354 475.042 421.384 475.4L423.885 505.273C423.994 506.585 422.828 507.642 421.533 507.405L413.046 505.851C411.64 505.594 410.427 506.853 410.736 508.249L411.649 512.375C411.775 512.942 411.647 513.536 411.3 514.002L405.144 522.253C405.083 522.334 405.029 522.421 404.981 522.511L397.213 537.151C397.063 537.434 396.983 537.749 396.98 538.07L396.936 543.081M410.857 416.71L414.796 409.537C415.054 409.068 415.489 408.721 416.005 408.576L428.444 405.061C429.299 404.82 429.891 404.044 429.899 403.156L429.949 397.424C429.956 396.621 430.443 395.901 431.185 395.594L457.529 384.729M396.936 543.081L401.537 558.526C401.631 558.844 401.646 559.181 401.578 559.505L399.273 570.54C399.182 570.974 399.239 571.427 399.434 571.825L400.495 573.998C401.038 575.108 402.448 575.465 403.453 574.747L407.622 571.766C408.049 571.461 408.579 571.336 409.098 571.419L419.117 573.013C419.938 573.143 420.753 572.752 421.166 572.031L433.332 550.757C434.018 549.559 435.683 549.4 436.583 550.448L438.377 552.537C438.753 552.974 439.299 553.228 439.875 553.233L443.855 553.268C444.603 553.274 445.284 553.697 445.621 554.364L452.202 567.377C452.957 568.87 455.104 568.829 455.801 567.308L461.923 553.951C462.08 553.609 462.33 553.318 462.645 553.112L474.653 545.248C475.772 544.515 477.281 545.067 477.663 546.349L480.82 556.947C481.218 558.283 482.828 558.811 483.94 557.97L488.384 554.609C489.116 554.055 490.132 554.072 490.846 554.649L506.82 567.56C507.076 567.767 507.276 568.033 507.404 568.336L520.764 599.904C520.896 600.217 521.107 600.492 521.375 600.701L529.892 607.339C530.683 607.955 531.807 607.89 532.522 607.187L538.32 601.483C538.899 600.914 539.765 600.751 540.511 601.072L558.13 608.65M130.378 309.77L139.422 306.465C139.906 306.288 140.44 306.305 140.912 306.512L146.258 308.861C147.475 309.396 148.866 308.615 149.042 307.297L150.528 296.187C150.605 295.612 150.928 295.098 151.414 294.78L159.283 289.627C159.656 289.383 160.099 289.27 160.543 289.307L175.447 290.543C176.008 290.59 176.563 290.397 176.975 290.014L186.976 280.693C187.601 280.11 188.528 279.99 189.281 280.394L199.992 286.129C200.494 286.398 201.087 286.44 201.621 286.245L204.38 285.236C205.162 284.951 205.685 284.21 205.692 283.377L205.708 281.566C205.711 281.256 205.785 280.951 205.926 280.675L211.982 268.811C212.326 268.137 213.022 267.715 213.779 267.722L214.039 267.724C215.206 267.734 216.134 266.746 216.05 265.582L214.607 245.601C214.584 245.284 214.637 244.966 214.762 244.674L217.576 238.076C217.65 237.901 217.699 237.718 217.722 237.529L219.663 221.331M130.378 309.77L129.06 304.287C128.809 303.245 127.78 302.586 126.729 302.795L111.644 305.782C111.151 305.88 110.64 305.788 110.212 305.526L108.025 304.186C106.657 303.348 106.784 301.321 108.246 300.661L110.953 299.439C111.958 298.985 112.406 297.802 111.953 296.797L110.358 293.257C109.787 291.989 108.126 291.678 107.135 292.654L102.184 297.524C101.58 298.119 100.666 298.267 99.9047 297.895L47.3518 272.194C46.7953 271.922 46.3965 271.407 46.2721 270.801L45.0372 264.775C44.848 263.852 44.0395 263.187 43.0971 263.178L35.1644 263.109C34.6341 263.105 34.1237 263.311 33.7457 263.683L28.1537 269.184C27.7757 269.556 27.2653 269.762 26.735 269.758L19.8664 269.698C18.9973 269.69 18.2327 269.122 17.9753 268.291L13.8206 254.893C13.7138 254.548 13.5159 254.239 13.2479 253.998L6.35604 247.803C5.1272 246.699 5.69376 244.665 7.31671 244.354L23.6877 241.225C25.3417 240.909 25.8869 238.814 24.597 237.732L18.4639 232.585C17.8836 232.098 17.0779 231.981 16.3831 232.283L13.8209 233.396C12.8141 233.834 11.6431 233.377 11.198 232.374L9.18406 227.834C9.06851 227.573 9.01001 227.291 9.01249 227.006L9.03347 224.6C9.03809 224.07 9.25275 223.564 9.63029 223.192L10.0132 222.816C11.0215 221.824 12.713 222.165 13.2583 223.47L13.4049 223.821C13.7132 224.559 14.4317 225.042 15.2313 225.049L23.1482 225.118C24.1158 225.126 24.907 224.349 24.9154 223.381V223.381C24.9222 222.607 24.4209 221.921 23.682 221.692L20.2586 220.631C19.4159 220.37 18.8442 219.587 18.8518 218.705L18.867 216.965C18.8775 215.76 17.8268 214.82 16.6302 214.964L2.7948 216.628C1.41277 216.795 0.288434 215.532 0.612938 214.179L3.52492 202.031C3.66383 201.452 4.05413 200.965 4.58931 200.703L25.407 190.509C26.3329 190.055 27.4516 190.381 27.9899 191.26L29.182 193.207C29.6848 194.028 30.702 194.374 31.6012 194.029L45.6722 188.637C46.5604 188.296 47.5655 188.629 48.0748 189.433L52.4314 196.303C53.1341 197.411 54.6959 197.553 55.5865 196.589L58.9856 192.911C59.5801 192.268 60.5242 192.087 61.3146 192.465L68.7036 195.995C68.9673 196.121 69.2554 196.188 69.5477 196.19L71.3785 196.206C72.4821 196.216 73.3845 195.329 73.3941 194.226L73.4094 192.469C73.4124 192.127 73.5036 191.79 73.6741 191.493L78.1401 183.705C78.6306 182.849 79.6719 182.48 80.5921 182.834L83.1022 183.802C83.588 183.989 84.1277 183.979 84.6064 183.774L92.4081 180.438C93.1651 180.115 94.043 180.288 94.6197 180.876L95.1597 181.426C95.7201 181.997 96.567 182.178 97.3122 181.887L99.4584 181.05C100.776 180.535 102.195 181.515 102.183 182.929L102.169 184.549C102.164 185.137 102.417 185.696 102.862 186.08L109.711 191.984C109.926 192.17 110.099 192.399 110.219 192.657L120.359 214.517C120.901 215.687 122.393 216.044 123.407 215.247L141.341 201.139C142.217 200.45 143.488 200.611 144.165 201.498L150.791 210.181C151.165 210.672 151.745 210.962 152.362 210.967L155.49 210.994C156.593 211.004 157.496 210.117 157.505 209.014L157.528 206.377C157.536 205.5 158.115 204.73 158.955 204.48L170.861 200.926C172.149 200.541 173.442 201.513 173.43 202.858L173.377 208.986C173.367 210.152 174.354 211.079 175.517 210.996L188.629 210.061M219.663 221.331L232.582 228.532C232.874 228.695 233.203 228.782 233.537 228.785L245.373 228.888C245.684 228.891 245.991 228.821 246.269 228.685L254.004 224.897C254.283 224.761 254.59 224.691 254.9 224.694L258.661 224.726C259.084 224.73 259.497 224.6 259.84 224.354L265.079 220.61C265.687 220.175 266.486 220.116 267.151 220.456L271.178 222.516C271.781 222.825 272.187 223.418 272.256 224.092L272.603 227.49C272.669 228.133 273.042 228.705 273.605 229.024L277.4 231.179C277.878 231.45 278.172 231.96 278.167 232.51V232.51C278.158 233.561 279.197 234.302 280.188 233.951L297.096 227.963C297.858 227.693 298.708 227.909 299.248 228.51L304.486 234.33C304.82 234.702 305.003 235.185 304.999 235.684L304.92 244.648C304.914 245.417 305.349 246.122 306.04 246.46L325.576 256.023M219.663 221.331L207.763 217.815C207.201 217.649 206.593 217.738 206.102 218.06L197.721 223.549C196.715 224.207 195.359 223.835 194.831 222.754L188.629 210.061M265.212 353.11L283.641 330.531C283.895 330.22 284.05 329.839 284.084 329.438L285.332 314.868C285.37 314.42 285.558 313.999 285.865 313.671L291.842 307.301C292.41 306.697 293.291 306.505 294.058 306.82L297.523 308.243C298.324 308.572 299.247 308.347 299.807 307.686L301.346 305.87C301.729 305.417 302.294 305.158 302.888 305.163L308.352 305.211C308.938 305.216 309.497 304.964 309.88 304.521L322.977 289.399C323.288 289.04 323.461 288.583 323.465 288.108L323.501 283.967C323.508 283.211 323.941 282.523 324.621 282.19L327.214 280.92C327.941 280.564 328.382 279.804 328.329 278.996L327.409 264.891C327.366 264.224 327.658 263.579 328.189 263.173L330.304 261.556C331.484 260.654 331.303 258.826 329.969 258.174L325.576 256.023M188.629 210.061L196.244 210.128C198.074 210.143 198.961 207.894 197.612 206.657L189.99 199.669C189.573 199.286 189.338 198.745 189.343 198.179L189.661 161.655C189.664 161.345 189.594 161.039 189.458 160.761L174.279 129.695C174.143 129.417 174.073 129.111 174.076 128.801L174.16 119.208C174.162 118.994 174.198 118.781 174.268 118.578L175.86 113.932C176.274 112.722 177.703 112.207 178.794 112.876L191.194 120.471C191.615 120.729 192.117 120.822 192.602 120.732L211.961 117.139C213.02 116.942 214.044 117.62 214.276 118.671L215.392 123.712C215.535 124.358 215.349 125.034 214.894 125.515L208.611 132.172C208.015 132.803 207.895 133.746 208.314 134.507L216.911 150.123C217.617 151.406 219.417 151.519 220.278 150.335L223.768 145.533C224.269 144.842 225.155 144.547 225.971 144.797L269.02 158.019C269.434 158.146 269.879 158.135 270.286 157.988L304.567 145.58C306.55 144.863 306.213 141.962 304.119 141.717L292.422 140.348C291.157 140.199 290.351 138.921 290.764 137.715L295.937 122.621C296.12 122.087 296.521 121.655 297.04 121.432L366.075 91.8368M366.075 91.8368L374.95 82.5245C375.19 82.2726 375.492 82.0878 375.825 81.9883L379.947 80.7579C381.423 80.3173 381.866 78.4427 380.744 77.3875L377.19 74.0449C376.267 73.1773 376.374 71.6812 377.41 70.9536L378.806 69.9738C379.364 69.5825 379.684 68.934 379.655 68.2535L377.736 23.0997C377.699 22.242 378.215 21.4568 379.017 21.1493L430.478 1.40671C431.445 1.03585 432.535 1.46482 432.989 2.39509L439.668 16.0625C439.871 16.4794 439.924 16.9543 439.815 17.4056L438.358 23.483C438.188 24.1932 438.419 24.9398 438.96 25.43L453.263 38.3825C453.95 39.0042 454.974 39.0726 455.737 38.5477L465.627 31.7456C466.288 31.2908 467.157 31.2757 467.834 31.7073L471.028 33.7451C471.383 33.9713 471.657 34.3036 471.812 34.6946L478.946 52.7246C479.191 53.3438 479.729 53.8002 480.379 53.9418L492.826 56.651C493.528 56.8037 494.094 57.3215 494.308 58.0072L498.525 71.4955C499.047 73.1645 501.309 73.4056 502.171 71.8841L502.42 71.4442C502.778 70.8125 503.45 70.4245 504.176 70.4309L508.143 70.4654C508.75 70.4707 509.327 70.1995 509.71 69.7283L510.965 68.1854C511.349 67.7143 511.926 67.443 512.533 67.4483L517.199 67.489C517.877 67.4949 518.506 67.8444 518.869 68.4171L524.397 77.136C524.717 77.6401 525.27 77.9477 525.867 77.9529V77.9529C527.14 77.964 527.98 79.2808 527.453 80.4392L524.085 87.8506C523.782 88.5174 523.868 89.2964 524.309 89.881L528.931 96.0057C529.362 96.5769 529.455 97.335 529.174 97.9932L527.392 102.171C526.924 103.27 527.518 104.532 528.664 104.871L530.774 105.494M366.075 91.8368L384.754 103.751C385.23 104.055 385.555 104.545 385.649 105.102L388.23 120.336C388.339 120.98 388.127 121.636 387.661 122.094L383.84 125.853C383.251 126.432 383.079 127.315 383.408 128.072L385.088 131.946C385.199 132.203 385.255 132.479 385.253 132.759L385.15 144.556L385.104 149.841C385.102 149.983 385.116 150.125 385.145 150.265L387.666 162.38C387.874 163.379 387.296 164.374 386.326 164.688L385.276 165.028L382.522 165.921M530.774 105.494L530.622 122.998C530.617 123.528 530.402 124.034 530.025 124.405L521.24 133.047C520.931 133.352 520.729 133.749 520.665 134.179L517.773 153.766C517.628 154.752 516.777 155.481 515.779 155.472L511.129 155.431C510.914 155.429 510.701 155.462 510.496 155.529L497.766 159.653C496.818 159.96 496.241 160.919 496.414 161.901L498.827 175.612C498.948 176.296 498.704 176.994 498.184 177.455L493.795 181.34C493.228 181.842 492.993 182.622 493.189 183.354L495.491 191.939C495.695 192.697 495.435 193.505 494.828 194.002L484.758 202.254M530.774 105.494L542.376 105.595C542.771 105.599 543.158 105.485 543.488 105.269L555.563 97.3617C555.769 97.227 555.948 97.0555 556.092 96.8558L560.197 91.1408C561.272 89.6438 563.628 90.2769 563.808 92.1112L566.478 119.297C566.578 120.313 567.428 121.091 568.45 121.1L574.982 121.157C575.512 121.161 576.019 121.376 576.39 121.755L578.402 123.804C578.684 124.092 579.047 124.287 579.442 124.365L587.788 126.007C588.299 126.107 588.751 126.404 589.047 126.833L599.45 141.908C599.819 142.444 600.426 142.766 601.077 142.772L608.604 142.837C608.99 142.841 609.368 142.733 609.693 142.526L618.352 137.024C619.108 136.543 620.091 136.625 620.758 137.222L633.326 148.491C634.132 149.213 635.365 149.163 636.11 148.378L642.025 142.144C642.783 141.344 644.047 141.31 644.847 142.067L650.66 147.566C651.363 148.231 652.441 148.297 653.219 147.723L655.07 146.358C656.001 145.672 657.317 145.916 657.94 146.89L674.273 172.445C674.637 173.014 675.263 173.361 675.939 173.367L677.997 173.385C678.699 173.391 679.353 173.028 679.719 172.429L682.254 168.282C682.62 167.683 683.274 167.32 683.976 167.326L686.899 167.352C687.429 167.357 687.936 167.572 688.308 167.95L693.39 173.128C693.644 173.386 693.963 173.571 694.314 173.662L704.942 176.42C705.579 176.585 706.256 176.427 706.753 175.995L714.792 169.018C715.669 168.257 717.008 168.401 717.703 169.331L725.395 179.623C725.814 180.184 726.496 180.484 727.192 180.416L742.713 178.888C743.018 178.858 743.326 178.898 743.613 179.007L759.522 185.003C760.569 185.398 761.088 186.577 760.672 187.616L729.158 266.273C729.042 266.563 728.995 266.875 729.022 267.186L731.68 298.297C731.726 298.827 731.558 299.353 731.214 299.759L729.449 301.841C728.968 302.409 728.842 303.196 729.122 303.885L731.214 309.036C731.486 309.707 731.374 310.474 730.92 311.039L722.877 321.057C722.568 321.441 722.13 321.697 721.644 321.778L710.682 323.588C709.458 323.79 708.348 322.839 708.359 321.599L708.386 318.476M484.758 202.254L470.624 190.851C470.353 190.632 470.144 190.346 470.017 190.021L466.177 180.163C465.77 179.117 464.58 178.612 463.544 179.045L457.329 181.647C457.019 181.777 456.681 181.827 456.346 181.791L432.063 179.206C431.922 179.191 431.784 179.161 431.65 179.117L403.831 169.961C403.448 169.835 403.036 169.828 402.648 169.941L392.053 173.022C391.399 173.212 390.693 173.057 390.18 172.609L382.522 165.921M484.758 202.254L482.334 220.386C482.221 221.225 482.65 222.044 483.404 222.43L484.643 223.063C485.827 223.669 486.1 225.24 485.191 226.21L480.311 231.41C479.873 231.877 479.685 232.524 479.805 233.152L481.949 244.394M382.522 165.921L373.546 178.271C373.354 178.535 373.101 178.747 372.808 178.891L367.319 181.578C366.486 181.986 366.044 182.914 366.25 183.818L368.837 195.133M368.837 195.133L366.052 202.732C365.837 203.317 365.361 203.769 364.765 203.953L353.251 207.51C352.621 207.705 351.936 207.576 351.42 207.167L347.647 204.176C347.112 203.752 346.398 203.631 345.753 203.854L329.8 209.364C328.717 209.738 328.17 210.944 328.601 212.005L336.325 231.028C336.601 231.707 336.483 232.482 336.018 233.048L324.429 247.157C324.042 247.629 323.891 248.252 324.02 248.849L325.576 256.023M368.837 195.133L375.713 203.306C375.958 203.597 376.114 203.951 376.165 204.328L378.307 220.334C378.355 220.692 378.499 221.031 378.724 221.313L396.054 243.096C396.339 243.454 396.492 243.899 396.488 244.357L396.434 250.572C396.422 251.959 397.792 252.936 399.099 252.473L409.548 248.772C409.768 248.694 410 248.656 410.233 248.658L419.98 248.743C420.545 248.748 421.082 248.991 421.457 249.414L427.611 256.342C427.94 256.712 428.119 257.191 428.115 257.686L428.074 262.376C428.063 263.599 429.145 264.545 430.356 264.371L456.169 260.669M456.169 260.669L464.127 276.955C464.403 277.52 464.397 278.181 464.112 278.741L461.583 283.695C461.501 283.855 461.399 284.003 461.278 284.135L456.431 289.433C456.098 289.797 455.911 290.271 455.907 290.764L455.844 298.005C455.837 298.721 455.448 299.38 454.822 299.73L444.763 305.369C443.774 305.923 443.444 307.188 444.036 308.155L451.68 320.641C451.876 320.96 451.978 321.327 451.974 321.701L451.818 339.6C451.816 339.909 451.885 340.216 452.021 340.494L457.605 351.921C457.741 352.2 457.81 352.506 457.807 352.816L457.529 384.729M456.169 260.669L458.455 248.679C458.617 247.826 459.312 247.175 460.174 247.07L481.949 244.394M457.529 384.729L467.904 392.953C468.252 393.23 468.683 393.382 469.128 393.386L477.634 393.46C478.009 393.463 478.375 393.572 478.691 393.773L481.875 395.804C482.588 396.259 483.51 396.216 484.177 395.696L495.35 386.999C496.501 386.103 498.193 386.702 498.524 388.123L502.389 404.715C502.476 405.089 502.669 405.429 502.944 405.696L514.153 416.571C514.793 417.192 514.944 418.161 514.524 418.947L508.941 429.395C508.61 430.014 508.628 430.761 508.989 431.363L514.263 440.174C514.716 440.931 515.612 441.302 516.467 441.085L539.226 435.33C540.107 435.107 540.727 434.318 540.735 433.41L540.779 428.267C540.792 426.817 542.297 425.863 543.614 426.47L552.576 430.601C552.833 430.72 553.113 430.782 553.396 430.785L558.313 430.828C559.137 430.835 559.873 431.348 560.165 432.119L561.631 435.993C562.321 437.816 564.946 437.674 565.434 435.787L571.544 412.199C571.83 411.094 572.981 410.453 574.07 410.791L577.458 411.841C577.91 411.981 578.396 411.956 578.831 411.771L590.753 406.705C591.625 406.335 592.637 406.627 593.176 407.406L607.636 428.253C608.539 429.556 610.526 429.339 611.127 427.872L612.108 425.478C612.703 424.026 614.663 423.795 615.579 425.069L619.058 429.904C619.655 430.735 620.784 430.98 621.672 430.472L642.195 418.726M481.949 244.394L491.529 252.433C491.986 252.817 492.248 253.385 492.243 253.982L492.192 259.886C492.186 260.569 492.529 261.208 493.101 261.58L498.59 265.144C498.768 265.259 498.927 265.403 499.06 265.569L509.729 278.857L515.653 286.541C516.095 287.115 516.812 287.404 517.528 287.298L546.974 282.937C547.345 282.882 547.692 282.724 547.977 282.481L555.205 276.32C556.061 275.591 557.349 275.71 558.056 276.585L564.628 284.717C565.003 285.182 565.567 285.454 566.165 285.46L570.471 285.497C571.81 285.509 572.758 286.807 572.363 288.086L569.783 296.43C569.544 297.204 569.795 298.046 570.42 298.562L581.569 307.758C581.922 308.05 582.365 308.211 582.823 308.215L587.788 308.258C588.441 308.264 589.049 308.588 589.418 309.125L591.787 312.577C592.46 313.558 593.836 313.737 594.738 312.961L602.546 306.241C602.772 306.046 603.039 305.905 603.327 305.827L616.724 302.197C617.589 301.963 618.192 301.182 618.2 300.286L618.253 294.149C618.258 293.576 618.51 293.032 618.944 292.656L633.442 280.107C633.572 279.994 633.716 279.899 633.871 279.823L641.114 276.276C641.793 275.944 642.6 276.023 643.202 276.48L652.267 283.369C652.61 283.63 653.028 283.773 653.459 283.776L660.564 283.838C660.898 283.841 661.228 283.76 661.523 283.602L666.936 280.708C667.492 280.41 668.156 280.393 668.727 280.661L695.841 293.389C696.548 293.72 696.997 294.434 696.99 295.215L696.897 305.938C696.892 306.467 697.098 306.977 697.469 307.355L708.386 318.476M530.65 679.906L543.898 664.508C544.108 664.264 544.373 664.074 544.672 663.955L556.448 659.252C557.202 658.951 557.698 658.225 557.705 657.413L557.855 640.2C557.861 639.571 558.162 638.982 558.668 638.609L568.733 631.188C569.544 630.591 569.783 629.483 569.292 628.604L558.13 608.65M530.65 679.906L555.749 683.556C556.738 683.7 557.469 684.551 557.46 685.551L557.439 687.919C557.43 689.022 558.317 689.925 559.42 689.934L572.612 690.049C573.053 690.053 573.483 689.911 573.835 689.645L579.345 685.478C580.348 684.719 581.794 685.065 582.346 686.194L583.737 689.041C584.069 689.721 584.757 690.155 585.515 690.162L602.424 690.309C603.527 690.319 604.414 691.221 604.405 692.325L604.336 700.244C604.327 701.221 605.026 702.06 605.988 702.229L629.44 706.353C629.755 706.408 630.053 706.539 630.307 706.733L639.093 713.45C639.436 713.712 639.856 713.857 640.289 713.86L650.257 713.947C650.49 713.949 650.722 713.911 650.941 713.833L670.661 706.848C670.764 706.812 670.864 706.767 670.96 706.714L687.994 697.317C689.194 696.655 689.386 695.007 688.37 694.086L686.513 692.405C685.68 691.651 685.633 690.359 686.408 689.545L693.637 681.96C694.018 681.559 694.548 681.335 695.101 681.34L701.95 681.4C702.81 681.407 703.579 680.863 703.858 680.049L706.682 671.808C706.961 670.995 707.729 670.451 708.589 670.458L716.64 670.528C717.527 670.536 718.312 669.959 718.57 669.11L721.029 661.001C721.188 660.477 721.555 660.041 722.044 659.796L743.635 648.948C744.526 648.501 744.951 647.464 744.63 646.52L741.338 636.834C741.14 636.251 741.221 635.608 741.56 635.094L752.694 618.143C753.123 617.491 753.132 616.65 752.72 615.989L750.137 611.846C749.595 610.976 748.483 610.658 747.563 611.109L736.349 616.599C735.927 616.806 735.445 616.857 734.989 616.744L708.825 610.239C708.117 610.063 707.561 609.514 707.375 608.808L704.176 596.651C704.146 596.537 704.106 596.425 704.056 596.317L698.522 584.418C698.279 583.894 698.273 583.291 698.508 582.764L703.833 570.791C704.156 570.064 704.88 569.598 705.676 569.605L706.029 569.608C707.133 569.618 708.035 568.731 708.045 567.627L708.137 557.063C708.145 556.179 707.57 555.394 706.724 555.135L692.566 550.801C692.023 550.635 691.576 550.245 691.337 549.729L686.465 539.196C686.369 538.988 686.238 538.799 686.077 538.635L680.269 532.719M558.13 608.65L561.486 604.878C562.059 604.234 562.98 604.03 563.771 604.371L573.172 608.431C573.699 608.658 574.298 608.648 574.817 608.404L587.673 602.345C589.005 601.717 590.535 602.697 590.523 604.17L590.492 607.65C590.485 608.431 590.934 609.145 591.641 609.476L604.634 615.575C604.922 615.71 605.173 615.912 605.367 616.164L609.5 621.525C610.46 622.771 612.417 622.47 612.959 620.993L614.353 617.189C614.644 616.396 615.402 615.871 616.247 615.878L621.385 615.923C622.489 615.933 623.391 615.046 623.401 613.942L623.475 605.501C623.481 604.779 623.096 604.109 622.469 603.75L609.316 596.225C608.688 595.866 608.304 595.196 608.31 594.473L608.374 587.103C608.389 585.404 610.381 584.498 611.672 585.602L617.711 590.771C619.277 592.112 621.601 590.491 620.885 588.559L618.916 583.247C618.831 583.019 618.789 582.778 618.791 582.535L618.843 576.597C618.851 575.644 619.531 574.83 620.466 574.651L630.473 572.738C630.872 572.662 631.239 572.466 631.524 572.175L647.737 555.656C648.117 555.269 648.638 555.053 649.181 555.058L660.373 555.155C661.476 555.165 662.379 554.278 662.388 553.174L662.475 543.225C662.483 542.338 661.906 541.553 661.058 541.295L655.537 539.617C654.046 539.164 653.625 537.255 654.786 536.216L658.329 533.048C658.7 532.716 659.181 532.535 659.679 532.539L665.62 532.591L680.269 532.719M680.269 532.719L698.512 524.993C698.604 524.955 698.693 524.909 698.778 524.857L708.021 519.185C708.315 519.005 708.558 518.751 708.725 518.448L715.866 505.521C716.267 504.795 716.178 503.896 715.641 503.263L705.533 491.337C705.223 490.972 705.055 490.507 705.059 490.028L705.1 485.258C705.107 484.515 704.701 483.829 704.046 483.479L693.417 477.787C692.762 477.436 692.355 476.751 692.362 476.008L692.403 471.269C692.408 470.771 692.598 470.292 692.937 469.927L704.114 457.886C704.815 457.13 704.826 455.965 704.14 455.196L688.054 437.169C687.541 436.595 687.404 435.777 687.702 435.067L692.341 423.99C692.637 423.283 692.503 422.469 691.996 421.895L687.975 417.343C687.6 416.919 687.062 416.673 686.495 416.668L672.476 416.546C671.869 416.541 671.292 416.812 670.909 417.283L667.185 421.86C666.802 422.331 666.225 422.602 665.618 422.597L660.374 422.551C660.04 422.548 659.71 422.63 659.415 422.787L655.733 424.756C654.483 425.425 654.307 427.146 655.396 428.053L658.138 430.34C659.028 431.082 659.103 432.423 658.3 433.258L649.909 441.999C649.528 442.396 649 442.618 648.45 442.613L640.147 442.541C638.453 442.526 637.545 440.543 638.64 439.251L644.968 431.782C645.079 431.651 645.173 431.506 645.247 431.351L648.651 424.211C649.117 423.234 648.721 422.064 647.758 421.571L642.195 418.726M642.195 418.726L644.039 406.018C644.106 405.554 644.335 405.128 644.685 404.816L663.788 387.733C664.207 387.358 664.449 386.824 664.454 386.261L664.583 371.464C664.587 370.94 664.797 370.439 665.168 370.068L698.825 336.397C699.827 335.394 699.495 333.696 698.189 333.144L692.268 330.643C691.314 330.24 690.826 329.175 691.143 328.19L693.326 321.405C693.566 320.66 694.22 320.123 694.998 320.032L708.386 318.476M772.535 662.461L774.185 648.692C774.346 647.349 775.766 646.551 776.997 647.111L778.801 647.933C779.519 648.26 779.978 648.979 779.971 649.769L779.845 664.201C779.844 664.305 779.835 664.409 779.818 664.512L778.052 675.104C777.962 675.645 778.098 676.199 778.428 676.636L783.537 683.406C783.802 683.757 783.944 684.186 783.94 684.627L783.818 698.613L783.558 728.414C783.554 728.898 783.375 729.363 783.053 729.725L771.198 743.051C770.821 743.475 770.642 744.039 770.706 744.603L773.359 768.083C773.411 768.544 773.301 769.009 773.048 769.397L759.806 789.753C759.434 790.325 758.796 790.667 758.113 790.661L755.713 790.64C754.61 790.631 753.723 789.728 753.732 788.625L753.757 785.857C753.764 785.044 753.278 784.308 752.527 783.995L734.909 776.651C734.517 776.487 734.187 776.202 733.967 775.838L730.664 770.358C730.042 769.327 730.468 767.983 731.571 767.498L737.687 764.807C739.263 764.113 739.282 761.884 737.719 761.163L729.587 757.414L726.352 755.433C725.066 754.645 725.083 752.772 726.382 752.007L731.988 748.706C732.455 748.431 732.79 747.977 732.917 747.45L733.923 743.254C734.255 741.869 733.074 740.592 731.668 740.814L724.075 742.013C723.773 742.06 723.464 742.038 723.172 741.948L720.816 741.218C719.351 740.764 718.922 738.896 720.043 737.849L727.809 730.592C728.806 729.66 728.596 728.024 727.396 727.374L720.396 723.586C719.838 723.284 719.457 722.735 719.368 722.108L718.005 712.435C717.875 711.518 718.394 710.632 719.257 710.295L723.223 708.746C724.762 708.146 724.949 706.044 723.54 705.181L720.312 703.204C719.125 702.477 719.027 700.79 720.12 699.929L726.329 695.045C726.806 694.67 727.087 694.098 727.092 693.492L727.185 682.854C727.191 682.098 727.625 681.41 728.304 681.077L756.95 667.05C757.515 666.773 758.178 666.779 758.739 667.066L769.554 672.597C770.877 673.274 772.449 672.321 772.462 670.836L772.535 662.461Z" stroke="white" stroke-linejoin="round"/>
</svg>
