<svg width="784" height="784" viewBox="0 0 784 784" fill="none" xmlns="http://www.w3.org/2000/svg">
<path d="M236.141 722.475L221.911 726.842C221.008 727.119 220.034 726.726 219.576 725.9L211.712 711.696C211.435 711.195 210.957 710.838 210.4 710.713L179.681 703.847C178.966 703.687 178.408 703.143 178.129 702.465C176.985 699.686 174.287 696.35 170.03 699.327C163.958 703.573 163.966 696.284 170.036 693.253C176.107 690.222 163.382 673.81 154.275 679.267C147.511 683.321 145.465 676.174 145.211 671.242C145.176 670.56 145.532 669.926 146.108 669.559L164.563 657.829C164.985 657.561 165.291 657.145 165.421 656.663L187.075 576.301C187.121 576.132 187.144 575.958 187.144 575.783L187.165 555.395C189.818 531.913 196.095 484.705 199.979 483.737C204.834 482.528 204.829 487.387 211.494 497.111C218.158 506.836 220.579 512.305 220.576 515.342C220.573 518.379 222.38 531.743 227.235 530.533C232.09 529.323 223.622 503.198 220.595 497.121C217.567 491.044 196.956 472.801 192.106 469.76C187.255 466.718 192.719 463.686 196.363 459.438C199.11 456.237 202.795 447.038 204.57 442.09C204.767 441.541 204.707 440.935 204.414 440.431L196.873 427.46C196.572 426.941 196.519 426.314 196.73 425.752L200.047 416.926L196.249 418.822C195.596 419.148 194.818 419.092 194.218 418.676L162.225 396.501C161.974 396.327 161.766 396.097 161.617 395.829L144.855 365.669C144.5 365.031 144.522 364.25 144.911 363.633L153.597 349.854C154.165 348.953 153.927 347.765 153.055 347.153L148.668 344.072C148.588 344.016 148.504 343.966 148.416 343.922L142.367 340.886C141.198 340.3 140.899 338.768 141.76 337.784L143.816 335.437C144.134 335.073 144.31 334.606 144.311 334.123L144.316 328.975C144.317 327.872 145.212 326.978 146.316 326.979L156.035 326.989C156.31 326.989 156.582 327.05 156.831 327.166C158.701 328.043 160.412 325.701 159.009 324.185L158.263 323.379C157.885 322.971 157.355 322.738 156.798 322.738L143.937 322.725C143.407 322.724 142.898 322.935 142.523 323.309L137.425 328.402C136.827 329 135.918 329.156 135.155 328.793L125.848 324.369C125.257 324.088 124.842 323.536 124.735 322.89L123.867 317.644C123.762 317.008 123.97 316.36 124.426 315.904L130.38 309.956L129.03 304.528C128.772 303.488 127.738 302.837 126.688 303.053L111.733 306.135C111.241 306.236 110.729 306.148 110.299 305.889L108.138 304.589C106.764 303.761 106.876 301.733 108.333 301.062L110.982 299.841C111.984 299.379 112.422 298.194 111.961 297.191L110.362 293.712C109.78 292.448 108.118 292.15 107.134 293.133L102.268 297.994C101.669 298.593 100.756 298.749 99.992 298.382L47.573 273.246C47.0144 272.978 46.6117 272.466 46.4826 271.86L45.2123 265.896C45.0159 264.974 44.2023 264.315 43.2599 264.314L35.3894 264.306C34.859 264.306 34.3503 264.516 33.9751 264.891L28.4661 270.394C28.0909 270.769 27.5821 270.98 27.0518 270.979L20.2381 270.972C19.3689 270.971 18.6 270.409 18.3361 269.58L14.1076 256.306C13.9982 255.963 13.798 255.655 13.528 255.416L6.65105 249.329C5.41375 248.234 5.96461 246.196 7.58513 245.873L23.7847 242.647C25.4362 242.318 25.9653 240.219 24.667 239.147L18.5568 234.099C17.9728 233.617 17.1662 233.506 16.4737 233.813L13.9532 234.932C12.9499 235.377 11.7753 234.929 11.3225 233.929L9.29203 229.445C9.17447 229.186 9.1138 228.904 9.11409 228.619L9.11651 226.234C9.11705 225.705 9.3278 225.197 9.70247 224.823L10.0641 224.461C11.0647 223.462 12.7588 223.79 13.3141 225.091L13.4525 225.415C13.7665 226.15 14.4886 226.627 15.2882 226.628L23.1499 226.636C24.1117 226.637 24.8922 225.858 24.8932 224.897C24.894 224.128 24.3904 223.449 23.6542 223.227L20.252 222.202C19.4073 221.947 18.8295 221.169 18.8304 220.287L18.8322 218.579C18.8334 217.374 17.7754 216.442 16.58 216.595L2.87165 218.352C1.49094 218.529 0.35691 217.275 0.670978 215.919L3.46718 203.845C3.60163 203.265 3.98816 202.775 4.52131 202.508L25.1203 192.224C26.0426 191.764 27.1639 192.08 27.7089 192.955L28.8976 194.864C29.4068 195.681 30.4265 196.019 31.3231 195.667L45.2493 190.207C46.1349 189.86 47.1425 190.185 47.658 190.984L52.027 197.759C52.7382 198.861 54.3011 198.991 55.1842 198.02L58.5181 194.357C59.1077 193.709 60.0504 193.521 60.8436 193.892L68.2046 197.34C68.4692 197.464 68.7579 197.528 69.0501 197.529L70.8554 197.53C71.959 197.532 72.8545 196.638 72.8556 195.534L72.8574 193.804C72.8577 193.461 72.9463 193.124 73.1145 192.825L77.4873 185.062C77.9712 184.202 79.0096 183.825 79.9325 184.172L82.4207 185.109C82.9079 185.293 83.4475 185.279 83.9246 185.07L91.6416 181.7C92.3961 181.37 93.2753 181.537 93.8566 182.12L94.3861 182.651C94.9509 183.218 95.7991 183.393 96.5421 183.097L98.645 182.257C99.9582 181.733 101.386 182.701 101.384 184.115L101.382 185.702C101.382 186.29 101.64 186.848 102.088 187.228L108.934 193.039C109.15 193.223 109.325 193.451 109.447 193.707L119.685 215.342C120.237 216.507 121.732 216.853 122.739 216.048L140.435 201.906C141.306 201.209 142.578 201.361 143.262 202.242L149.903 210.808C150.281 211.296 150.863 211.581 151.48 211.582L154.572 211.585C155.675 211.586 156.571 210.693 156.572 209.589L156.574 206.989C156.575 206.112 157.148 205.338 157.986 205.08L169.769 201.464C171.054 201.07 172.355 202.032 172.353 203.377L172.347 209.439C172.346 210.605 173.34 211.524 174.503 211.433L187.515 210.404L195.053 210.411C196.884 210.413 197.753 208.157 196.394 206.93L188.793 200.068C188.373 199.688 188.133 199.148 188.134 198.582L188.17 162.285C188.171 161.975 188.099 161.67 187.961 161.392L172.638 130.636C172.5 130.359 172.428 130.053 172.428 129.743L172.438 120.213C172.438 119.998 172.473 119.785 172.541 119.582L174.082 114.967C174.488 113.754 175.913 113.229 177.008 113.889L189.375 121.333C189.798 121.588 190.3 121.677 190.785 121.583L209.983 117.866C211.041 117.662 212.07 118.332 212.311 119.381L213.454 124.365C213.602 125.011 213.421 125.688 212.97 126.173L206.786 132.826C206.195 133.461 206.083 134.406 206.507 135.163L215.158 150.595C215.874 151.872 217.675 151.971 218.526 150.78L221.942 146.003C222.439 145.309 223.322 145.007 224.14 145.251L267.018 158.059C267.433 158.183 267.878 158.169 268.284 158.018L302.211 145.443C304.188 144.71 303.83 141.812 301.734 141.583L290.162 140.319C288.896 140.18 288.08 138.907 288.484 137.699L293.504 122.676C293.683 122.14 294.08 121.705 294.597 121.478L362.984 91.5354L371.732 82.2137C371.97 81.96 372.27 81.7728 372.603 81.6708L376.667 80.4234C378.14 79.9714 378.569 78.0935 377.438 77.0469L373.906 73.7759C372.976 72.9154 373.072 71.4186 374.103 70.683L375.465 69.7109C376.02 69.3152 376.335 68.6643 376.3 67.984L374.048 23.1331C374.005 22.2756 374.515 21.4865 375.314 21.1728L426.295 1.16272C427.259 0.784432 428.352 1.205 428.814 2.13173L435.549 15.6517C435.756 16.067 435.812 16.5415 435.707 16.9936L434.309 23.0343C434.144 23.7458 434.38 24.4906 434.925 24.9766L449.229 37.7302C449.92 38.3467 450.945 38.4072 451.704 37.8764L461.467 31.0497C462.125 30.5898 462.994 30.568 463.674 30.9944L466.855 32.9892C467.211 33.2126 467.488 33.5427 467.645 33.9325L474.871 51.7894C475.121 52.4067 475.662 52.859 476.313 52.9956L488.692 55.5903C489.395 55.7376 489.965 56.2511 490.185 56.935L494.469 70.2766C495.004 71.9414 497.268 72.1651 498.118 70.637L498.345 70.2282C498.698 69.5938 499.367 69.2007 500.093 69.2014L504.023 69.2054C504.631 69.206 505.205 68.9304 505.585 68.4563L506.814 66.9221C507.193 66.448 507.768 66.1723 508.375 66.1729L513.001 66.1776C513.679 66.1783 514.311 66.5229 514.678 67.0928L520.237 75.7113C520.558 76.2099 521.111 76.5113 521.704 76.5119C522.969 76.5132 523.814 77.8156 523.299 78.9711L520.011 86.3569C519.713 87.026 519.805 87.8044 520.251 88.3856L524.883 94.4266C525.319 94.9945 525.417 95.7519 525.142 96.4123L523.411 100.559C522.95 101.662 523.554 102.92 524.703 103.249L526.792 103.849L538.321 103.861C538.716 103.861 539.102 103.745 539.431 103.526L551.367 95.5773C551.572 95.441 551.75 95.2681 551.892 95.0673L555.908 89.3833C556.972 87.8781 559.333 88.493 559.527 90.3259L562.385 117.284C562.493 118.3 563.349 119.071 564.37 119.072L570.847 119.078C571.377 119.079 571.886 119.29 572.26 119.666L574.269 121.681C574.554 121.967 574.918 122.159 575.314 122.234L583.614 123.8C584.126 123.897 584.58 124.19 584.879 124.617L595.328 139.512C595.701 140.045 596.311 140.363 596.961 140.363L604.434 140.371C604.82 140.371 605.197 140.26 605.521 140.051L614.074 134.523C614.826 134.037 615.81 134.11 616.481 134.703L629.045 145.793C629.856 146.509 631.089 146.449 631.827 145.659L637.643 139.434C638.395 138.629 639.658 138.585 640.465 139.336L646.268 144.742C646.976 145.401 648.054 145.459 648.828 144.879L650.639 143.522C651.564 142.829 652.883 143.063 653.513 144.032L669.932 169.291C670.301 169.858 670.93 170.2 671.606 170.201L673.638 170.203C674.34 170.203 674.991 169.835 675.353 169.233L677.833 165.104C678.195 164.502 678.846 164.134 679.548 164.135L682.442 164.138C682.972 164.138 683.481 164.35 683.855 164.725L688.941 169.826C689.196 170.083 689.517 170.265 689.869 170.354L700.444 173.011C701.082 173.172 701.758 173.008 702.252 172.573L710.175 165.589C711.046 164.821 712.385 164.955 713.087 165.879L720.8 176.035C721.224 176.592 721.907 176.887 722.603 176.813L738.009 175.177C738.314 175.144 738.623 175.183 738.911 175.289L754.754 181.122C755.805 181.509 756.333 182.684 755.924 183.726L725.209 262.135C725.095 262.425 725.051 262.738 725.08 263.049L727.96 293.943C728.009 294.473 727.845 295 727.504 295.409L725.774 297.483C725.298 298.054 725.178 298.842 725.463 299.529L727.576 304.619C727.853 305.289 727.747 306.056 727.298 306.624L719.387 316.635C719.082 317.021 718.645 317.281 718.16 317.365L707.297 319.245C706.074 319.456 704.956 318.514 704.958 317.274L704.961 314.183L691.673 315.832C690.896 315.929 690.247 316.471 690.013 317.218L687.9 323.96C687.591 324.948 688.087 326.009 689.044 326.405L694.922 328.834C696.232 329.376 696.577 331.072 695.582 332.083L662.402 365.792C662.035 366.165 661.829 366.668 661.828 367.192L661.813 381.89C661.813 382.453 661.575 382.989 661.159 383.367L642.309 400.487C641.962 400.802 641.737 401.229 641.673 401.694L639.938 414.335L645.478 417.115C646.445 417.6 646.85 418.767 646.392 419.747L643.068 426.858C642.995 427.014 642.903 427.16 642.793 427.292L636.577 434.743C635.492 436.043 636.416 438.019 638.11 438.021L646.333 438.029C646.883 438.03 647.409 437.804 647.787 437.404L656.048 428.666C656.844 427.824 656.759 426.483 655.864 425.748L653.144 423.516C652.048 422.617 652.211 420.894 653.456 420.216L657.082 418.241C657.376 418.081 657.705 417.997 658.04 417.998L663.243 418.003C663.85 418.004 664.425 417.728 664.804 417.254L668.463 412.685C668.843 412.211 669.417 411.936 670.025 411.936L683.949 411.95C684.515 411.951 685.055 412.192 685.434 412.614L689.457 417.098C689.969 417.668 690.109 418.481 689.818 419.19L685.297 430.221C685.005 430.934 685.149 431.751 685.666 432.321L701.78 450.102C702.472 450.866 702.47 452.031 701.774 452.792L690.768 464.835C690.432 465.202 690.245 465.682 690.245 466.181L690.24 470.879C690.239 471.622 690.651 472.304 691.309 472.65L701.904 478.219C702.562 478.565 702.973 479.247 702.972 479.99L702.968 484.72C702.967 485.199 703.139 485.662 703.452 486.026L713.582 497.792C714.123 498.421 714.22 499.319 713.824 500.048L706.83 512.942C706.666 513.246 706.425 513.502 706.132 513.685L696.992 519.39C696.907 519.443 696.819 519.49 696.727 519.529L678.655 527.347L684.472 533.182C684.633 533.344 684.766 533.533 684.864 533.74L689.784 544.165C690.026 544.679 690.476 545.065 691.021 545.228L705.112 549.423C705.96 549.675 706.541 550.455 706.54 551.34L706.53 561.82C706.529 562.924 705.633 563.817 704.53 563.816L704.198 563.816C703.402 563.815 702.682 564.287 702.364 565.016L697.169 576.945C696.938 577.474 696.948 578.078 697.195 578.599L702.784 590.378C702.835 590.485 702.876 590.597 702.907 590.711L706.177 602.763C706.368 603.467 706.928 604.011 707.638 604.182L733.682 610.444C734.14 610.554 734.621 610.5 735.042 610.289L746.132 604.753C747.048 604.295 748.163 604.605 748.712 605.47L751.301 609.553C751.718 610.211 751.715 611.052 751.292 611.707L740.362 628.629C740.027 629.146 739.951 629.789 740.153 630.371L743.494 639.958C743.823 640.9 743.406 641.939 742.518 642.394L721.155 653.334C720.668 653.583 720.304 654.022 720.149 654.547L717.77 662.612C717.52 663.463 716.738 664.046 715.852 664.045L707.867 664.037C707.006 664.036 706.242 664.586 705.97 665.402L703.231 673.598C702.958 674.414 702.194 674.964 701.334 674.964L694.54 674.957C693.987 674.956 693.459 675.184 693.081 675.587L685.965 683.17C685.196 683.989 685.254 685.281 686.092 686.029L687.929 687.666C688.953 688.579 688.774 690.228 687.578 690.9L670.734 700.362C670.639 700.415 670.54 700.461 670.437 700.498L650.893 707.59C650.674 707.67 650.442 707.71 650.209 707.71L640.307 707.7C639.874 707.7 639.453 707.559 639.107 707.299L630.329 700.694C630.073 700.502 629.775 700.373 629.459 700.32L606.13 696.404C605.167 696.242 604.462 695.408 604.463 694.431L604.47 686.581C604.472 685.478 603.578 684.582 602.474 684.581L585.686 684.564C584.928 684.563 584.237 684.135 583.899 683.457L582.505 680.658C581.944 679.533 580.495 679.198 579.498 679.965L574.068 684.137C573.718 684.406 573.289 684.552 572.848 684.551L559.752 684.538C558.648 684.537 557.754 683.641 557.755 682.538L557.758 680.206C557.759 679.207 557.022 678.361 556.032 678.224L531.067 674.791L526.207 669.374C525.828 668.952 525.288 668.711 524.722 668.71L514.028 668.7C513.668 668.699 513.314 668.797 513.004 668.981L479.062 689.202C478.936 689.277 478.818 689.366 478.711 689.467L456.486 710.503C456.048 710.917 455.821 711.506 455.867 712.107L458.788 750.032L461.079 762.487C461.377 764.11 459.692 765.374 458.217 764.635L450.465 760.744C449.963 760.492 449.377 760.463 448.853 760.665L434.505 766.172C434.109 766.324 433.771 766.599 433.541 766.956L429.487 773.255C428.898 774.171 427.683 774.446 426.757 773.874L406.019 761.07C405.279 760.613 404.329 760.687 403.669 761.252L389.596 773.303C388.648 774.115 387.196 773.869 386.568 772.79L379.871 761.27C379.514 760.655 378.857 760.277 378.146 760.276L369.829 760.268C368.495 760.266 367.537 758.984 367.915 757.704L369.763 751.437C370.022 750.558 369.651 749.616 368.862 749.151L361.164 744.607C360.409 744.162 359.453 744.26 358.805 744.849L354.718 748.56C353.892 749.311 352.611 749.239 351.874 748.401L344.72 740.268C344.341 739.837 343.796 739.59 343.222 739.59L335.548 739.582C334.846 739.581 334.196 739.212 333.835 738.609L331.226 734.245C330.943 733.772 330.476 733.437 329.938 733.319L304.864 727.836C303.773 727.597 302.698 728.299 302.478 729.394L300.761 737.94C300.574 738.874 299.753 739.546 298.8 739.545L276.714 739.522C276.357 739.522 276.007 739.426 275.7 739.245L266.756 733.966C266.195 733.635 265.507 733.598 264.914 733.867L254.591 738.551C253.489 739.052 252.198 738.464 251.851 737.303L249.16 728.29C248.982 727.695 248.538 727.217 247.959 726.995L236.141 722.475Z" fill="#CAD4E8"/>
<path d="M771.356 655.598L772.889 641.917C773.039 640.573 774.454 639.763 775.689 640.314L777.466 641.107C778.187 641.429 778.651 642.145 778.65 642.934L778.635 657.271C778.635 657.376 778.627 657.48 778.611 657.583L776.938 668.118C776.852 668.66 776.992 669.213 777.326 669.648L782.449 676.329C782.717 676.679 782.862 677.107 782.862 677.547L782.848 691.445L782.818 721.064C782.817 721.548 782.641 722.015 782.323 722.379L770.648 735.708C770.274 736.135 770.1 736.7 770.168 737.264L772.983 760.572C773.039 761.032 772.932 761.498 772.683 761.888L759.682 782.213C759.314 782.788 758.679 783.135 757.997 783.135L755.629 783.132C754.526 783.131 753.632 782.236 753.633 781.132L753.636 778.401C753.637 777.588 753.145 776.856 752.392 776.549L734.836 769.388C734.442 769.227 734.11 768.945 733.887 768.583L730.571 763.176C729.941 762.149 730.357 760.803 731.456 760.309L737.478 757.604C739.048 756.898 739.051 754.669 737.481 753.96L729.395 750.307L726.181 748.373C724.89 747.595 724.891 745.722 726.185 744.947L731.71 741.636C732.175 741.357 732.507 740.901 732.629 740.373L733.592 736.216C733.913 734.83 732.723 733.561 731.318 733.794L723.801 735.04C723.5 735.09 723.191 735.071 722.898 734.982L720.573 734.281C719.104 733.839 718.661 731.975 719.774 730.919L727.41 723.672C728.4 722.732 728.177 721.098 726.972 720.458L720.005 716.756C719.445 716.459 719.06 715.913 718.966 715.286L717.539 705.698C717.403 704.781 717.915 703.891 718.775 703.548L722.674 701.991C724.208 701.379 724.379 699.275 722.964 698.423L719.776 696.504C718.583 695.786 718.471 694.1 719.559 693.231L725.675 688.343C726.149 687.964 726.425 687.391 726.425 686.784L726.436 676.223C726.437 675.467 726.865 674.776 727.542 674.438L755.895 660.282C756.458 660.001 757.121 660.001 757.684 660.284L768.453 665.688C769.781 666.354 771.346 665.39 771.348 663.904L771.356 655.598Z" fill="#CAD4E8"/>
<path d="M236.141 722.475L221.911 726.842C221.007 727.119 220.034 726.726 219.576 725.9L211.712 711.696C211.435 711.195 210.957 710.838 210.4 710.713L179.681 703.847C178.966 703.687 178.408 703.143 178.129 702.465C176.985 699.686 174.287 696.35 170.03 699.327C163.958 703.573 163.966 696.284 170.036 693.253C176.107 690.222 163.382 673.81 154.275 679.267C147.511 683.321 145.465 676.174 145.211 671.242C145.176 670.56 145.532 669.926 146.108 669.559L164.563 657.829C164.985 657.561 165.291 657.145 165.421 656.663L187.075 576.301C187.121 576.132 187.144 575.958 187.144 575.783L187.165 555.395C189.818 531.913 196.095 484.705 199.979 483.737C204.834 482.528 204.829 487.387 211.494 497.111C218.158 506.836 220.579 512.305 220.576 515.342C220.573 518.379 222.38 531.743 227.235 530.533C232.09 529.323 223.622 503.198 220.595 497.121C217.567 491.044 196.956 472.801 192.106 469.76C187.255 466.718 192.719 463.686 196.363 459.438C199.11 456.237 202.795 447.038 204.57 442.09C204.767 441.541 204.707 440.935 204.414 440.431L196.873 427.46C196.572 426.941 196.519 426.314 196.73 425.752L200.047 416.926M236.141 722.475L261.21 680.151C261.501 679.658 261.568 679.065 261.392 678.52L255.405 659.929C255.167 659.191 254.523 658.657 253.753 658.56L243.661 657.286C242.187 657.1 241.424 655.429 242.249 654.194L248.695 644.536C248.871 644.273 248.982 643.972 249.018 643.657L250.679 629.374C250.754 628.729 251.138 628.161 251.708 627.85L256.623 625.173C257.162 624.879 257.806 624.849 258.369 625.092L264.439 627.703C265.325 628.084 266.356 627.779 266.891 626.977L268.085 625.188C268.289 624.881 268.575 624.637 268.91 624.483L275.531 621.432C276.016 621.209 276.571 621.189 277.071 621.377L280.468 622.656C280.903 622.82 281.382 622.827 281.822 622.676L298.166 617.053C298.542 616.923 298.948 616.909 299.333 617.012L306.728 618.994C307.417 619.179 308.153 618.982 308.657 618.478L322.582 604.566C323.206 603.943 323.348 602.985 322.931 602.208L319.942 596.638C319.603 596.006 319.629 595.241 320.009 594.634L321.34 592.507C321.938 591.551 323.208 591.279 324.145 591.906L325.567 592.857C325.895 593.077 326.281 593.194 326.676 593.194L328.689 593.196C330.073 593.198 331.039 591.826 330.572 590.524L326.487 579.127C326.24 578.438 326.389 577.669 326.876 577.123L355.344 545.201C355.67 544.836 355.85 544.363 355.851 543.873L355.857 538.129C355.858 537.025 356.753 536.131 357.857 536.132L366.707 536.141C367.148 536.142 367.576 536.288 367.925 536.558L374.63 541.731C375.04 542.047 375.556 542.192 376.07 542.135L397.113 539.816M236.141 722.475L247.959 726.995C248.538 727.217 248.982 727.695 249.16 728.29L251.851 737.303C252.198 738.464 253.489 739.052 254.591 738.551L264.914 733.867C265.507 733.598 266.195 733.635 266.756 733.966L275.7 739.245C276.007 739.426 276.357 739.522 276.714 739.522L298.8 739.545C299.753 739.546 300.574 738.874 300.761 737.94L302.478 729.394C302.698 728.299 303.773 727.597 304.864 727.836L329.938 733.319C330.476 733.437 330.943 733.772 331.226 734.245L333.835 738.609C334.196 739.212 334.846 739.581 335.548 739.582L343.222 739.59C343.795 739.59 344.341 739.837 344.72 740.268L351.874 748.401C352.611 749.239 353.892 749.311 354.718 748.56L358.805 744.849C359.453 744.26 360.409 744.162 361.164 744.607L368.862 749.151C369.651 749.616 370.022 750.558 369.763 751.437L367.915 757.704C367.537 758.984 368.495 760.266 369.829 760.268L378.146 760.276C378.857 760.277 379.514 760.655 379.871 761.27L386.568 772.79C387.196 773.869 388.648 774.115 389.596 773.303L403.669 761.252C404.329 760.687 405.279 760.613 406.019 761.07L426.757 773.874C427.683 774.446 428.898 774.171 429.487 773.255L433.541 766.956C433.771 766.599 434.109 766.324 434.505 766.172L448.853 760.665C449.377 760.463 449.963 760.492 450.465 760.744L458.217 764.635C459.692 765.375 461.377 764.11 461.079 762.487L458.788 750.032L455.867 712.107C455.821 711.506 456.048 710.917 456.486 710.503L478.711 689.467C478.818 689.366 478.936 689.277 479.062 689.202L513.004 668.981C513.314 668.797 513.668 668.699 514.028 668.7L524.722 668.71C525.288 668.711 525.828 668.952 526.207 669.374L531.067 674.791M200.047 416.926C201.869 415.308 206.726 412.195 211.579 412.686C216.033 413.136 222.87 415.328 226.465 416.627C227.028 416.831 227.651 416.779 228.169 416.48L235.094 412.476C236.136 411.873 235.71 410.281 234.506 410.279V410.279C233.895 410.279 233.385 409.81 233.334 409.2L230.47 374.952C230.442 374.616 230.329 374.293 230.143 374.012L220.703 359.806C219.76 358.388 220.911 356.515 222.603 356.716L237.596 358.497C238.406 358.594 239.194 358.187 239.585 357.471L242.016 353.021C242.367 352.379 243.04 351.98 243.772 351.98L264.731 352.002M200.047 416.926L196.249 418.822C195.596 419.148 194.818 419.092 194.218 418.676L162.225 396.501C161.974 396.327 161.766 396.097 161.617 395.829L144.855 365.669C144.5 365.031 144.522 364.25 144.911 363.633L153.597 349.854C154.165 348.953 153.927 347.765 153.055 347.153L148.668 344.072C148.588 344.016 148.504 343.966 148.416 343.922L142.367 340.886C141.198 340.3 140.899 338.768 141.76 337.784L143.816 335.437C144.134 335.073 144.31 334.606 144.311 334.123L144.316 328.975C144.317 327.872 145.212 326.978 146.316 326.979L156.035 326.989C156.31 326.989 156.582 327.05 156.831 327.166V327.166C158.701 328.043 160.412 325.701 159.009 324.185L158.263 323.379C157.885 322.971 157.355 322.738 156.798 322.738L143.937 322.725C143.407 322.724 142.898 322.935 142.523 323.309L137.425 328.402C136.827 329 135.918 329.156 135.155 328.793L125.848 324.369C125.257 324.088 124.842 323.536 124.735 322.89L123.867 317.644C123.762 317.008 123.97 316.36 124.426 315.904L130.38 309.956M409.983 414.102L381.404 410.569C380.694 410.482 379.991 410.78 379.561 411.353L377.346 414.303C376.895 414.904 376.144 415.201 375.404 415.071L364.194 413.108C363.291 412.95 362.397 413.426 362.024 414.263L360.865 416.867C360.49 417.71 359.587 418.186 358.679 418.02L353.761 417.119C353.622 417.094 353.487 417.054 353.357 417L344.478 413.33C343.73 413.021 343.243 412.291 343.244 411.482L343.248 407.115C343.249 406.499 342.965 405.916 342.479 405.537L327.65 393.967C327.164 393.588 326.88 393.006 326.881 392.39L326.888 385.367C326.888 385.036 326.807 384.711 326.651 384.42L314.9 362.521C314.471 361.721 313.555 361.311 312.672 361.523L298.177 365.01C297.245 365.234 296.285 364.765 295.89 363.891L293.694 359.042C293.595 358.824 293.458 358.625 293.289 358.456L287.462 352.611C287.087 352.235 286.579 352.024 286.049 352.023L264.731 352.002M409.983 414.102L414.049 421.096C414.164 421.294 414.312 421.47 414.487 421.618L425.19 430.659C425.546 430.96 425.785 431.376 425.867 431.835L429.746 453.595C429.879 454.343 429.577 455.102 428.966 455.553L417.592 463.951C416.71 464.603 416.517 465.844 417.161 466.732L420.523 471.37C420.734 471.66 420.863 472.003 420.895 472.36L423.608 502.015C423.728 503.325 422.57 504.392 421.273 504.165L412.859 502.691C411.451 502.445 410.247 503.713 410.567 505.106L411.501 509.178C411.631 509.744 411.508 510.339 411.164 510.807L405.113 519.05C405.052 519.132 404.998 519.219 404.951 519.31L397.344 533.917C397.196 534.202 397.119 534.517 397.119 534.838L397.113 539.816M409.983 414.102L413.841 406.947C414.095 406.476 414.527 406.126 415.041 405.976L427.365 402.392C428.218 402.144 428.805 401.363 428.805 400.475L428.811 394.795C428.812 393.992 429.293 393.267 430.033 392.955L456.128 381.958M397.113 539.816L401.803 555.13C401.901 555.447 401.917 555.783 401.852 556.109L399.647 567.087C399.56 567.522 399.62 567.974 399.818 568.371L400.881 570.507C401.432 571.612 402.845 571.958 403.844 571.232L407.95 568.249C408.375 567.941 408.904 567.812 409.423 567.89L419.381 569.396C420.203 569.52 421.015 569.123 421.422 568.399L433.34 547.182C434.016 545.979 435.68 545.807 436.588 546.847L438.372 548.893C438.751 549.328 439.3 549.577 439.876 549.578L443.819 549.582C444.567 549.583 445.251 550 445.594 550.665L452.219 563.52C452.986 565.008 455.133 564.95 455.818 563.423L461.789 550.126C461.943 549.783 462.191 549.49 462.504 549.281L474.364 541.384C475.477 540.642 476.99 541.183 477.382 542.462L480.591 552.939C480.999 554.272 482.613 554.788 483.719 553.938L488.089 550.58C488.817 550.021 489.833 550.029 490.551 550.601L506.518 563.304C506.775 563.509 506.978 563.773 507.108 564.075L520.626 595.344C520.761 595.657 520.974 595.93 521.244 596.137L529.749 602.661C530.544 603.271 531.669 603.198 532.378 602.49L538.084 596.788C538.659 596.215 539.524 596.045 540.272 596.36L557.835 603.754M130.38 309.956L139.339 306.603C139.822 306.423 140.356 306.435 140.829 306.639L146.142 308.925C147.363 309.45 148.748 308.658 148.914 307.339L150.303 296.306C150.376 295.73 150.695 295.214 151.178 294.893L158.953 289.716C159.323 289.469 159.766 289.353 160.21 289.386L175.024 290.5C175.585 290.542 176.138 290.346 176.547 289.959L186.406 280.628C187.027 280.04 187.953 279.912 188.71 280.31L199.387 285.923C199.891 286.188 200.484 286.225 201.017 286.026L203.739 285.007C204.519 284.715 205.036 283.97 205.037 283.138L205.038 281.349C205.039 281.039 205.111 280.733 205.25 280.456L211.173 268.627C211.512 267.95 212.205 267.523 212.962 267.523L213.2 267.524C214.368 267.525 215.287 266.53 215.194 265.366L213.608 245.533C213.583 245.216 213.634 244.898 213.756 244.604L216.501 238.029C216.574 237.854 216.621 237.67 216.643 237.482L218.448 221.368M130.38 309.956L129.03 304.528C128.772 303.487 127.738 302.837 126.688 303.053L111.733 306.135C111.241 306.236 110.729 306.148 110.299 305.889L108.138 304.589C106.764 303.761 106.876 301.733 108.333 301.062L110.982 299.841C111.984 299.379 112.422 298.194 111.961 297.191L110.362 293.712C109.78 292.448 108.118 292.15 107.134 293.133L102.268 297.994C101.669 298.593 100.756 298.749 99.992 298.382L47.573 273.246C47.0144 272.978 46.6117 272.466 46.4826 271.86L45.2123 265.896C45.0159 264.974 44.2023 264.315 43.2599 264.314L35.3894 264.306C34.859 264.306 34.3503 264.516 33.9751 264.891L28.4661 270.394C28.0909 270.769 27.5821 270.98 27.0518 270.979L20.2381 270.972C19.3689 270.971 18.6 270.409 18.3361 269.58L14.1076 256.306C13.9982 255.963 13.798 255.655 13.528 255.416L6.65105 249.329C5.41375 248.234 5.96461 246.196 7.58513 245.873L23.7847 242.647C25.4362 242.318 25.9653 240.219 24.667 239.147L18.5568 234.099C17.9728 233.617 17.1662 233.506 16.4737 233.813L13.9532 234.932C12.9499 235.377 11.7753 234.929 11.3225 233.929L9.29203 229.445C9.17447 229.186 9.1138 228.904 9.11409 228.619L9.11651 226.234C9.11705 225.705 9.3278 225.197 9.70247 224.823L10.0641 224.461C11.0647 223.462 12.7588 223.79 13.3141 225.091L13.4525 225.415C13.7664 226.15 14.4886 226.627 15.2882 226.628L23.1499 226.636C24.1117 226.637 24.8922 225.858 24.8932 224.897V224.897C24.8939 224.128 24.3904 223.449 23.6542 223.227L20.252 222.202C19.4073 221.947 18.8295 221.169 18.8304 220.287L18.8322 218.579C18.8334 217.374 17.7754 216.442 16.58 216.595L2.87165 218.352C1.49094 218.529 0.35691 217.275 0.670978 215.919L3.46718 203.845C3.60163 203.265 3.98816 202.775 4.52131 202.508L25.1203 192.224C26.0426 191.764 27.1639 192.08 27.7089 192.955L28.8976 194.864C29.4068 195.681 30.4265 196.019 31.3231 195.667L45.2493 190.207C46.1349 189.86 47.1425 190.185 47.658 190.984L52.027 197.759C52.7382 198.861 54.3011 198.991 55.1842 198.02L58.5181 194.357C59.1077 193.709 60.0504 193.521 60.8436 193.892L68.2046 197.34C68.4692 197.464 68.7579 197.528 69.0501 197.529L70.8554 197.53C71.959 197.532 72.8545 196.638 72.8556 195.534L72.8574 193.804C72.8577 193.461 72.9463 193.124 73.1145 192.825L77.4873 185.062C77.9712 184.202 79.0096 183.825 79.9325 184.172L82.4207 185.109C82.9079 185.293 83.4475 185.279 83.9246 185.07L91.6416 181.7C92.3961 181.37 93.2753 181.537 93.8566 182.12L94.386 182.651C94.9509 183.218 95.7991 183.393 96.5421 183.097L98.645 182.257C99.9582 181.733 101.386 182.701 101.384 184.115L101.382 185.702C101.382 186.29 101.64 186.848 102.088 187.228L108.934 193.039C109.15 193.223 109.325 193.451 109.447 193.707L119.685 215.342C120.237 216.507 121.732 216.853 122.739 216.048L140.435 201.906C141.306 201.209 142.578 201.361 143.262 202.242L149.903 210.808C150.281 211.296 150.863 211.581 151.48 211.582L154.572 211.585C155.675 211.586 156.571 210.693 156.572 209.589L156.574 206.989C156.575 206.112 157.148 205.338 157.986 205.08L169.769 201.464C171.054 201.07 172.355 202.032 172.353 203.377L172.347 209.439C172.346 210.605 173.34 211.524 174.503 211.433L187.515 210.404M218.448 221.368L231.341 228.425C231.635 228.586 231.964 228.67 232.299 228.671L244.058 228.683C244.368 228.683 244.675 228.611 244.953 228.472L252.606 224.651C252.884 224.512 253.19 224.44 253.501 224.44L257.232 224.444C257.655 224.445 258.067 224.311 258.409 224.063L263.578 220.307C264.182 219.868 264.981 219.803 265.649 220.138L269.655 222.148C270.261 222.452 270.671 223.042 270.745 223.716L271.115 227.078C271.185 227.721 271.563 228.29 272.128 228.605L275.911 230.714C276.389 230.98 276.685 231.484 276.684 232.031V232.031C276.683 233.076 277.721 233.805 278.704 233.448L295.456 227.369C296.216 227.094 297.067 227.303 297.613 227.9L302.855 233.636C303.192 234.005 303.378 234.486 303.378 234.986L303.369 243.883C303.368 244.652 303.809 245.354 304.502 245.687L323.987 255.039M218.448 221.368L206.599 217.966C206.035 217.804 205.428 217.898 204.94 218.224L196.667 223.733C195.666 224.399 194.307 224.037 193.771 222.96L187.515 210.404M264.731 352.002L282.873 329.421C283.125 329.108 283.277 328.726 283.308 328.325L284.436 313.841C284.47 313.393 284.655 312.97 284.96 312.64L290.844 306.272C291.406 305.663 292.287 305.465 293.056 305.774L296.495 307.155C297.299 307.478 298.219 307.246 298.774 306.581L300.281 304.775C300.661 304.319 301.224 304.056 301.817 304.056L307.238 304.062C307.824 304.062 308.381 303.806 308.761 303.36L321.656 288.237C321.964 287.876 322.134 287.417 322.134 286.943L322.138 282.838C322.139 282.082 322.567 281.39 323.244 281.052L325.798 279.777C326.523 279.415 326.957 278.652 326.898 277.844L325.877 263.846C325.828 263.179 326.116 262.532 326.644 262.122L328.713 260.514C329.886 259.603 329.691 257.777 328.352 257.135L323.987 255.039M187.515 210.404L195.053 210.411C196.884 210.413 197.753 208.157 196.394 206.93L188.793 200.068C188.373 199.688 188.133 199.148 188.134 198.582L188.17 162.285C188.171 161.975 188.099 161.67 187.961 161.392L172.638 130.636C172.5 130.359 172.428 130.053 172.428 129.743L172.438 120.213C172.438 119.998 172.473 119.785 172.541 119.582L174.082 114.967C174.488 113.754 175.913 113.229 177.008 113.889L189.375 121.333C189.798 121.588 190.3 121.677 190.785 121.583L209.983 117.866C211.04 117.662 212.07 118.332 212.311 119.381L213.454 124.365C213.602 125.011 213.421 125.688 212.97 126.173L206.786 132.826C206.195 133.461 206.083 134.406 206.507 135.163L215.158 150.595C215.874 151.872 217.675 151.971 218.526 150.78L221.942 146.003C222.439 145.309 223.322 145.007 224.14 145.251L267.018 158.059C267.433 158.183 267.878 158.169 268.284 158.018L302.211 145.443C304.188 144.71 303.83 141.812 301.734 141.583L290.162 140.319C288.896 140.18 288.08 138.907 288.484 137.699L293.504 122.676C293.683 122.14 294.08 121.705 294.597 121.478L362.984 91.5354M362.984 91.5354L371.732 82.2137C371.97 81.96 372.27 81.7728 372.603 81.6708L376.667 80.4234C378.14 79.9714 378.569 78.0935 377.438 77.0469L373.906 73.7759C372.976 72.9154 373.072 71.4186 374.103 70.683L375.465 69.7109C376.02 69.3152 376.334 68.6643 376.3 67.984L374.048 23.1331C374.005 22.2756 374.515 21.4865 375.314 21.1728L426.295 1.16272C427.259 0.784432 428.352 1.205 428.814 2.13173L435.549 15.6517C435.756 16.067 435.812 16.5415 435.708 16.9936L434.308 23.0343C434.144 23.7458 434.38 24.4906 434.925 24.9766L449.229 37.7302C449.92 38.3467 450.945 38.4072 451.704 37.8764L461.467 31.0497C462.125 30.5898 462.994 30.568 463.674 30.9944L466.855 32.9892C467.211 33.2126 467.488 33.5427 467.645 33.9325L474.871 51.7894C475.121 52.4067 475.662 52.859 476.313 52.9956L488.692 55.5903C489.395 55.7376 489.965 56.2511 490.185 56.935L494.469 70.2766C495.004 71.9414 497.268 72.1651 498.118 70.637L498.345 70.2282C498.698 69.5938 499.367 69.2007 500.093 69.2014L504.023 69.2054C504.631 69.206 505.205 68.9304 505.585 68.4563L506.814 66.9221C507.193 66.448 507.768 66.1723 508.375 66.1729L513.001 66.1776C513.679 66.1783 514.311 66.5229 514.678 67.0928L520.237 75.7113C520.558 76.2099 521.111 76.5113 521.704 76.5119V76.5119C522.969 76.5132 523.814 77.8156 523.299 78.9711L520.011 86.3569C519.713 87.026 519.805 87.8044 520.251 88.3856L524.883 94.4266C525.319 94.9945 525.417 95.7519 525.142 96.4123L523.411 100.559C522.95 101.662 523.554 102.92 524.703 103.249L526.792 103.849M362.984 91.5354L381.636 103.232C382.115 103.532 382.444 104.02 382.542 104.576L385.222 119.686C385.336 120.329 385.129 120.987 384.667 121.449L380.908 125.204C380.323 125.788 380.158 126.671 380.493 127.427L382.188 131.255C382.301 131.51 382.359 131.786 382.359 132.066L382.347 143.79L382.341 149.042C382.341 149.184 382.356 149.326 382.387 149.466L384.982 161.476C385.198 162.474 384.627 163.473 383.659 163.795L382.629 164.137L379.898 165.046M526.792 103.849L526.774 121.243C526.774 121.773 526.563 122.281 526.188 122.655L517.53 131.305C517.222 131.613 517.023 132.012 516.963 132.442L514.241 151.918C514.103 152.906 513.257 153.641 512.26 153.64L507.65 153.635C507.435 153.635 507.222 153.669 507.018 153.737L494.408 157.93C493.462 158.245 492.893 159.208 493.073 160.188L495.574 173.781C495.699 174.465 495.461 175.164 494.945 175.629L490.622 179.515C490.059 180.021 489.831 180.803 490.032 181.533L492.382 190.034C492.591 190.791 492.338 191.6 491.735 192.102L481.795 200.377M526.792 103.849L538.321 103.861C538.716 103.861 539.102 103.745 539.431 103.526L551.367 95.5773C551.572 95.441 551.75 95.2681 551.892 95.0673L555.908 89.3833C556.972 87.8781 559.333 88.493 559.527 90.3259L562.385 117.284C562.493 118.3 563.349 119.071 564.37 119.072L570.847 119.078C571.378 119.079 571.886 119.29 572.26 119.666L574.269 121.681C574.554 121.967 574.918 122.159 575.314 122.234L583.614 123.8C584.126 123.897 584.58 124.19 584.879 124.617L595.328 139.512C595.701 140.045 596.311 140.363 596.961 140.363L604.434 140.371C604.82 140.371 605.197 140.26 605.521 140.051L614.074 134.523C614.826 134.037 615.81 134.11 616.481 134.703L629.045 145.793C629.856 146.509 631.089 146.449 631.827 145.659L637.643 139.434C638.395 138.629 639.658 138.585 640.465 139.336L646.268 144.742C646.976 145.401 648.054 145.459 648.828 144.879L650.639 143.522C651.564 142.829 652.883 143.063 653.513 144.032L669.932 169.291C670.301 169.858 670.93 170.2 671.606 170.201L673.638 170.203C674.34 170.203 674.991 169.835 675.353 169.233L677.833 165.104C678.195 164.502 678.846 164.134 679.548 164.135L682.442 164.138C682.972 164.138 683.481 164.35 683.855 164.725L688.941 169.826C689.196 170.083 689.517 170.265 689.869 170.354L700.444 173.011C701.082 173.172 701.758 173.008 702.252 172.573L710.175 165.589C711.046 164.821 712.385 164.955 713.087 165.879L720.801 176.035C721.224 176.592 721.907 176.887 722.603 176.813L738.009 175.177C738.314 175.144 738.623 175.183 738.91 175.289L754.754 181.122C755.805 181.509 756.333 182.684 755.924 183.726L725.209 262.135C725.095 262.425 725.051 262.738 725.08 263.049L727.96 293.943C728.009 294.473 727.845 295 727.504 295.409L725.774 297.483C725.298 298.054 725.178 298.842 725.463 299.529L727.576 304.619C727.853 305.289 727.747 306.056 727.298 306.624L719.387 316.635C719.082 317.021 718.645 317.281 718.16 317.365L707.297 319.245C706.074 319.456 704.956 318.514 704.958 317.274L704.961 314.183M481.795 200.377L467.662 189.153C467.389 188.936 467.177 188.652 467.048 188.328L463.162 178.573C462.746 177.53 461.552 177.034 460.519 177.475L454.377 180.103C454.068 180.236 453.73 180.288 453.395 180.255L429.243 177.871C429.102 177.857 428.964 177.829 428.829 177.785L401.113 168.9C400.729 168.777 400.317 168.773 399.931 168.888L389.432 172.029C388.78 172.225 388.073 172.074 387.557 171.63L379.898 165.046M481.795 200.377L479.525 218.409C479.419 219.249 479.854 220.065 480.611 220.444L481.826 221.054C483.014 221.65 483.3 223.219 482.397 224.196L477.602 229.386C477.168 229.856 476.985 230.505 477.109 231.132L479.326 242.284M379.898 165.046L371.073 177.387C370.883 177.653 370.632 177.867 370.34 178.013L364.916 180.721C364.086 181.135 363.651 182.066 363.864 182.969L366.52 194.186M366.52 194.186L363.811 201.755C363.601 202.342 363.129 202.797 362.535 202.986L351.129 206.606C350.501 206.805 349.815 206.682 349.295 206.277L345.533 203.341C344.995 202.921 344.28 202.805 343.636 203.033L327.84 208.626C326.76 209.008 326.222 210.218 326.661 211.276L334.476 230.106C334.757 230.783 334.645 231.559 334.185 232.129L322.782 246.232C322.398 246.706 322.253 247.331 322.387 247.926L323.987 255.039M366.52 194.186L373.415 202.255C373.662 202.544 373.821 202.897 373.874 203.273L376.125 219.159C376.176 219.517 376.322 219.854 376.549 220.135L393.937 241.647C394.225 242.003 394.382 242.447 394.381 242.905L394.375 249.062C394.373 250.449 395.751 251.415 397.055 250.942L407.394 247.19C407.613 247.111 407.844 247.07 408.078 247.07L417.759 247.08C418.324 247.081 418.862 247.32 419.241 247.74L425.404 254.572C425.736 254.939 425.919 255.417 425.918 255.912L425.914 260.555C425.912 261.778 427.001 262.716 428.211 262.532L453.826 258.657M453.826 258.657L461.858 274.779C462.138 275.341 462.137 276.003 461.856 276.565L459.384 281.501C459.304 281.662 459.202 281.811 459.082 281.944L454.309 287.242C453.979 287.608 453.796 288.084 453.795 288.577L453.788 295.763C453.787 296.48 453.403 297.141 452.78 297.496L442.842 303.168C441.857 303.73 441.537 304.998 442.136 305.96L449.822 318.298C450.019 318.616 450.124 318.982 450.124 319.356L450.106 337.141C450.105 337.451 450.177 337.757 450.315 338.034L455.95 349.345C456.088 349.622 456.16 349.928 456.16 350.238L456.128 381.958M453.826 258.657L456.004 246.731C456.161 245.876 456.85 245.221 457.711 245.108L479.326 242.284M456.128 381.958L466.499 390.05C466.85 390.323 467.282 390.472 467.727 390.473L476.175 390.481C476.55 390.482 476.917 390.587 477.234 390.786L480.404 392.774C481.121 393.224 482.042 393.173 482.705 392.649L493.723 383.936C494.867 383.031 496.563 383.617 496.905 385.035L500.869 401.476C500.958 401.848 501.154 402.187 501.431 402.452L512.647 413.167C513.291 413.783 513.45 414.751 513.036 415.54L507.574 425.954C507.248 426.575 507.272 427.322 507.637 427.921L512.938 436.625C513.397 437.379 514.296 437.742 515.15 437.519L537.71 431.629C538.588 431.4 539.202 430.606 539.203 429.698L539.208 424.613C539.21 423.163 540.707 422.197 542.029 422.794L550.949 426.824C551.207 426.94 551.487 427 551.77 427.001L556.647 427.006C557.472 427.006 558.211 427.513 558.509 428.282L559.979 432.079C560.683 433.897 563.307 433.734 563.781 431.844L569.661 408.4C569.938 407.294 571.084 406.644 572.176 406.973L575.535 407.985C575.988 408.122 576.474 408.093 576.908 407.905L588.706 402.785C589.574 402.407 590.589 402.692 591.134 403.466L605.648 424.051C606.561 425.346 608.546 425.114 609.136 423.643L610.076 421.296C610.66 419.84 612.618 419.593 613.544 420.86L617.019 425.614C617.623 426.44 618.754 426.677 619.638 426.161L639.938 414.335M479.326 242.284L488.905 250.197C489.365 250.577 489.631 251.143 489.631 251.74L489.625 257.597C489.624 258.28 489.972 258.916 490.548 259.283L496.023 262.779C496.202 262.894 496.362 263.036 496.496 263.2L507.201 276.325L513.144 283.912C513.59 284.482 514.31 284.766 515.025 284.655L544.249 280.096C544.619 280.038 544.966 279.878 545.249 279.632L552.374 273.464C553.224 272.728 554.513 272.838 555.226 273.706L561.81 281.726C562.189 282.187 562.755 282.455 563.352 282.456L567.611 282.46C568.95 282.462 569.908 283.753 569.523 285.034L567.029 293.324C566.796 294.1 567.054 294.94 567.683 295.451L578.825 304.499C579.181 304.788 579.624 304.946 580.083 304.946L585.008 304.951C585.66 304.952 586.271 305.271 586.644 305.806L589.014 309.202C589.695 310.178 591.072 310.346 591.968 309.563L599.665 302.835C599.89 302.639 600.155 302.495 600.443 302.415L613.72 298.708C614.583 298.467 615.18 297.681 615.181 296.785L615.187 290.7C615.187 290.126 615.435 289.58 615.866 289.201L630.175 276.621C630.304 276.508 630.448 276.411 630.602 276.334L637.766 272.758C638.442 272.42 639.25 272.493 639.855 272.945L648.909 279.716C649.254 279.974 649.673 280.114 650.104 280.115L657.159 280.122C657.494 280.122 657.823 280.038 658.117 279.878L663.467 276.964C664.021 276.662 664.685 276.64 665.258 276.904L692.293 289.341C693.003 289.667 693.457 290.377 693.456 291.158L693.445 301.804C693.445 302.334 693.654 302.842 694.028 303.217L704.961 314.183M531.067 674.791L544.115 659.386C544.322 659.14 544.586 658.949 544.884 658.827L556.543 654.066C557.294 653.76 557.785 653.03 557.786 652.219L557.804 635.122C557.804 634.493 558.101 633.902 558.604 633.525L568.538 626.082C569.344 625.478 569.575 624.369 569.077 623.494L557.835 603.754M531.067 674.791L556.032 678.224C557.022 678.361 557.759 679.207 557.758 680.206L557.755 682.538C557.754 683.641 558.648 684.537 559.752 684.538L572.848 684.551C573.29 684.552 573.718 684.406 574.068 684.137L579.498 679.965C580.495 679.198 581.944 679.533 582.505 680.658L583.899 683.457C584.237 684.135 584.928 684.563 585.686 684.564L602.474 684.581C603.578 684.582 604.472 685.478 604.47 686.581L604.463 694.431C604.462 695.408 605.167 696.242 606.13 696.404L629.459 700.32C629.775 700.373 630.073 700.502 630.329 700.694L639.107 707.299C639.453 707.559 639.874 707.7 640.307 707.7L650.209 707.71C650.442 707.71 650.674 707.67 650.893 707.59L670.437 700.498C670.54 700.461 670.639 700.415 670.734 700.362L687.578 690.9C688.774 690.228 688.953 688.579 687.929 687.666L686.092 686.029C685.254 685.281 685.196 683.989 685.965 683.17L693.081 675.587C693.459 675.184 693.987 674.956 694.54 674.957L701.334 674.963C702.194 674.964 702.958 674.414 703.231 673.598L705.97 665.402C706.242 664.586 707.006 664.036 707.867 664.037L715.852 664.045C716.738 664.046 717.52 663.463 717.77 662.612L720.149 654.547C720.304 654.022 720.668 653.583 721.155 653.334L742.518 642.394C743.406 641.939 743.823 640.9 743.494 639.958L740.153 630.371C739.951 629.789 740.027 629.146 740.362 628.629L751.292 611.707C751.715 611.052 751.718 610.211 751.301 609.553L748.712 605.47C748.163 604.605 747.048 604.295 746.132 604.753L735.042 610.289C734.621 610.5 734.14 610.554 733.682 610.444L707.638 604.182C706.928 604.011 706.368 603.467 706.177 602.763L702.907 590.711C702.876 590.597 702.835 590.485 702.784 590.378L697.195 578.599C696.948 578.078 696.938 577.474 697.169 576.945L702.364 565.016C702.682 564.287 703.402 563.815 704.198 563.816L704.53 563.816C705.633 563.817 706.529 562.924 706.53 561.82L706.54 551.34C706.541 550.455 705.96 549.675 705.112 549.423L691.021 545.228C690.476 545.065 690.026 544.679 689.784 544.165L684.864 533.74C684.766 533.533 684.633 533.344 684.472 533.182L678.655 527.347M557.835 603.754L561.136 599.986C561.704 599.337 562.624 599.126 563.417 599.462L572.78 603.419C573.308 603.643 573.907 603.628 574.424 603.38L587.133 597.269C588.461 596.631 589.999 597.6 589.997 599.072L589.994 602.505C589.993 603.286 590.448 603.996 591.157 604.323L604.108 610.281C604.397 610.414 604.65 610.614 604.846 610.864L608.979 616.141C609.949 617.38 611.904 617.063 612.434 615.582L613.781 611.819C614.066 611.024 614.82 610.493 615.664 610.494L620.752 610.499C621.855 610.501 622.751 609.607 622.752 608.503L622.76 600.132C622.761 599.409 622.371 598.742 621.741 598.388L608.622 591.016C607.992 590.662 607.602 589.995 607.603 589.272L607.61 581.979C607.612 580.28 609.597 579.358 610.896 580.453L616.884 585.498C618.46 586.826 620.771 585.188 620.04 583.261L618.06 578.042C617.973 577.814 617.929 577.574 617.93 577.331L617.936 571.44C617.937 570.488 618.61 569.668 619.544 569.482L629.462 567.507C629.861 567.427 630.226 567.228 630.509 566.936L646.491 550.399C646.868 550.008 647.388 549.788 647.93 549.789L659.038 549.8C660.142 549.801 661.037 548.908 661.038 547.804L661.048 537.935C661.049 537.048 660.466 536.268 659.616 536.016L654.146 534.4C652.651 533.958 652.215 532.052 653.368 531.004L656.846 527.845C657.215 527.511 657.694 527.326 658.192 527.326L664.093 527.332L678.655 527.347M678.655 527.347L696.727 519.529C696.819 519.49 696.907 519.443 696.992 519.39L706.132 513.685C706.425 513.502 706.665 513.246 706.83 512.942L713.824 500.048C714.22 499.319 714.123 498.421 713.582 497.792L703.451 486.026C703.139 485.662 702.967 485.199 702.968 484.72L702.972 479.99C702.973 479.247 702.562 478.565 701.904 478.219L691.309 472.65C690.651 472.304 690.239 471.622 690.24 470.879L690.245 466.181C690.245 465.682 690.432 465.202 690.768 464.835L701.774 452.792C702.47 452.031 702.472 450.866 701.78 450.102L685.666 432.321C685.149 431.751 685.005 430.934 685.297 430.221L689.818 419.19C690.109 418.481 689.969 417.668 689.457 417.098L685.434 412.614C685.055 412.192 684.515 411.951 683.949 411.95L670.025 411.936C669.417 411.936 668.843 412.211 668.463 412.685L664.804 417.254C664.425 417.728 663.85 418.004 663.243 418.003L658.04 417.998C657.705 417.997 657.376 418.081 657.082 418.241L653.456 420.216C652.211 420.894 652.048 422.617 653.144 423.516L655.864 425.748C656.759 426.483 656.844 427.824 656.048 428.666L647.787 437.404C647.409 437.804 646.883 438.03 646.333 438.029L638.11 438.021C636.416 438.019 635.492 436.044 636.577 434.743L642.793 427.292C642.903 427.16 642.995 427.014 643.068 426.858L646.392 419.747C646.85 418.767 646.445 417.6 645.478 417.115L639.938 414.335M639.938 414.335L641.673 401.694C641.737 401.229 641.962 400.802 642.309 400.487L661.159 383.367C661.575 382.989 661.813 382.453 661.813 381.89L661.828 367.192C661.829 366.668 662.035 366.165 662.402 365.792L695.582 332.083C696.577 331.072 696.232 329.376 694.922 328.834L689.044 326.405C688.087 326.009 687.591 324.948 687.9 323.96L690.013 317.218C690.247 316.471 690.896 315.929 691.673 315.832L704.961 314.183M771.356 655.598L772.889 641.917C773.039 640.573 774.454 639.763 775.689 640.314L777.466 641.107C778.187 641.429 778.651 642.145 778.65 642.934L778.635 657.271C778.635 657.376 778.627 657.48 778.611 657.583L776.938 668.118C776.852 668.66 776.992 669.213 777.326 669.648L782.449 676.329C782.717 676.679 782.862 677.107 782.862 677.547L782.848 691.445L782.818 721.064C782.817 721.548 782.641 722.015 782.323 722.379L770.648 735.708C770.274 736.135 770.1 736.7 770.168 737.264L772.983 760.572C773.039 761.032 772.932 761.498 772.683 761.888L759.682 782.213C759.314 782.788 758.679 783.135 757.997 783.135L755.629 783.132C754.526 783.131 753.632 782.236 753.633 781.132L753.636 778.401C753.637 777.588 753.145 776.856 752.392 776.549L734.836 769.388C734.442 769.227 734.11 768.945 733.887 768.583L730.571 763.176C729.941 762.149 730.357 760.803 731.456 760.309L737.478 757.604C739.048 756.898 739.051 754.669 737.481 753.96L729.395 750.307L726.181 748.373C724.89 747.595 724.891 745.722 726.185 744.947L731.71 741.636C732.175 741.357 732.507 740.901 732.629 740.373L733.592 736.216C733.913 734.83 732.722 733.561 731.318 733.794L723.801 735.04C723.5 735.09 723.19 735.071 722.898 734.982L720.573 734.281C719.104 733.839 718.661 731.975 719.774 730.919L727.41 723.672C728.4 722.732 728.177 721.098 726.972 720.458L720.005 716.756C719.445 716.459 719.06 715.913 718.966 715.286L717.539 705.698C717.403 704.781 717.915 703.891 718.775 703.548L722.674 701.991C724.208 701.379 724.379 699.275 722.964 698.423L719.776 696.504C718.583 695.786 718.471 694.1 719.559 693.231L725.675 688.343C726.149 687.964 726.425 687.391 726.425 686.784L726.436 676.223C726.437 675.467 726.865 674.776 727.542 674.438L755.895 660.282C756.458 660.001 757.121 660.001 757.684 660.284L768.453 665.688C769.781 666.354 771.346 665.39 771.348 663.904L771.356 655.598Z" stroke="white" stroke-linejoin="round"/>
</svg>
