<svg width="28" height="27" viewBox="0 0 28 27" fill="none" xmlns="http://www.w3.org/2000/svg">
<path d="M21.725 26.55L12.65 17.4C12.15 17.6 11.644 17.75 11.132 17.85C10.619 17.95 10.075 18 9.5 18C7 18 4.875 17.125 3.125 15.375C1.375 13.625 0.5 11.5 0.5 9C0.5 8.1 0.625 7.2435 0.875 6.4305C1.125 5.6185 1.475 4.85 1.925 4.125L7.4 9.6L10.1 6.9L4.625 1.425C5.35 0.975 6.1185 0.625 6.9305 0.375C7.7435 0.125 8.6 0 9.5 0C12 0 14.125 0.875 15.875 2.625C17.625 4.375 18.5 6.5 18.5 9C18.5 9.575 18.45 10.1185 18.35 10.6305C18.25 11.1435 18.1 11.65 17.9 12.15L27.05 21.225C27.35 21.525 27.5 21.8875 27.5 22.3125C27.5 22.7375 27.35 23.1 27.05 23.4L23.9 26.55C23.6 26.85 23.2375 27 22.8125 27C22.3875 27 22.025 26.85 21.725 26.55ZM22.8125 23.3625L23.825 22.35L14.225 12.75C14.675 12.25 15 11.6685 15.2 11.0055C15.4 10.3435 15.5 9.675 15.5 9C15.5 7.5 15.019 6.1935 14.057 5.0805C13.094 3.9685 11.9 3.3 10.475 3.075L13.25 5.85C13.55 6.15 13.7 6.5 13.7 6.9C13.7 7.3 13.55 7.65 13.25 7.95L8.45 12.75C8.15 13.05 7.8 13.2 7.4 13.2C7 13.2 6.65 13.05 6.35 12.75L3.575 9.975C3.8 11.4 4.469 12.5935 5.582 13.5555C6.694 14.5185 8 15 9.5 15C10.15 15 10.8 14.9 11.45 14.7C12.1 14.5 12.6875 14.1875 13.2125 13.7625L22.8125 23.3625Z" fill="#FFB26B"/>
</svg>
