<svg width="24" height="22" viewBox="0 0 24 22" fill="none" xmlns="http://www.w3.org/2000/svg">
<path d="M0.0615234 21.1546L11.735 0.991211L23.4086 21.1546H0.0615234ZM3.72276 19.0321H19.7473L11.735 5.23613L3.72276 19.0321ZM11.735 17.9709C12.0357 17.9709 12.2879 17.869 12.4917 17.6652C12.6947 17.4622 12.7963 17.2103 12.7963 16.9096C12.7963 16.609 12.6947 16.3571 12.4917 16.154C12.2879 15.9503 12.0357 15.8484 11.735 15.8484C11.4344 15.8484 11.1825 15.9503 10.9794 16.154C10.7757 16.3571 10.6738 16.609 10.6738 16.9096C10.6738 17.2103 10.7757 17.4622 10.9794 17.6652C11.1825 17.869 11.4344 17.9709 11.735 17.9709ZM10.6738 14.7872H12.7963V9.48104H10.6738V14.7872Z" fill="#810909"/>
</svg>
