<svg width="24" height="24" viewBox="0 0 24 24" fill="none" xmlns="http://www.w3.org/2000/svg">
<path d="M1.33364 24C0.955861 24 0.639416 23.872 0.384305 23.616C0.128305 23.3609 0.000305176 23.0444 0.000305176 22.6667C0.000305176 22.2889 0.128305 21.9724 0.384305 21.7173C0.639416 21.4613 0.955861 21.3333 1.33364 21.3333H2.66697V13.3333H1.33364C0.955861 13.3333 0.639416 13.2053 0.384305 12.9493C0.128305 12.6942 0.000305176 12.3778 0.000305176 12C0.000305176 11.6222 0.128305 11.3053 0.384305 11.0493C0.639416 10.7942 0.955861 10.6667 1.33364 10.6667H2.66697V2.66667H1.33364C0.955861 2.66667 0.639416 2.53867 0.384305 2.28267C0.128305 2.02756 0.000305176 1.71111 0.000305176 1.33333C0.000305176 0.955556 0.128305 0.638667 0.384305 0.382667C0.639416 0.127555 0.955861 0 1.33364 0H22.667C23.0448 0 23.3612 0.127555 23.6163 0.382667C23.8723 0.638667 24.0003 0.955556 24.0003 1.33333C24.0003 1.71111 23.8723 2.02756 23.6163 2.28267C23.3612 2.53867 23.0448 2.66667 22.667 2.66667H21.3336V10.6667H22.667C23.0448 10.6667 23.3612 10.7942 23.6163 11.0493C23.8723 11.3053 24.0003 11.6222 24.0003 12C24.0003 12.3778 23.8723 12.6942 23.6163 12.9493C23.3612 13.2053 23.0448 13.3333 22.667 13.3333H21.3336V21.3333H22.667C23.0448 21.3333 23.3612 21.4613 23.6163 21.7173C23.8723 21.9724 24.0003 22.2889 24.0003 22.6667C24.0003 23.0444 23.8723 23.3609 23.6163 23.616C23.3612 23.872 23.0448 24 22.667 24H1.33364ZM5.33364 21.3333H18.667V13.3333C18.2892 13.3333 17.9727 13.2053 17.7176 12.9493C17.4616 12.6942 17.3336 12.3778 17.3336 12C17.3336 11.6222 17.4616 11.3053 17.7176 11.0493C17.9727 10.7942 18.2892 10.6667 18.667 10.6667V2.66667H5.33364V10.6667C5.71142 10.6667 6.02831 10.7942 6.28431 11.0493C6.53942 11.3053 6.66697 11.6222 6.66697 12C6.66697 12.3778 6.53942 12.6942 6.28431 12.9493C6.02831 13.2053 5.71142 13.3333 5.33364 13.3333V21.3333ZM12.0003 17.3333C13.1114 17.3333 14.0559 16.9498 14.8336 16.1827C15.6114 15.4164 16.0003 14.4889 16.0003 13.4C16.0003 12.5333 15.7505 11.7889 15.251 11.1667C14.7505 10.5444 13.667 9.26667 12.0003 7.33333C10.3336 9.24444 9.25008 10.5164 8.74964 11.1493C8.25008 11.7831 8.00031 12.5333 8.00031 13.4C8.00031 14.4889 8.38919 15.4164 9.16697 16.1827C9.94475 16.9498 10.8892 17.3333 12.0003 17.3333Z" fill="#1C1B1F"/>
</svg>
