<svg width="32" height="33" viewBox="0 0 32 33" fill="none" xmlns="http://www.w3.org/2000/svg">
<path d="M3.64309 29.5553H29.4308C30.2976 29.5553 31 30.2143 31 31.0281C31 31.841 30.2976 32.5 29.4308 32.5H1" stroke="black" stroke-width="0.363377" stroke-miterlimit="10" stroke-linecap="round" stroke-linejoin="round"/>
<path d="M29.4308 18.9532H3.64302C2.77621 18.9532 2.07338 18.2942 2.07338 17.4808C2.07338 16.6675 2.77621 16.0085 3.64302 16.0085H29.4308C30.2976 16.0085 30.9999 16.6675 30.9999 17.4808C30.9999 18.2942 30.2976 18.9532 29.4308 18.9532Z" stroke="black" stroke-width="0.363377" stroke-miterlimit="10" stroke-linecap="round" stroke-linejoin="round"/>
<path d="M29.4308 5.40669H3.64302C2.77621 5.40669 2.07338 4.74722 2.07338 3.93389C2.07338 3.121 2.77621 2.46153 3.64302 2.46153H29.4308C30.2976 2.46153 30.9999 3.121 30.9999 3.93389C30.9999 4.74722 30.2976 5.40669 29.4308 5.40669Z" stroke="black" stroke-width="0.363377" stroke-miterlimit="10" stroke-linecap="round" stroke-linejoin="round"/>
<path d="M27.7758 19.1234V29.5553H4.48664V19.1559" stroke="black" stroke-width="0.363377" stroke-miterlimit="10" stroke-linecap="round" stroke-linejoin="round"/>
<path d="M4.48696 16.0085V5.40676H27.7762V16.0085" stroke="black" stroke-width="0.363377" stroke-miterlimit="10" stroke-linecap="round" stroke-linejoin="round"/>
<path d="M21.9339 0.5H25.9561" stroke="black" stroke-width="0.363377" stroke-miterlimit="10" stroke-linecap="round" stroke-linejoin="round"/>
</svg>
