<svg width="29" height="28" viewBox="0 0 29 28" fill="none" xmlns="http://www.w3.org/2000/svg">
<path d="M28.75 14C28.75 21.6712 22.5311 27.8904 14.8596 27.8904C7.18814 27.8904 0.969238 21.6712 0.969238 14C0.969238 6.32854 7.18814 0.109403 14.8596 0.109403C22.5311 0.109403 28.75 6.32854 28.75 14Z" fill="#2672B0"/>
<path d="M16.0767 7.58708C17.8887 10.4121 20.7775 15.2809 20.7775 17.605C20.7775 20.9915 18.0325 23.7366 14.6462 23.7366C11.26 23.7366 8.51489 20.9915 8.51489 17.605C8.51489 14.2188 14.6462 5.43273 14.6462 5.43273" stroke="white" stroke-width="0.34845" stroke-miterlimit="10" stroke-linecap="round" stroke-linejoin="round"/>
<path d="M18.3884 20.4801C17.8636 20.6373 17.3084 20.7242 16.7326 20.7242C13.6432 20.7242 11.129 18.2913 10.9843 15.238C10.7169 15.9872 10.5518 16.645 10.5518 17.1277C10.5518 19.6891 12.6283 21.7654 15.1894 21.7654" stroke="white" stroke-width="0.34845" stroke-miterlimit="10" stroke-linecap="round" stroke-linejoin="round"/>
</svg>
