<svg width="33" height="33" viewBox="0 0 33 33" fill="none" xmlns="http://www.w3.org/2000/svg">
<path d="M8.90546 30.104C10.8165 24.9829 11.631 19.5343 11.2913 14.0873H20.8734C20.4892 20.2461 21.5809 26.4076 24.0647 32.0944L24.3781 32.8123H5" stroke="black" stroke-width="0.363377" stroke-miterlimit="10" stroke-linecap="round" stroke-linejoin="round"/>
<path d="M20.8183 17.1236C20.8919 21.712 21.7793 26.2549 23.4482 30.5606H29.5343L29.3091 30.0457C27.5272 25.9646 26.7438 21.5432 27.0194 17.1236H20.8183Z" stroke="black" stroke-width="0.363377" stroke-miterlimit="10" stroke-linecap="round" stroke-linejoin="round"/>
<path d="M14.0012 0.199999C13.0386 0.199999 12.2575 0.95202 12.2575 1.88009C12.2575 2.33502 12.4472 2.74632 12.752 3.04872C11.9461 3.51655 11.4051 4.36533 11.4051 5.3378C11.4051 6.81414 12.6472 8.01085 14.1787 8.01085C14.2807 8.01085 14.3724 7.98011 14.4712 7.96987C14.746 9.39575 16.0385 10.4775 17.598 10.4775C19.357 10.4775 20.783 9.10321 20.783 7.40794C20.783 6.64871 20.4865 5.96271 20.0125 5.42696C20.4743 4.93902 20.7593 4.29324 20.7593 3.5803C20.7593 2.06032 19.481 0.828707 17.9043 0.828707C17.0354 0.828707 16.2586 1.20396 15.735 1.79396" stroke="black" stroke-width="0.363377" stroke-miterlimit="10" stroke-linecap="round" stroke-linejoin="round"/>
<path d="M20.7829 19.0725H14.0653" stroke="black" stroke-width="0.363377" stroke-miterlimit="10" stroke-linecap="round" stroke-linejoin="round"/>
<path d="M27 21.2H23" stroke="black" stroke-width="0.363377" stroke-miterlimit="10" stroke-linecap="round" stroke-linejoin="round"/>
</svg>
