<svg width="28" height="28" viewBox="0 0 28 28" fill="none" xmlns="http://www.w3.org/2000/svg">
<path d="M27.8415 14.0823C27.8415 21.7535 21.6226 27.9727 13.9512 27.9727C6.27968 27.9727 0.0605469 21.7535 0.0605469 14.0823C0.0605469 6.41081 6.27968 0.191679 13.9512 0.191679C21.6226 0.191679 27.8415 6.41081 27.8415 14.0823Z" fill="#E27B30"/>
<path d="M15.0204 6.29948C15.0204 5.37539 14.7117 4.55305 14.2292 3.9781C13.7467 4.55305 13.438 5.37539 13.438 6.29948C13.438 7.22357 13.7467 8.04591 14.2292 8.62085" stroke="white" stroke-width="0.34845" stroke-miterlimit="10" stroke-linecap="round" stroke-linejoin="round"/>
<path d="M15.0204 21.8651C15.0204 20.941 14.7117 20.1185 14.2292 19.5438C13.7467 20.1185 13.438 20.941 13.438 21.8651C13.438 22.7892 13.7467 23.6116 14.2292 24.1863C14.7117 23.6116 15.0204 22.7892 15.0204 21.8651Z" stroke="white" stroke-width="0.34845" stroke-miterlimit="10" stroke-linecap="round" stroke-linejoin="round"/>
<path d="M22.0548 13.2909C21.1305 13.2909 20.3081 13.5996 19.7334 14.0821C20.3081 14.5648 21.1305 14.8735 22.0548 14.8735C22.9789 14.8735 23.8012 14.5648 24.3759 14.0821C23.8012 13.5996 22.9789 13.2909 22.0548 13.2909Z" stroke="white" stroke-width="0.34845" stroke-miterlimit="10" stroke-linecap="round" stroke-linejoin="round"/>
<path d="M6.40365 14.8735C7.32774 14.8735 8.15008 14.5648 8.72479 14.0823C8.15008 13.5996 7.32774 13.2911 6.40365 13.2911C5.47956 13.2911 4.65699 13.5996 4.08228 14.0823C4.65699 14.5648 5.47956 14.8735 6.40365 14.8735Z" stroke="white" stroke-width="0.34845" stroke-miterlimit="10" stroke-linecap="round" stroke-linejoin="round"/>
<path d="M20.3221 19.056C19.6687 18.4026 18.8686 18.0395 18.1208 17.9742C18.1864 18.722 18.5497 19.5218 19.2031 20.175C19.8564 20.8285 20.6562 21.1918 21.4039 21.2571C21.3387 20.5093 20.9756 19.7095 20.3221 19.056Z" stroke="white" stroke-width="0.34845" stroke-miterlimit="10" stroke-linecap="round" stroke-linejoin="round"/>
<path d="M8.13602 9.10838C8.78948 9.76184 9.58952 10.1249 10.3373 10.1904C10.2718 9.44242 9.9087 8.64285 9.25501 7.98939C8.60178 7.33593 7.8022 6.97261 7.0542 6.90733C7.11948 7.65511 7.48256 8.45492 8.13602 9.10838Z" stroke="white" stroke-width="0.34845" stroke-miterlimit="10" stroke-linecap="round" stroke-linejoin="round"/>
<path d="M9.25524 20.1753C9.9087 19.5218 10.2718 18.722 10.3371 17.9742C9.58929 18.0397 8.78948 18.4028 8.13625 19.0563C7.48279 19.7095 7.11948 20.5093 7.0542 21.2571C7.80197 21.192 8.60178 20.8287 9.25524 20.1753Z" stroke="white" stroke-width="0.34845" stroke-miterlimit="10" stroke-linecap="round" stroke-linejoin="round"/>
<path d="M19.2029 7.98914C18.5495 8.6426 18.1864 9.44241 18.1211 10.1902C18.8689 10.1249 19.6687 9.76159 20.3219 9.10813C20.9754 8.45491 21.3387 7.6551 21.4042 6.90732C20.6562 6.9726 19.8564 7.33568 19.2029 7.98914Z" stroke="white" stroke-width="0.34845" stroke-miterlimit="10" stroke-linecap="round" stroke-linejoin="round"/>
<path d="M19.6903 14.0823C19.6903 17.0983 17.2454 19.5437 14.2289 19.5437C11.2128 19.5437 8.76758 17.0983 8.76758 14.0823C8.76758 12.8481 9.17689 11.7096 9.86729 10.7951C10.4422 10.0331 11.2125 9.42681 12.1032 9.05002C12.7564 8.77358 13.4749 8.62096 14.2289 8.62096C14.954 8.62096 15.6462 8.7622 16.2792 9.01866C18.2796 9.82938 19.6903 11.7912 19.6903 14.0823Z" stroke="white" stroke-width="0.34845" stroke-miterlimit="10" stroke-linecap="round" stroke-linejoin="round"/>
</svg>
