<svg width="33" height="33" viewBox="0 0 33 33" fill="none" xmlns="http://www.w3.org/2000/svg">
<g clip-path="url(#clip0_1_2)">
<path d="M17.9114 29.0581C17.9114 27.6126 17.4284 26.3259 16.6737 25.4269C15.919 26.3259 15.436 27.6126 15.436 29.0581C15.436 30.5036 15.919 31.79 16.6737 32.689C17.4284 31.79 17.9114 30.5036 17.9114 29.0581Z" stroke="black" stroke-width="0.363377" stroke-miterlimit="10" stroke-linecap="round" stroke-linejoin="round"/>
<path d="M17.9114 4.6312C17.9114 3.1857 17.4284 1.899 16.6737 1C15.919 1.899 15.436 3.1857 15.436 4.6312C15.436 6.0767 15.919 7.3631 16.6737 8.2621C17.4284 7.3631 17.9114 6.0767 17.9114 4.6312Z" stroke="black" stroke-width="0.363377" stroke-miterlimit="10" stroke-linecap="round" stroke-linejoin="round"/>
<path d="M28.9149 15.6459C27.469 15.6459 26.1827 16.1288 25.2837 16.8836C26.1827 17.6387 27.469 18.1216 28.9149 18.1216C30.3604 18.1216 31.6468 17.6387 32.5458 16.8836C31.6468 16.1288 30.3604 15.6459 28.9149 15.6459Z" stroke="black" stroke-width="0.363377" stroke-miterlimit="10" stroke-linecap="round" stroke-linejoin="round"/>
<path d="M4.43274 18.1216C5.87825 18.1216 7.16461 17.6387 8.0636 16.8839C7.16461 16.1288 5.87825 15.6463 4.43274 15.6463C2.98723 15.6463 1.70051 16.1288 0.801514 16.8839C1.70051 17.6387 2.98723 18.1216 4.43274 18.1216Z" stroke="black" stroke-width="0.363377" stroke-miterlimit="10" stroke-linecap="round" stroke-linejoin="round"/>
<path d="M26.2048 24.6642C25.1827 23.642 23.9312 23.074 22.7615 22.9719C22.8639 24.1416 23.4323 25.3928 24.4544 26.4146C25.4763 27.4367 26.7274 28.0051 27.8971 28.1072C27.795 26.9375 27.227 25.6864 26.2048 24.6642Z" stroke="black" stroke-width="0.363377" stroke-miterlimit="10" stroke-linecap="round" stroke-linejoin="round"/>
<path d="M7.14244 9.10329C8.16462 10.1255 9.41609 10.6934 10.5858 10.7959C10.4833 9.62582 9.91537 8.37508 8.89283 7.3529C7.87101 6.33072 6.62027 5.7624 5.4502 5.66029C5.5523 6.83 6.12026 8.08111 7.14244 9.10329Z" stroke="black" stroke-width="0.363377" stroke-miterlimit="10" stroke-linecap="round" stroke-linejoin="round"/>
<path d="M8.89344 26.4147C9.91562 25.3925 10.4836 24.1414 10.5857 22.9717C9.41597 23.0742 8.16487 23.6421 7.14305 24.6643C6.12087 25.6861 5.55255 26.9372 5.45044 28.1069C6.62015 28.0052 7.87126 27.4369 8.89344 26.4147Z" stroke="black" stroke-width="0.363377" stroke-miterlimit="10" stroke-linecap="round" stroke-linejoin="round"/>
<path d="M24.454 7.35266C23.4318 8.37484 22.8638 9.62594 22.7617 10.7957C23.9314 10.6935 25.1825 10.1252 26.2044 9.10304C27.2265 8.08123 27.7949 6.83012 27.8973 5.66041C26.7273 5.76252 25.4761 6.33048 24.454 7.35266Z" stroke="black" stroke-width="0.363377" stroke-miterlimit="10" stroke-linecap="round" stroke-linejoin="round"/>
<path d="M25.2166 16.884C25.2166 21.6017 21.3921 25.427 16.6736 25.427C11.9555 25.427 8.13062 21.6017 8.13062 16.884C8.13062 14.9534 8.77089 13.1725 9.85084 11.7419C10.7502 10.55 11.9552 9.60157 13.3483 9.01217C14.3702 8.57975 15.4941 8.34102 16.6736 8.34102C17.8077 8.34102 18.8906 8.56195 19.8808 8.96312C23.0098 10.2313 25.2166 13.3 25.2166 16.884Z" stroke="black" stroke-width="0.363377" stroke-miterlimit="10" stroke-linecap="round" stroke-linejoin="round"/>
</g>
<defs>
<clipPath id="clip0_1_2">
<rect width="33" height="33" fill="white"/>
</clipPath>
</defs>
</svg>
