<svg width="30" height="30" viewBox="0 0 30 30" fill="none" xmlns="http://www.w3.org/2000/svg">
<path d="M13.6666 5.66659V0.333252H16.3333V5.66659H13.6666ZM22.5333 9.33325L20.7 7.49992L24.4333 3.66659L26.3 5.56659L22.5333 9.33325ZM24.3333 16.3333V13.6666H29.6666V16.3333H24.3333ZM13.6666 29.6666V24.3333H16.3333V29.6666H13.6666ZM7.46665 9.26659L3.66665 5.56659L5.56665 3.69992L9.33331 7.46659L7.46665 9.26659ZM24.4 26.3333L20.7 22.4999L22.5 20.6999L26.3 24.3666L24.4 26.3333ZM0.333313 16.3333V13.6666H5.66665V16.3333H0.333313ZM5.56665 26.3333L3.69998 24.4333L7.43331 20.6999L8.39998 21.5999L9.36665 22.5333L5.56665 26.3333ZM15 22.9999C12.7778 22.9999 10.8889 22.2221 9.33331 20.6666C7.77776 19.111 6.99998 17.2221 6.99998 14.9999C6.99998 12.7777 7.77776 10.8888 9.33331 9.33325C10.8889 7.7777 12.7778 6.99992 15 6.99992C17.2222 6.99992 19.1111 7.7777 20.6666 9.33325C22.2222 10.8888 23 12.7777 23 14.9999C23 17.2221 22.2222 19.111 20.6666 20.6666C19.1111 22.2221 17.2222 22.9999 15 22.9999ZM15 20.3333C16.4666 20.3333 17.7222 19.811 18.7666 18.7666C19.8111 17.7221 20.3333 16.4666 20.3333 14.9999C20.3333 13.5333 19.8111 12.2777 18.7666 11.2333C17.7222 10.1888 16.4666 9.66659 15 9.66659C13.5333 9.66659 12.2778 10.1888 11.2333 11.2333C10.1889 12.2777 9.66665 13.5333 9.66665 14.9999C9.66665 16.4666 10.1889 17.7221 11.2333 18.7666C12.2778 19.811 13.5333 20.3333 15 20.3333Z" fill="#1C1B1F"/>
</svg>
