<svg width="26" height="24" viewBox="0 0 26 24" fill="none" xmlns="http://www.w3.org/2000/svg">
<path d="M22.5625 7.25425C21.925 7.89175 21.1931 8.37578 20.3667 8.70633C19.5403 9.03689 18.7139 9.20216 17.8875 9.20216C17.0611 9.20216 16.2465 9.04279 15.4438 8.72404C14.641 8.40529 13.9208 7.91536 13.2833 7.25425L10.6271 4.598C10.2729 4.24383 9.87153 3.97821 9.42292 3.80112C8.97431 3.62404 8.51389 3.5355 8.04167 3.5355C7.56944 3.5355 7.10903 3.62404 6.66042 3.80112C6.21181 3.97821 5.81042 4.24383 5.45625 4.598L2.8 7.25425L0.78125 5.2355L3.4375 2.57925C4.075 1.94175 4.79514 1.46362 5.59792 1.14487C6.40069 0.826123 7.21528 0.666748 8.04167 0.666748C8.86806 0.666748 9.67674 0.826123 10.4677 1.14487C11.2587 1.46362 11.9729 1.94175 12.6104 2.57925L15.2667 5.2355C15.6444 5.61328 16.0576 5.89071 16.5063 6.06779C16.9549 6.24487 17.4153 6.33341 17.8875 6.33341C18.3597 6.33341 18.826 6.24487 19.2865 6.06779C19.7469 5.89071 20.166 5.61328 20.5437 5.2355L23.2 2.57925L25.2188 4.598L22.5625 7.25425ZM22.5625 14.3376C21.925 14.9751 21.199 15.4532 20.3844 15.772C19.5698 16.0907 18.7493 16.2501 17.9229 16.2501C17.0965 16.2501 16.276 16.0907 15.4615 15.772C14.6469 15.4532 13.9208 14.9751 13.2833 14.3376L10.6271 11.6813C10.2729 11.3272 9.87153 11.0615 9.42292 10.8845C8.97431 10.7074 8.51389 10.6188 8.04167 10.6188C7.56944 10.6188 7.10903 10.7074 6.66042 10.8845C6.21181 11.0615 5.81042 11.3272 5.45625 11.6813L2.8 14.3376L0.78125 12.3542L3.4375 9.66258C4.075 9.02508 4.79514 8.54696 5.59792 8.22821C6.40069 7.90946 7.21528 7.75008 8.04167 7.75008C8.86806 7.75008 9.67674 7.90946 10.4677 8.22821C11.2587 8.54696 11.9729 9.02508 12.6104 9.66258L15.2667 12.3188C15.6444 12.6966 16.0576 12.974 16.5063 13.1511C16.9549 13.3282 17.4153 13.4167 17.8875 13.4167C18.3597 13.4167 18.826 13.3282 19.2865 13.1511C19.7469 12.974 20.166 12.6966 20.5437 12.3188L23.2 9.66258L25.2188 11.6813L22.5625 14.3376ZM22.5271 21.4209C21.8896 22.0584 21.1694 22.5365 20.3667 22.8553C19.5639 23.174 18.7493 23.3334 17.9229 23.3334C17.0965 23.3334 16.276 23.174 15.4615 22.8553C14.6469 22.5365 13.9208 22.0584 13.2833 21.4209L10.5917 18.7647C10.2375 18.4105 9.83611 18.1449 9.3875 17.9678C8.93889 17.7907 8.47847 17.7022 8.00625 17.7022C7.53403 17.7022 7.07361 17.7907 6.625 17.9678C6.17639 18.1449 5.775 18.4105 5.42083 18.7647L2.76458 21.4209L0.78125 19.4376L3.4375 16.7459C4.075 16.1084 4.79514 15.6303 5.59792 15.3115C6.40069 14.9928 7.21528 14.8334 8.04167 14.8334C8.86806 14.8334 9.67674 14.9928 10.4677 15.3115C11.2587 15.6303 11.9729 16.1084 12.6104 16.7459L15.2667 19.4022C15.6444 19.7799 16.0635 20.0574 16.524 20.2345C16.9844 20.4115 17.4507 20.5001 17.9229 20.5001C18.3951 20.5001 18.8556 20.4115 19.3042 20.2345C19.7528 20.0574 20.166 19.7799 20.5437 19.4022L23.2 16.7459L25.1833 18.7647L22.5271 21.4209Z" fill="#1C1B1F"/>
</svg>
