<svg width="33" height="33" viewBox="0 0 33 33" fill="none" xmlns="http://www.w3.org/2000/svg">
<path d="M15.5944 13.9134C17.6303 13.9134 19.281 29.6967 19.281 31.584C19.281 33.472 11.9079 33.472 11.9079 31.584C11.9079 31.1302 12.0034 29.8728 12.1767 28.224C12.4995 25.1564 13.0916 20.7343 13.8403 17.6197" stroke="black" stroke-width="0.363377" stroke-miterlimit="10" stroke-linecap="round" stroke-linejoin="round"/>
<path d="M13.0729 9.83238C12.9985 9.59315 12.8436 8.91746 12.6653 8.02487C12.3338 6.36375 11.9229 3.95143 11.8082 2.20594C11.7284 0.989381 11.792 0.0967992 12.1264 0.00742535C12.8564 -0.187502 14.6887 3.49763 15.8811 6.18269" stroke="black" stroke-width="0.363377" stroke-miterlimit="10" stroke-linecap="round" stroke-linejoin="round"/>
<path d="M15.2994 13.9288C15.0958 14.091 14.4975 14.5028 13.6961 15.0244C12.2049 15.9948 10.0099 17.3443 8.34551 18.1671C7.18549 18.7404 6.28307 19.0582 6.05663 18.8132C5.32995 18.0281 11.8214 11.7592 12.6682 11.0854" stroke="black" stroke-width="0.363377" stroke-miterlimit="10" stroke-linecap="round" stroke-linejoin="round"/>
<path d="M17.3685 13.3769C17.634 13.4139 18.3769 13.4679 19.3545 13.5149C21.1743 13.6019 23.8072 13.6636 25.6885 13.5403C26.9998 13.4548 27.9458 13.2791 27.9978 12.9597C28.1631 11.9369 19.0712 9.8251 17.9677 9.67178" stroke="black" stroke-width="0.363377" stroke-miterlimit="10" stroke-linecap="round" stroke-linejoin="round"/>
<path d="M18.5184 11.2023C18.5184 12.6997 17.2092 13.9135 15.5942 13.9135C13.9797 13.9135 12.6705 12.6997 12.6705 11.2023C12.6705 9.70486 13.9797 8.49138 15.5942 8.49138C17.2092 8.49138 18.5184 9.70486 18.5184 11.2023Z" stroke="black" stroke-width="0.363377" stroke-miterlimit="10" stroke-linecap="round" stroke-linejoin="round"/>
</svg>
