<svg width="28" height="28" viewBox="0 0 28 28" fill="none" xmlns="http://www.w3.org/2000/svg">
<path d="M27.7807 13.8906C27.7807 21.5618 21.5618 27.781 13.8904 27.781C6.2189 27.781 0 21.5618 0 13.8906C0 6.21913 6.2189 -2.08685e-06 13.8904 -2.08685e-06C21.5618 -2.08685e-06 27.7807 6.21913 27.7807 13.8906Z" fill="#39B593"/>
<path d="M14.3705 12.7595C15.5088 12.7595 16.4317 22.2771 16.4317 23.4151C16.4317 24.5536 12.3093 24.5536 12.3093 23.4151C12.3093 23.1415 12.3628 22.3833 12.4596 21.389C12.6401 19.5392 12.9711 16.8726 13.3898 14.9945" stroke="white" stroke-width="0.34845" stroke-miterlimit="10" stroke-linecap="round" stroke-linejoin="round"/>
<path d="M12.9608 10.2986C12.9192 10.1543 12.8325 9.74684 12.7329 9.2086C12.5475 8.20693 12.3178 6.75226 12.2536 5.69971C12.209 4.96611 12.2446 4.42787 12.4316 4.37398C12.8397 4.25643 13.8642 6.47862 14.5309 8.09775" stroke="white" stroke-width="0.34845" stroke-miterlimit="10" stroke-linecap="round" stroke-linejoin="round"/>
<path d="M14.2058 12.7689C14.0919 12.8667 13.7574 13.1151 13.3093 13.4296C12.4756 14.0148 11.2483 14.8285 10.3178 15.3247C9.66917 15.6704 9.16461 15.862 9.03801 15.7143C8.63172 15.2409 12.2612 11.4606 12.7346 11.0543" stroke="white" stroke-width="0.34845" stroke-miterlimit="10" stroke-linecap="round" stroke-linejoin="round"/>
<path d="M15.3625 12.4361C15.511 12.4584 15.9263 12.4909 16.4729 12.5192C17.4904 12.5717 18.9625 12.6089 20.0144 12.5345C20.7475 12.483 21.2764 12.377 21.3055 12.1845C21.3979 11.5677 16.3145 10.2942 15.6975 10.2018" stroke="white" stroke-width="0.34845" stroke-miterlimit="10" stroke-linecap="round" stroke-linejoin="round"/>
<path d="M16.0055 11.1248C16.0055 12.0278 15.2735 12.7597 14.3705 12.7597C13.4678 12.7597 12.7358 12.0278 12.7358 11.1248C12.7358 10.2219 13.4678 9.49012 14.3705 9.49012C15.2735 9.49012 16.0055 10.2219 16.0055 11.1248Z" stroke="white" stroke-width="0.34845" stroke-miterlimit="10" stroke-linecap="round" stroke-linejoin="round"/>
</svg>
