<svg width="29" height="30" viewBox="0 0 29 30" fill="none" xmlns="http://www.w3.org/2000/svg">
<path d="M12.3318 29.6668C12.3318 28.9335 12.5932 28.3055 13.1159 27.7828C13.6376 27.2611 14.2652 27.0002 14.9985 27.0002V20.0668C14.7318 19.9557 14.4821 19.8277 14.2492 19.6828C14.0154 19.5388 13.7985 19.3779 13.5985 19.2002L10.6652 21.0668C10.3541 21.2446 10.0154 21.3611 9.64918 21.4162C9.28207 21.4722 8.90963 21.4446 8.53185 21.3335L2.53185 19.6335C1.8874 19.4557 1.3594 19.0944 0.947848 18.5495C0.537182 18.0055 0.331848 17.3891 0.331848 16.7002C0.331848 15.8557 0.626515 15.1388 1.21585 14.5495C1.80429 13.9611 2.52074 13.6668 3.36518 13.6668H13.3985C13.6207 13.4224 13.8652 13.2113 14.1319 13.0335C14.3985 12.8557 14.6874 12.7113 14.9985 12.6002V8.0335C14.9985 7.65572 15.071 7.30016 15.2159 6.96683C15.3599 6.6335 15.5652 6.34461 15.8318 6.10016L20.3985 1.8335C20.9096 1.34461 21.5043 1.06683 22.1825 1.00016C22.8599 0.933498 23.4874 1.07794 24.0652 1.4335C24.7763 1.87794 25.2376 2.5055 25.4492 3.31616C25.6599 4.12772 25.543 4.88905 25.0985 5.60016L19.7985 14.3668C19.9541 14.6335 20.071 14.9224 20.1492 15.2335C20.2265 15.5446 20.2763 15.8668 20.2985 16.2002L23.8985 17.0668C24.2541 17.1557 24.5763 17.3113 24.8652 17.5335C25.1541 17.7557 25.3874 18.0224 25.5652 18.3335L28.5985 23.8002C28.9319 24.4002 29.0541 25.0335 28.9652 25.7002C28.8763 26.3668 28.5874 26.9446 28.0985 27.4335C27.4985 28.0335 26.7821 28.3335 25.9492 28.3335C25.1154 28.3335 24.3985 28.0335 23.7985 27.4335L17.6652 21.3002V27.0002C18.3985 27.0002 19.0265 27.2611 19.5492 27.7828C20.071 28.3055 20.3319 28.9335 20.3319 29.6668H12.3318ZM4.33185 5.66683V3.00016H12.3318V5.66683H4.33185ZM17.6652 8.0335V12.6002C17.6874 12.6002 17.7043 12.6055 17.7159 12.6162C17.7265 12.6277 17.743 12.6335 17.7652 12.6335L22.8319 4.20016C22.8763 4.11128 22.8874 4.01661 22.8652 3.91616C22.843 3.81661 22.7874 3.74461 22.6985 3.70016C22.6319 3.65572 22.5483 3.64461 22.4479 3.66683C22.3483 3.68905 22.2763 3.72239 22.2318 3.76683L17.6652 8.0335ZM0.331848 11.0002V8.3335H6.99852V11.0002H0.331848ZM16.3319 17.6668C16.7096 17.6668 17.0265 17.5388 17.2825 17.2828C17.5376 17.0277 17.6652 16.7113 17.6652 16.3335C17.6652 15.9557 17.5376 15.6388 17.2825 15.3828C17.0265 15.1277 16.7096 15.0002 16.3319 15.0002C15.9541 15.0002 15.6376 15.1277 15.3825 15.3828C15.1265 15.6388 14.9985 15.9557 14.9985 16.3335C14.9985 16.7113 15.1265 17.0277 15.3825 17.2828C15.6376 17.5388 15.9541 17.6668 16.3319 17.6668ZM9.29852 18.8002L12.3985 16.9335C12.3763 16.8224 12.3652 16.7224 12.3652 16.6335V16.3335H3.36518C3.25407 16.3335 3.16518 16.3668 3.09852 16.4335C3.03185 16.5002 2.99852 16.5891 2.99852 16.7002C2.99852 16.7891 3.02074 16.8668 3.06518 16.9335C3.10963 17.0002 3.17629 17.0446 3.26518 17.0668L9.29852 18.8002ZM23.2652 19.6335L19.4652 18.7668C19.4207 18.8113 19.3763 18.8668 19.3319 18.9335C19.2874 19.0002 19.243 19.0557 19.1985 19.1002L25.6985 25.5668C25.7652 25.6335 25.8541 25.6668 25.9652 25.6668C26.0763 25.6668 26.1652 25.6335 26.2319 25.5668C26.2985 25.5002 26.3376 25.4282 26.3492 25.3508C26.3599 25.2726 26.343 25.1891 26.2985 25.1002L23.2652 19.6335ZM2.99852 27.0002V24.3335H9.66518V27.0002H2.99852Z" fill="#1C1B1F"/>
</svg>
