<svg width="28" height="28" viewBox="0 0 28 28" fill="none" xmlns="http://www.w3.org/2000/svg">
<path d="M27.7807 13.8906C27.7807 21.5618 21.5618 27.781 13.8904 27.781C6.2189 27.781 0 21.5618 0 13.8906C0 6.21913 6.2189 -2.08685e-06 13.8904 -2.08685e-06C21.5618 -2.08685e-06 27.7807 6.21913 27.7807 13.8906Z" fill="#176B57"/>
<path d="M15.24 16.3562V14.3017C15.24 10.8342 12.4292 8.02334 8.96184 8.02334H4.94515C4.94515 8.02334 4.69194 15.2298 12.0333 15.2298" stroke="white" stroke-width="0.34845" stroke-miterlimit="10" stroke-linecap="round" stroke-linejoin="round"/>
<path d="M15.5515 16.0338H17.4615C22.5468 16.0338 22.3714 11.0419 22.3714 11.0419H19.5891C17.1874 11.0419 15.2402 12.989 15.2402 15.3905V16.8138V22.5454" stroke="white" stroke-width="0.34845" stroke-miterlimit="10" stroke-linecap="round" stroke-linejoin="round"/>
</svg>
