<svg width="23" height="24" viewBox="0 0 23 24" fill="none" xmlns="http://www.w3.org/2000/svg">
<path d="M3.2 20.1334C2.2 19.1334 1.41667 17.9779 0.85 16.6667C0.283333 15.3556 0 14.0001 0 12.6001C0 11.2001 0.266667 9.81674 0.8 8.45008C1.33333 7.08341 2.2 5.80008 3.4 4.60008C4.17778 3.8223 5.13889 3.15563 6.28333 2.60008C7.42778 2.04452 8.78333 1.60563 10.35 1.28341C11.9167 0.96119 13.7056 0.766746 15.7167 0.700079C17.7278 0.633412 19.9778 0.71119 22.4667 0.933412C22.6444 3.28897 22.7 5.45563 22.6333 7.43341C22.5667 9.41119 22.3833 11.1945 22.0833 12.7834C21.7833 14.3723 21.3611 15.7612 20.8167 16.9501C20.2722 18.139 19.6 19.1334 18.8 19.9334C17.6222 21.1112 16.3722 21.9723 15.05 22.5167C13.7278 23.0612 12.3778 23.3334 11 23.3334C9.55556 23.3334 8.14445 23.0501 6.76667 22.4834C5.38889 21.9167 4.2 21.1334 3.2 20.1334ZM6.93333 19.6001C7.57778 19.9779 8.23889 20.2501 8.91667 20.4167C9.59445 20.5834 10.2889 20.6667 11 20.6667C12.0222 20.6667 13.0333 20.4612 14.0333 20.0501C15.0333 19.639 15.9889 18.9779 16.9 18.0667C17.3 17.6667 17.7056 17.1056 18.1167 16.3834C18.5278 15.6612 18.8833 14.7167 19.1833 13.5501C19.4833 12.3834 19.7111 10.9723 19.8667 9.31675C20.0222 7.66119 20.0444 5.68897 19.9333 3.40008C18.8444 3.35563 17.6167 3.33897 16.25 3.35008C14.8833 3.36119 13.5222 3.46675 12.1667 3.66675C10.8111 3.86675 9.52222 4.18897 8.3 4.63341C7.07778 5.07786 6.07778 5.68897 5.3 6.46675C4.3 7.46675 3.61111 8.45563 3.23333 9.43341C2.85556 10.4112 2.66667 11.3556 2.66667 12.2667C2.66667 13.5779 2.91667 14.7279 3.41667 15.7167C3.91667 16.7056 4.35556 17.4001 4.73333 17.8001C5.66667 16.0223 6.9 14.3167 8.43333 12.6834C9.96667 11.0501 11.7556 9.71119 13.8 8.66675C12.2 10.0667 10.8056 11.6501 9.61667 13.4167C8.42778 15.1834 7.53333 17.2445 6.93333 19.6001Z" fill="#1C1B1F"/>
</svg>
