<svg width="22" height="28" viewBox="0 0 22 28" fill="none" xmlns="http://www.w3.org/2000/svg">
<path d="M5.66543 27.3337C4.19876 27.3337 2.9432 26.8114 1.89876 25.767C0.854315 24.7225 0.332092 23.467 0.332092 22.0003V11.3337C0.332092 10.067 0.70987 8.96699 1.46543 8.03366C2.22098 7.10033 3.17654 6.4781 4.33209 6.16699V3.33366C4.33209 2.60033 4.59343 1.97233 5.11609 1.44966C5.63787 0.927881 6.26543 0.666992 6.99876 0.666992H14.9988C15.7321 0.666992 16.3601 0.927881 16.8828 1.44966C17.4045 1.97233 17.6654 2.60033 17.6654 3.33366V6.16699C18.821 6.4781 19.7765 7.10033 20.5321 8.03366C21.2876 8.96699 21.6654 10.067 21.6654 11.3337V22.0003C21.6654 23.467 21.1432 24.7225 20.0988 25.767C19.0543 26.8114 17.7988 27.3337 16.3321 27.3337H5.66543ZM2.99876 15.3337H18.9988V11.3337C18.9988 10.6003 18.7379 9.97233 18.2161 9.44966C17.6934 8.92788 17.0654 8.66699 16.3321 8.66699H5.66543C4.93209 8.66699 4.30454 8.92788 3.78276 9.44966C3.26009 9.97233 2.99876 10.6003 2.99876 11.3337V15.3337ZM5.66543 24.667H16.3321C17.0654 24.667 17.6934 24.4061 18.2161 23.8843C18.7379 23.3617 18.9988 22.7337 18.9988 22.0003V18.0003H2.99876V22.0003C2.99876 22.7337 3.26009 23.3617 3.78276 23.8843C4.30454 24.4061 4.93209 24.667 5.66543 24.667ZM12.3321 6.00033H14.9988V3.33366H6.99876V6.00033H9.66543C9.66543 5.62255 9.79343 5.30566 10.0494 5.04966C10.3045 4.79455 10.621 4.66699 10.9988 4.66699C11.3765 4.66699 11.6934 4.79455 11.9494 5.04966C12.2045 5.30566 12.3321 5.62255 12.3321 6.00033Z" fill="#1C1B1F"/>
</svg>
