<svg width="29" height="28" viewBox="0 0 29 28" fill="none" xmlns="http://www.w3.org/2000/svg">
<path d="M28.5342 14.0127C28.5342 21.6839 22.3153 27.9031 14.6438 27.9031C6.97232 27.9031 0.753418 21.6839 0.753418 14.0127C0.753418 6.34123 6.97232 0.122099 14.6438 0.122099C22.3153 0.122099 28.5342 6.34123 28.5342 14.0127Z" fill="#F20809"/>
<path d="M14.302 23.8938C14.302 23.8938 8.45457 22.7567 9.59145 17.2342C10.7286 11.7115 16.9551 9.0043 12.7319 4.13112C12.7319 4.13112 17.3884 4.56436 19.933 9.22081C22.4778 13.8773 22.2072 20.2121 18.3087 22.7567C18.3087 22.7567 19.0398 20.9564 17.9027 19.1697L17.9031 19.1663C17.4527 19.672 16.6778 19.7166 16.1723 19.2659C15.6877 18.8343 15.6268 18.1042 16.0194 17.5992C16.0194 17.5992 17.3747 16.1649 15.8721 13.119C15.8721 13.119 15.4424 15.0803 14.4442 16.9095C13.3875 18.8459 11.7848 20.6804 12.7454 21.6063" stroke="white" stroke-width="0.34845" stroke-miterlimit="10" stroke-linecap="round" stroke-linejoin="round"/>
</svg>
