<svg width="29" height="29" viewBox="0 0 29 29" fill="none" xmlns="http://www.w3.org/2000/svg">
<path d="M28.5935 14.595C28.5935 22.2662 22.3746 28.4854 14.7031 28.4854C7.03164 28.4854 0.812744 22.2662 0.812744 14.595C0.812744 6.92351 7.03164 0.704374 14.7031 0.704374C22.3746 0.704374 28.5935 6.92351 28.5935 14.595Z" fill="#7A549F"/>
<path d="M8.64612 21.4371H21.2863C21.7111 21.4371 22.0554 21.7813 22.0554 22.2064C22.0554 22.6311 21.7111 22.9753 21.2863 22.9753H7.35059" stroke="white" stroke-width="0.34845" stroke-miterlimit="10" stroke-linecap="round" stroke-linejoin="round"/>
<path d="M21.2865 15.8984H8.64633C8.22145 15.8984 7.87695 15.5542 7.87695 15.1293C7.87695 14.7044 8.22145 14.3601 8.64633 14.3601H21.2865C21.7113 14.3601 22.0556 14.7044 22.0556 15.1293C22.0556 15.5542 21.7113 15.8984 21.2865 15.8984Z" stroke="white" stroke-width="0.34845" stroke-miterlimit="10" stroke-linecap="round" stroke-linejoin="round"/>
<path d="M21.2865 8.82178H8.64633C8.22145 8.82178 7.87695 8.47728 7.87695 8.0524C7.87695 7.62776 8.22145 7.28326 8.64633 7.28326H21.2865C21.7113 7.28326 22.0556 7.62776 22.0556 8.0524C22.0556 8.47728 21.7113 8.82178 21.2865 8.82178Z" stroke="white" stroke-width="0.34845" stroke-miterlimit="10" stroke-linecap="round" stroke-linejoin="round"/>
<path d="M20.475 15.9875V21.437H9.05957V16.0044" stroke="white" stroke-width="0.34845" stroke-miterlimit="10" stroke-linecap="round" stroke-linejoin="round"/>
<path d="M9.05981 14.3601V8.82185H20.4753V14.3601" stroke="white" stroke-width="0.34845" stroke-miterlimit="10" stroke-linecap="round" stroke-linejoin="round"/>
<path d="M17.6873 6.2146H19.6588" stroke="white" stroke-width="0.34845" stroke-miterlimit="10" stroke-linecap="round" stroke-linejoin="round"/>
</svg>
