<svg width="26" height="33" viewBox="0 0 26 33" fill="none" xmlns="http://www.w3.org/2000/svg">
<path d="M10.9985 33C10.9985 33 -1.03842 31.1012 1.30183 21.8798C3.64255 12.6579 16.4599 8.13732 7.76643 -3.58969e-07C7.76643 -3.58969e-07 17.3517 0.723427 22.5897 8.49883C27.8283 16.2742 27.2712 26.8522 19.2463 31.1012C19.2463 31.1012 20.7511 28.095 18.4104 25.1117L18.4113 25.1059C17.4841 25.9503 15.8889 26.0248 14.8484 25.2723C13.8509 24.5516 13.7256 23.3324 14.5337 22.4891C14.5337 22.4891 17.3235 20.0943 14.2306 15.0081C14.2306 15.0081 13.3459 18.2832 11.2911 21.3375C9.11587 24.571 5.81686 27.6342 7.79416 29.1804" stroke="black" stroke-width="0.363377" stroke-miterlimit="10" stroke-linecap="round" stroke-linejoin="round"/>
</svg>
