<svg width="21" height="24" viewBox="0 0 21 24" fill="none" xmlns="http://www.w3.org/2000/svg">
<path d="M5.10376 5.00657V5.00657C5.10376 7.99348 4.60384 10.9593 3.62472 13.7812L1.3253 20.4083C0.924935 21.5622 1.7818 22.7665 3.00316 22.7665H17.5469C18.7682 22.7665 19.6251 21.5622 19.2247 20.4083L16.9253 13.7812C15.9462 10.9593 15.4463 7.99348 15.4463 5.00657V5.00657M5.10376 5.00657V1.45459H15.4463V5.00657M5.10376 5.00657H15.4463" stroke="black" stroke-width="2.30879"/>
<mask id="mask0_1794_131976" style="mask-type:alpha" maskUnits="userSpaceOnUse" x="5" y="10" width="10" height="10">
<rect x="5.83508" y="10.3345" width="8.71345" height="8.71345" fill="#D9D9D9"/>
</mask>
<g mask="url(#mask0_1794_131976)">
<path d="M8.6061 18.7163C8.55769 18.6599 8.53046 18.5893 8.52441 18.5046C8.51836 18.4198 8.53651 18.3457 8.57887 18.2822L10.3397 15.4231L7.39892 15.0948C7.2416 15.0807 7.13716 14.9854 7.0856 14.8089C7.03429 14.6324 7.06914 14.4842 7.19016 14.3642L10.9569 10.425C11.0114 10.3614 11.0765 10.3313 11.1522 10.3347C11.2278 10.3384 11.2927 10.372 11.3472 10.4355C11.3956 10.492 11.4228 10.5626 11.4289 10.6473C11.4349 10.732 11.4168 10.8062 11.3744 10.8697L9.61359 13.7288L12.5544 14.0571C12.7117 14.0712 12.816 14.1665 12.8673 14.343C12.9189 14.5195 12.8842 14.6677 12.7631 14.7877L8.99639 18.7269C8.94193 18.7905 8.87694 18.8204 8.80142 18.8167C8.72566 18.8133 8.66056 18.7799 8.6061 18.7163Z" fill="#1C1B1F"/>
</g>
</svg>
