<svg width="29" height="29" viewBox="0 0 29 29" fill="none" xmlns="http://www.w3.org/2000/svg">
<path d="M28.5613 14.1265C28.5613 21.7977 22.3424 28.0168 14.6709 28.0168C6.99941 28.0168 0.780273 21.7977 0.780273 14.1265C0.780273 6.455 6.99941 0.235868 14.6709 0.235868C22.3424 0.235868 28.5613 6.455 28.5613 14.1265Z" fill="#FFC700"/>
<path d="M9.32321 22.5733C10.4508 19.4379 10.9314 16.1021 10.731 12.7672H16.3849C16.1582 16.5379 16.8023 20.3102 18.2679 23.7919L18.4528 24.2314H7.0188" stroke="white" stroke-width="0.34845" stroke-miterlimit="10" stroke-linecap="round" stroke-linejoin="round"/>
<path d="M16.3523 14.6261C16.3957 17.4353 16.9193 20.2166 17.9041 22.8528H21.4952L21.3623 22.5376C20.3109 20.0389 19.8486 17.3319 20.0113 14.6261H16.3523Z" stroke="white" stroke-width="0.34845" stroke-miterlimit="10" stroke-linecap="round" stroke-linejoin="round"/>
<path d="M12.3299 4.26458C11.7619 4.26458 11.301 4.725 11.301 5.2932C11.301 5.57173 11.413 5.82354 11.5928 6.00869C11.1173 6.29511 10.7981 6.81477 10.7981 7.41015C10.7981 8.31403 11.531 9.0467 12.4346 9.0467C12.4948 9.0467 12.5489 9.02789 12.6072 9.02162C12.7694 9.8946 13.532 10.5569 14.4522 10.5569C15.4901 10.5569 16.3315 9.71549 16.3315 8.67758C16.3315 8.21275 16.1566 7.79275 15.8769 7.46474C16.1494 7.166 16.3175 6.77063 16.3175 6.33414C16.3175 5.40354 15.5633 4.6495 14.6329 4.6495C14.1202 4.6495 13.6619 4.87924 13.3529 5.24047" stroke="white" stroke-width="0.34845" stroke-miterlimit="10" stroke-linecap="round" stroke-linejoin="round"/>
<path d="M16.3314 15.8193H12.3677" stroke="white" stroke-width="0.34845" stroke-miterlimit="10" stroke-linecap="round" stroke-linejoin="round"/>
<path d="M20.0223 16.9104H17.8689" stroke="white" stroke-width="0.34845" stroke-miterlimit="10" stroke-linecap="round" stroke-linejoin="round"/>
</svg>
